# Made in Blockbench 5.0.7
mtllib generator.mtl

o Mesheselectricbox1
v -4.28161 5.487400000000001 -2.2075999999999993
v -4.28161 5.487400000000001 2.0543000000000013
v -4.16677 5.619599999999998 1.932500000000001
v -4.16677 5.619599999999998 -2.085799999999999
v -4.33147 0.25330000000000297 2.107199999999999
v -4.33147 0.0015000000000000568 -2.2605000000000004
v -4.33147 0.0015000000000000568 2.107199999999999
v -4.33147 0.25330000000000297 -2.2605000000000004
v 3.739275 5.619599999999998 -2.085799999999999
v 3.739275 5.619599999999998 1.932500000000001
v 3.854115 5.487400000000001 2.0543000000000013
v 3.854115 5.487400000000001 -2.2075999999999993
v -4.16677 1.4570000000000007 1.932500000000001
v -4.16677 0.3310999999999993 -2.085799999999999
v -4.16677 0.3248000000000033 1.932500000000001
v -4.16677 1.4632999999999967 -2.085799999999999
v -4.16677 5.3614999999999995 1.932500000000001
v -4.16677 5.367699999999999 -2.085799999999999
v -1.2930200000000003 0.0015000000000000568 -2.2605000000000004
v -1.2930200000000003 0.0015000000000000568 2.107199999999999
v -4.33147 0.0015000000000000568 2.107199999999999
v -4.33147 0.0015000000000000568 -2.2605000000000004
v 1.30071 0.0015000000000000568 2.107199999999999
v 1.30071 0.0015000000000000568 -2.2605000000000004
v 3.903984 0.0015000000000000568 -2.2605000000000004
v 3.903984 0.0015000000000000568 2.107199999999999
v 3.854115 5.487400000000001 -2.2075999999999993
v 1.2823699999999998 5.487400000000001 -2.2075999999999993
v 3.739275 5.619599999999998 -2.085799999999999
v 1.2401399999999998 5.619599999999998 -2.085799999999999
v -1.2799500000000004 5.487400000000001 -2.2075999999999993
v -1.2498500000000003 5.619599999999998 -2.085799999999999
v -4.16677 5.619599999999998 -2.085799999999999
v -4.28161 5.487400000000001 -2.2075999999999993
v 3.739275 5.619599999999998 -2.085799999999999
v 1.2401399999999998 5.619599999999998 1.932500000000001
v 3.739275 5.619599999999998 1.932500000000001
v 1.2401399999999998 5.619599999999998 -2.085799999999999
v -1.2498500000000003 5.619599999999998 -2.085799999999999
v -1.2498500000000003 5.619599999999998 1.932500000000001
v -4.16677 5.619599999999998 1.932500000000001
v -4.16677 5.619599999999998 -2.085799999999999
v 3.903984 0.25330000000000297 -2.2605000000000004
v 3.903984 0.25330000000000297 2.107199999999999
v 3.903984 0.0015000000000000568 2.107199999999999
v 3.903984 0.0015000000000000568 -2.2605000000000004
v -1.2799500000000004 5.487400000000001 2.0543000000000013
v 1.2823699999999998 5.487400000000001 2.0543000000000013
v 1.2401399999999998 5.619599999999998 1.932500000000001
v 3.739275 5.619599999999998 1.932500000000001
v 3.854115 5.487400000000001 2.0543000000000013
v -1.2498500000000003 5.619599999999998 1.932500000000001
v -4.16677 5.619599999999998 1.932500000000001
v -4.28161 5.487400000000001 2.0543000000000013
v 3.772217 4.8977 1.1973999999999982
v 3.772217 3.5651999999999973 1.1973999999999982
v 3.772217 4.8977 0.4527000000000001
v 3.772217 3.5651999999999973 0.4527000000000001
v 3.772217 4.8977 -0.5432999999999986
v 3.772217 3.5651999999999973 -0.5432999999999986
v 3.772217 4.8977 -1.2880000000000003
v 3.772217 3.5651999999999973 -1.2880000000000003
v 3.739275 5.367699999999999 -2.085799999999999
v 3.739275 5.3614999999999995 1.932500000000001
v 3.739275 2.7196 1.932500000000001
v 3.739275 1.4632999999999967 -2.085799999999999
v 3.739275 1.4570000000000007 1.932500000000001
v 3.739275 0.3310999999999993 -2.085799999999999
v 3.739275 0.3248000000000033 1.932500000000001
v 3.772217 4.8977 1.1973999999999982
v 3.772217 4.8977 0.4527000000000001
v 3.739275 4.8977 0.4527000000000001
v 3.739275 4.8977 1.1973999999999982
v 3.772217 4.8977 -0.5432999999999986
v 3.772217 4.8977 -1.2880000000000003
v 3.739275 4.8977 -1.2880000000000003
v 3.739275 4.8977 -0.5432999999999986
v -1.2930200000000003 0.25330000000000297 -2.2605000000000004
v 1.30071 0.25330000000000297 -2.2605000000000004
v 1.30071 0.0015000000000000568 -2.2605000000000004
v 3.903984 0.0015000000000000568 -2.2605000000000004
v 3.903984 0.25330000000000297 -2.2605000000000004
v -1.2930200000000003 0.0015000000000000568 -2.2605000000000004
v -4.33147 0.0015000000000000568 -2.2605000000000004
v -4.33147 0.25330000000000297 -2.2605000000000004
v -1.2498500000000003 5.367699999999999 -2.085799999999999
v -4.16677 1.4632999999999967 -2.085799999999999
v -4.16677 5.367699999999999 -2.085799999999999
v -1.2498500000000003 0.3310999999999993 -2.085799999999999
v -4.16677 0.3310999999999993 -2.085799999999999
v 1.2401399999999998 5.367699999999999 -2.085799999999999
v 1.2401399999999998 0.3310999999999993 -2.085799999999999
v 3.739275 1.4632999999999967 -2.085799999999999
v 3.739275 0.3310999999999993 -2.085799999999999
v 3.739275 5.367699999999999 -2.085799999999999
v -4.16677 5.367699999999999 -2.085799999999999
v -4.16677 5.3614999999999995 1.932500000000001
v -4.28161 5.487400000000001 2.0543000000000013
v -4.28161 5.487400000000001 -2.2075999999999993
v 3.903984 0.25330000000000297 2.107199999999999
v 1.30071 0.25330000000000297 2.107199999999999
v 3.903984 0.0015000000000000568 2.107199999999999
v 1.30071 0.0015000000000000568 2.107199999999999
v -1.2930200000000003 0.0015000000000000568 2.107199999999999
v -1.2930200000000003 0.25330000000000297 2.107199999999999
v -4.33147 0.0015000000000000568 2.107199999999999
v -4.33147 0.25330000000000297 2.107199999999999
v 3.739275 1.4570000000000007 1.932500000000001
v 1.2401399999999998 0.3248000000000033 1.932500000000001
v 3.739275 0.3248000000000033 1.932500000000001
v 0.5364900000000001 1.0459999999999994 1.932500000000001
v -1.2498500000000003 0.3248000000000033 1.932500000000001
v 3.739275 2.7196 1.932500000000001
v 0.5364900000000001 5.3614999999999995 1.932500000000001
v 3.739275 5.3614999999999995 1.932500000000001
v -3.4366899999999996 1.0459999999999994 1.932500000000001
v -4.16677 0.3248000000000033 1.932500000000001
v -4.16677 1.4570000000000007 1.932500000000001
v -3.4366899999999996 5.3614999999999995 1.932500000000001
v -4.16677 5.3614999999999995 1.932500000000001
v 0.5364900000000001 5.3614999999999995 1.7647000000000013
v -3.4366899999999996 1.0459999999999994 1.7647000000000013
v 0.5364900000000001 1.0459999999999994 1.7647000000000013
v -3.4366899999999996 5.3614999999999995 1.7647000000000013
v 3.772217 3.5651999999999973 -1.2880000000000003
v 3.739275 4.8977 -1.2880000000000003
v 3.772217 4.8977 -1.2880000000000003
v 3.739275 3.5651999999999973 -1.2880000000000003
v 3.772217 3.5651999999999973 1.1973999999999982
v 3.772217 4.8977 1.1973999999999982
v 3.739275 4.8977 1.1973999999999982
v 3.739275 3.5651999999999973 1.1973999999999982
v 3.854115 5.487400000000001 2.0543000000000013
v 3.739275 5.367699999999999 -2.085799999999999
v 3.854115 5.487400000000001 -2.2075999999999993
v 3.739275 5.3614999999999995 1.932500000000001
v 0.5364900000000001 5.3614999999999995 1.7647000000000013
v 0.5364900000000001 1.0459999999999994 1.7647000000000013
v 0.5364900000000001 1.0459999999999994 1.932500000000001
v 0.5364900000000001 5.3614999999999995 1.932500000000001
v -1.2799500000000004 5.487400000000001 -2.2075999999999993
v 1.2823699999999998 5.487400000000001 -2.2075999999999993
v 1.2401399999999998 5.367699999999999 -2.085799999999999
v 3.739275 5.367699999999999 -2.085799999999999
v 3.854115 5.487400000000001 -2.2075999999999993
v -1.2498500000000003 5.367699999999999 -2.085799999999999
v -4.16677 5.367699999999999 -2.085799999999999
v -4.28161 5.487400000000001 -2.2075999999999993
v 3.772217 4.8977 0.4527000000000001
v 3.772217 3.5651999999999973 0.4527000000000001
v 3.739275 3.5651999999999973 0.4527000000000001
v 3.739275 4.8977 0.4527000000000001
v 3.854115 5.487400000000001 2.0543000000000013
v 1.2823699999999998 5.487400000000001 2.0543000000000013
v 3.739275 5.3614999999999995 1.932500000000001
v 0.5364900000000001 5.3614999999999995 1.932500000000001
v -1.2799500000000004 5.487400000000001 2.0543000000000013
v -3.4366899999999996 5.3614999999999995 1.932500000000001
v -4.28161 5.487400000000001 2.0543000000000013
v -4.16677 5.3614999999999995 1.932500000000001
v -4.33147 0.25330000000000297 -2.2605000000000004
v -4.33147 0.25330000000000297 2.107199999999999
v -4.16677 0.3248000000000033 1.932500000000001
v -4.16677 0.3310999999999993 -2.085799999999999
v 3.772217 3.5651999999999973 -0.5432999999999986
v 3.772217 4.8977 -0.5432999999999986
v 3.739275 4.8977 -0.5432999999999986
v 3.739275 3.5651999999999973 -0.5432999999999986
v 3.772217 3.5651999999999973 0.4527000000000001
v 3.772217 3.5651999999999973 1.1973999999999982
v 3.739275 3.5651999999999973 1.1973999999999982
v 3.739275 3.5651999999999973 0.4527000000000001
v 3.772217 3.5651999999999973 -1.2880000000000003
v 3.772217 3.5651999999999973 -0.5432999999999986
v 3.739275 3.5651999999999973 -0.5432999999999986
v 3.739275 3.5651999999999973 -1.2880000000000003
v 3.903984 0.25330000000000297 2.107199999999999
v 3.903984 0.25330000000000297 -2.2605000000000004
v 3.739275 0.3310999999999993 -2.085799999999999
v 3.739275 0.3248000000000033 1.932500000000001
v -1.2930200000000003 0.25330000000000297 -2.2605000000000004
v -4.16677 0.3310999999999993 -2.085799999999999
v -1.2498500000000003 0.3310999999999993 -2.085799999999999
v -4.33147 0.25330000000000297 -2.2605000000000004
v 1.2401399999999998 0.3310999999999993 -2.085799999999999
v 1.30071 0.25330000000000297 -2.2605000000000004
v 3.739275 0.3310999999999993 -2.085799999999999
v 3.903984 0.25330000000000297 -2.2605000000000004
v -1.2930200000000003 0.25330000000000297 2.107199999999999
v 1.30071 0.25330000000000297 2.107199999999999
v 1.2401399999999998 0.3248000000000033 1.932500000000001
v 3.739275 0.3248000000000033 1.932500000000001
v 3.903984 0.25330000000000297 2.107199999999999
v -1.2498500000000003 0.3248000000000033 1.932500000000001
v -4.16677 0.3248000000000033 1.932500000000001
v -4.33147 0.25330000000000297 2.107199999999999
v 0.5364900000000001 1.0459999999999994 1.932500000000001
v -3.4366899999999996 1.0459999999999994 1.7647000000000013
v -3.4366899999999996 1.0459999999999994 1.932500000000001
v 0.5364900000000001 1.0459999999999994 1.7647000000000013
v 0.5364900000000001 5.3614999999999995 1.7647000000000013
v -3.4366899999999996 5.3614999999999995 1.932500000000001
v -3.4366899999999996 5.3614999999999995 1.7647000000000013
v 0.5364900000000001 5.3614999999999995 1.932500000000001
v 3.739275 4.8977 0.4527000000000001
v 3.739275 3.5651999999999973 0.4527000000000001
v 3.739275 3.5651999999999973 1.1973999999999982
v 3.739275 4.8977 1.1973999999999982
v 3.739275 4.8977 -1.2880000000000003
v 3.739275 3.5651999999999973 -1.2880000000000003
v 3.739275 3.5651999999999973 -0.5432999999999986
v 3.739275 4.8977 -0.5432999999999986
v -3.4366899999999996 1.0459999999999994 1.7647000000000013
v -3.4366899999999996 5.3614999999999995 1.7647000000000013
v -3.4366899999999996 5.3614999999999995 1.932500000000001
v -3.4366899999999996 1.0459999999999994 1.932500000000001
vt 0.520466 0.532878
vt 0.520466 0.334187
vt 0.529017 0.339866
vt 0.520466 0.532878
vt 0.529017 0.339866
vt 0.529017 0.527199
vt 0.433825 0.002876639999999986
vt 0.417535 0.20650000000000002
vt 0.417535 0.002876639999999986
vt 0.417535 0.20650000000000002
vt 0.433825 0.002876639999999986
vt 0.433825 0.20650000000000002
vt 0.529471 0.527199
vt 0.529471 0.339866
vt 0.538022 0.334187
vt 0.529471 0.527199
vt 0.538022 0.334187
vt 0.538022 0.532878
vt 0.609321 0.917022
vt 0.796654 0.989851
vt 0.609321 0.990257
vt 0.796654 0.989851
vt 0.609321 0.917022
vt 0.796654 0.916616
vt 0.609321 0.917022
vt 0.609321 0.66446
vt 0.796654 0.916616
vt 0.796654 0.916616
vt 0.609321 0.66446
vt 0.796654 0.664054
vt -0.582457 0.09130380000000005
vt -0.582457 0.29492699999999994
vt -0.732709 0.29492699999999994
vt -0.582457 0.09130380000000005
vt -0.732709 0.29492699999999994
vt -0.732709 0.09130380000000005
vt -0.582457 0.09130380000000005
vt -0.454196 0.29492699999999994
vt -0.582457 0.29492699999999994
vt -0.454196 0.29492699999999994
vt -0.582457 0.09130380000000005
vt -0.454196 0.09130380000000005
vt -0.325463 0.09130380000000005
vt -0.454196 0.29492699999999994
vt -0.454196 0.09130380000000005
vt -0.454196 0.29492699999999994
vt -0.325463 0.09130380000000005
vt -0.325463 0.29492699999999994
vt 0.0342234 0.832463
vt 0.161397 0.832463
vt 0.0399023 0.841014
vt 0.0399023 0.841014
vt 0.161397 0.832463
vt 0.163486 0.841014
vt 0.288105 0.832463
vt 0.163486 0.841014
vt 0.161397 0.832463
vt 0.163486 0.841014
vt 0.288105 0.832463
vt 0.286616 0.841014
vt 0.288105 0.832463
vt 0.430859 0.841014
vt 0.286616 0.841014
vt 0.288105 0.832463
vt 0.436538 0.832463
vt 0.430859 0.841014
vt 0.403113 0.740728
vt 0.27953 0.553395
vt 0.403113 0.553395
vt 0.27953 0.553395
vt 0.403113 0.740728
vt 0.27953 0.740728
vt 0.156399 0.740728
vt 0.27953 0.553395
vt 0.27953 0.740728
vt 0.27953 0.553395
vt 0.156399 0.740728
vt 0.156399 0.553395
vt 0.156399 0.553395
vt 0.156399 0.740728
vt 0.0121565 0.553395
vt 0.0121565 0.553395
vt 0.156399 0.740728
vt 0.0121565 0.740728
vt 0.449734 0.20650000000000002
vt 0.449734 0.002876639999999986
vt 0.466024 0.002876639999999986
vt 0.449734 0.20650000000000002
vt 0.466024 0.002876639999999986
vt 0.466024 0.20650000000000002
vt 0.213537 0.776377
vt 0.340244 0.776377
vt 0.338156 0.784928
vt 0.461739 0.784928
vt 0.338156 0.784928
vt 0.340244 0.776377
vt 0.340244 0.776377
vt 0.467418 0.776377
vt 0.461739 0.784928
vt 0.213537 0.776377
vt 0.338156 0.784928
vt 0.215025 0.784928
vt 0.215025 0.784928
vt 0.0707825 0.784928
vt 0.213537 0.776377
vt 0.0651037 0.776377
vt 0.213537 0.776377
vt 0.0707825 0.784928
vt 0.66064 0.565102
vt 0.66064 0.47890999999999995
vt 0.695359 0.565102
vt 0.695359 0.565102
vt 0.66064 0.47890999999999995
vt 0.695359 0.47890999999999995
vt 0.657658 0.473565
vt 0.657658 0.38737200000000005
vt 0.692377 0.473565
vt 0.692377 0.473565
vt 0.657658 0.38737200000000005
vt 0.692377 0.38737200000000005
vt 0.802636 0.664877
vt 0.989969 0.665283
vt 0.989969 0.836172
vt 0.802636 0.664877
vt 0.989969 0.836172
vt 0.802636 0.917439
vt 0.989969 0.917845
vt 0.802636 0.917439
vt 0.989969 0.836172
vt 0.989969 0.917845
vt 0.802636 0.990674
vt 0.802636 0.917439
vt 0.802636 0.990674
vt 0.989969 0.917845
vt 0.989969 0.99108
vt 0.741932 0.255162
vt 0.741932 0.22044299999999994
vt 0.743561 0.22044299999999994
vt 0.741932 0.255162
vt 0.743561 0.22044299999999994
vt 0.743561 0.255162
vt 0.69458 0.11643599999999998
vt 0.7293 0.11643599999999998
vt 0.7293 0.11806499999999998
vt 0.69458 0.11643599999999998
vt 0.7293 0.11806499999999998
vt 0.69458 0.11806499999999998
vt 0.499461 0.463677
vt 0.499461 0.591938
vt 0.483171 0.591938
vt 0.483171 0.72067
vt 0.483171 0.591938
vt 0.499461 0.591938
vt 0.499461 0.591938
vt 0.499461 0.720671
vt 0.483171 0.72067
vt 0.499461 0.463677
vt 0.483171 0.591938
vt 0.483171 0.463677
vt 0.483171 0.463677
vt 0.483171 0.3134239999999999
vt 0.499461 0.463677
vt 0.499461 0.463677
vt 0.483171 0.3134239999999999
vt 0.499461 0.3134239999999999
vt 0.2544 0.32906
vt 0.398642 0.07649859999999997
vt 0.398642 0.32906
vt 0.398642 0.07649859999999997
vt 0.2544 0.32906
vt 0.2544 0.003263000000000016
vt 0.398642 0.07649859999999997
vt 0.2544 0.003263000000000016
vt 0.398642 0.003263000000000016
vt 0.131269 0.32906
vt 0.2544 0.003263000000000016
vt 0.2544 0.32906
vt 0.2544 0.003263000000000016
vt 0.131269 0.32906
vt 0.131269 0.003263000000000016
vt 0.131269 0.32906
vt 0.00768592 0.07649850000000002
vt 0.131269 0.003263000000000016
vt 0.131269 0.003263000000000016
vt 0.00768592 0.07649850000000002
vt 0.00768592 0.003263000000000016
vt 0.00768592 0.07649850000000002
vt 0.131269 0.32906
vt 0.00768592 0.32906
vt 0.414687 0.890585
vt 0.227354 0.890991
vt 0.221675 0.882847
vt 0.414687 0.890585
vt 0.221675 0.882847
vt 0.420366 0.882847
vt 0.441114 0.722345
vt 0.441114 0.593612
vt 0.457404 0.722345
vt 0.457404 0.722345
vt 0.441114 0.593612
vt 0.457404 0.593612
vt 0.457404 0.46535100000000007
vt 0.457404 0.593612
vt 0.441114 0.593612
vt 0.457404 0.46535100000000007
vt 0.441114 0.593612
vt 0.441114 0.46535100000000007
vt 0.441114 0.46535100000000007
vt 0.457404 0.315099
vt 0.457404 0.46535100000000007
vt 0.457404 0.315099
vt 0.441114 0.46535100000000007
vt 0.441114 0.315099
vt 0.992604 0.08024209999999998
vt 0.869021 0.007006529999999955
vt 0.992604 0.007006529999999955
vt 0.992604 0.08024209999999998
vt 0.834225 0.05365489999999995
vt 0.869021 0.007006529999999955
vt 0.74589 0.007006650000000003
vt 0.869021 0.007006529999999955
vt 0.834225 0.05365489999999995
vt 0.834225 0.05365489999999995
vt 0.992604 0.08024209999999998
vt 0.992604 0.16191500000000003
vt 0.834225 0.05365489999999995
vt 0.992604 0.16191500000000003
vt 0.834225 0.332804
vt 0.834225 0.332804
vt 0.992604 0.16191500000000003
vt 0.992604 0.332804
vt 0.834225 0.05365489999999995
vt 0.63775 0.05365500000000001
vt 0.74589 0.007006650000000003
vt 0.601648 0.007006650000000003
vt 0.74589 0.007006650000000003
vt 0.63775 0.05365500000000001
vt 0.63775 0.05365500000000001
vt 0.601648 0.08024220000000004
vt 0.601648 0.007006650000000003
vt 0.63775 0.332804
vt 0.601648 0.08024220000000004
vt 0.63775 0.05365500000000001
vt 0.601648 0.08024220000000004
vt 0.63775 0.332804
vt 0.601648 0.332804
vt 0.772022 0.353627
vt 0.968497 0.632776
vt 0.772022 0.632776
vt 0.968497 0.632776
vt 0.772022 0.353627
vt 0.968497 0.353627
vt 0.733656 0.22044299999999994
vt 0.735285 0.306636
vt 0.733656 0.306636
vt 0.735285 0.306636
vt 0.733656 0.22044299999999994
vt 0.735285 0.22044299999999994
vt 0.731573 0.306636
vt 0.731573 0.22044299999999994
vt 0.733202 0.22044299999999994
vt 0.731573 0.306636
vt 0.733202 0.22044299999999994
vt 0.733202 0.306636
vt 0.219937 0.882847
vt 0.0269251 0.890585
vt 0.0212462 0.882847
vt 0.0269251 0.890585
vt 0.219937 0.882847
vt 0.214258 0.890991
vt 0.989281 0.354633
vt 0.989281 0.633782
vt 0.981459 0.633782
vt 0.981459 0.633782
vt 0.981459 0.354633
vt 0.989281 0.354633
vt 0.189068 0.859998
vt 0.315776 0.859998
vt 0.313687 0.867737
vt 0.43727 0.867737
vt 0.313687 0.867737
vt 0.315776 0.859998
vt 0.315776 0.859998
vt 0.442949 0.859998
vt 0.43727 0.867737
vt 0.189068 0.859998
vt 0.313687 0.867737
vt 0.190557 0.867737
vt 0.190557 0.867737
vt 0.0463141 0.867737
vt 0.189068 0.859998
vt 0.0406353 0.859998
vt 0.189068 0.859998
vt 0.0463141 0.867737
vt 0.776419 0.19432399999999994
vt 0.776419 0.10813099999999998
vt 0.778048 0.10813099999999998
vt 0.776419 0.19432399999999994
vt 0.778048 0.10813099999999998
vt 0.778048 0.19432399999999994
vt 0.440059 0.819956
vt 0.312885 0.819956
vt 0.43438 0.811811
vt 0.276001 0.811811
vt 0.43438 0.811811
vt 0.312885 0.819956
vt 0.312885 0.819956
vt 0.186178 0.819956
vt 0.276001 0.811811
vt 0.0795262 0.811811
vt 0.276001 0.811811
vt 0.186178 0.819956
vt 0.186178 0.819956
vt 0.0377448 0.819956
vt 0.0795262 0.811811
vt 0.0795262 0.811811
vt 0.0377448 0.819956
vt 0.0434237 0.811811
vt 0.41332 0.331939
vt 0.41332 0.535562
vt 0.405176 0.527418
vt 0.41332 0.331939
vt 0.405176 0.527418
vt 0.405176 0.34008400000000005
vt 0.739849 0.306636
vt 0.739849 0.22044299999999994
vt 0.741478 0.22044299999999994
vt 0.739849 0.306636
vt 0.741478 0.22044299999999994
vt 0.741478 0.306636
vt 0.73574 0.25516300000000003
vt 0.73574 0.22044299999999994
vt 0.737369 0.22044299999999994
vt 0.73574 0.25516300000000003
vt 0.737369 0.22044299999999994
vt 0.737369 0.25516300000000003
vt 0.69458 0.12544100000000002
vt 0.7293 0.12544100000000002
vt 0.7293 0.12707000000000002
vt 0.69458 0.12544100000000002
vt 0.7293 0.12707000000000002
vt 0.69458 0.12707000000000002
vt 0.00607423 0.535562
vt 0.00607423 0.331939
vt 0.0142192 0.34008400000000005
vt 0.00607423 0.535562
vt 0.0142192 0.34008400000000005
vt 0.0142192 0.527418
vt 0.263068 0.331939
vt 0.405176 0.34008400000000005
vt 0.260933 0.34008400000000005
vt 0.405176 0.34008400000000005
vt 0.263068 0.331939
vt 0.41332 0.331939
vt 0.137802 0.34008400000000005
vt 0.263068 0.331939
vt 0.260933 0.34008400000000005
vt 0.263068 0.331939
vt 0.137802 0.34008400000000005
vt 0.134807 0.331939
vt 0.0142192 0.34008400000000005
vt 0.134807 0.331939
vt 0.137802 0.34008400000000005
vt 0.134807 0.331939
vt 0.0142192 0.34008400000000005
vt 0.00607423 0.331939
vt 0.263068 0.535562
vt 0.134807 0.535562
vt 0.137802 0.527418
vt 0.134807 0.535562
vt 0.0142192 0.527418
vt 0.137802 0.527418
vt 0.0142192 0.527418
vt 0.134807 0.535562
vt 0.00607423 0.535562
vt 0.263068 0.535562
vt 0.137802 0.527418
vt 0.260933 0.527418
vt 0.405176 0.527418
vt 0.263068 0.535562
vt 0.260933 0.527418
vt 0.263068 0.535562
vt 0.405176 0.527418
vt 0.41332 0.535562
vt 0.772248 0.34863299999999997
vt 0.968723 0.340811
vt 0.968723 0.34863299999999997
vt 0.968723 0.340811
vt 0.772248 0.34863299999999997
vt 0.772248 0.340811
vt 0.774811 0.645716
vt 0.971286 0.637895
vt 0.971286 0.645716
vt 0.971286 0.637895
vt 0.774811 0.645716
vt 0.774811 0.637895
vt 0.630033 0.47817299999999996
vt 0.630033 0.564365
vt 0.595313 0.564365
vt 0.595313 0.564365
vt 0.595313 0.47817299999999996
vt 0.630033 0.47817299999999996
vt 0.630033 0.387069
vt 0.630033 0.47326200000000007
vt 0.595313 0.47326200000000007
vt 0.595313 0.47326200000000007
vt 0.595313 0.387069
vt 0.630033 0.387069
vt 0.755909 0.3528819999999999
vt 0.755909 0.632031
vt 0.748087 0.63203
vt 0.748087 0.63203
vt 0.748087 0.3528819999999999
vt 0.755909 0.3528819999999999
vn -0.7549349055726343 0.6557997318907945 0
vn -0.7549349055726342 0.6557997318907945 0
vn -1 0 0
vn -1 0 0
vn 0.7549349055726344 0.6557997318907941 0
vn 0.7549349055726344 0.6557997318907941 0
vn -1 0 0
vn -1 0 0
vn -1 0 0
vn -1 0 0
vn 0 -1 0
vn 0 -1 0
vn 0 -1 0
vn 0 -1 0
vn 0 -1 0
vn 0 -1 0
vn 0 0.6775866340448222 -0.7354429640453489
vn 0 0.6775866340448221 -0.7354429640453488
vn 0 0.6775866340448221 -0.7354429640453488
vn 0 0.6775866340448221 -0.7354429640453488
vn 0 0.6775866340448221 -0.7354429640453488
vn 0 0.6775866340448221 -0.7354429640453488
vn 0 1 0
vn 0 1 0
vn 0 1 0
vn 0 1 0
vn 0 1 0
vn 0 1 0
vn 1 0 0
vn 1 0 0
vn 0 0.6775866340448221 0.7354429640453488
vn 0 0.6775866340448221 0.7354429640453488
vn 0 0.6775866340448222 0.7354429640453489
vn 0 0.6775866340448221 0.7354429640453488
vn 0 0.6775866340448221 0.7354429640453488
vn 0 0.6775866340448221 0.7354429640453488
vn 1 0 0
vn 1 0 0
vn 1 0 0
vn 1 0 0
vn 1 0 0
vn 1 0 0
vn 1 0 0
vn 1 0 0
vn 1 0 0
vn 0 1 0
vn 0 1 0
vn 0 1 0
vn 0 1 0
vn 0 0 -1
vn 0 0 -1
vn 0 0 -1
vn 0 0 -1
vn 0 0 -1
vn 0 0 -1
vn 0 0 -1
vn 0 0 -1
vn 0 0 -1
vn 0 0 -1
vn 0 0 -1
vn 0 0 -1
vn 0 0 -1
vn 0 0 -1
vn -0.7393130236505854 -0.6733611019579743 -0.0010389564821290794
vn -0.7216041287634083 -0.6923059160166137 0
vn 0 0 1
vn 0 0 1
vn 0 0 1
vn 0 0 1
vn 0 0 1
vn 0 0 1
vn 0 0 1
vn 0 0 1
vn 0 0 1
vn 0 0 1
vn 0 0 1
vn 0 0 1
vn 0 0 1
vn 0 0 1
vn 0 0 1
vn 0 0 1
vn 0 0 1
vn 0 0 1
vn 0 0 1
vn 0 0 -1
vn 0 0 -1
vn 0 0 1
vn 0 0 1
vn 0.7216041287634086 -0.6923059160166134 0
vn 0.7393130236505857 -0.6733611019579739 -0.001038956482129079
vn -1 0 0
vn -1 0 0
vn 0 -0.7132285711519056 -0.7009315268217083
vn 0 -0.7132285711519056 -0.7009315268217082
vn 0 -0.7132285711519057 -0.7009315268217082
vn 0 -0.7132285711519056 -0.7009315268217082
vn 0 -0.7132285711519056 -0.7009315268217082
vn 0 -0.7132285711519056 -0.7009315268217082
vn 0 0 -1
vn 0 0 -1
vn 0 -0.6953073081262197 0.7187125623406552
vn 0 -0.6953073081262197 0.7187125623406553
vn 0 -0.6953073081262197 0.7187125623406553
vn 0 -0.6953073081262197 0.7187125623406553
vn 0 -0.6953073081262198 0.7187125623406553
vn 0 -0.6953073081262197 0.7187125623406553
vn -0.39821691741703424 0.9172912769032938 0
vn -0.42834628747162745 0.903613551769972 0.0014167098962614012
vn 0 0 1
vn 0 0 1
vn 0 -1 0
vn 0 -1 0
vn 0 -1 0
vn 0 -1 0
vn 0.42709944464642785 0.9042046584610772 0
vn 0.3969134958560065 0.9178548937481366 0.0014390378594454272
vn 0 0.9135094147425865 -0.4068175871034304
vn 0 0.9135094147425866 -0.4068175871034304
vn 0 0.9135094147425865 -0.4068175871034304
vn 0 0.9135094147425865 -0.40681758710343036
vn 0 0.9135094147425865 -0.4068175871034304
vn 0 0.9135094147425866 -0.40681758710343047
vn 0 0.9254878745397604 0.3787772354298455
vn 0 0.9254878745397604 0.3787772354298455
vn 0 0.9254878745397606 0.3787772354298455
vn 0 0.9254878745397606 0.3787772354298454
vn 0 0.9254878745397604 0.3787772354298455
vn 0 0.9254878745397604 0.3787772354298455
vn 0 1 0
vn 0 1 0
vn 0 -1 0
vn 0 -1 0
vn -1 0 0
vn -1 0 0
vn -1 0 0
vn -1 0 0
vn 1 0 0
vn 1 0 0
usemtl m_fdc4b8d6-dceb-3e8a-06d4-6e009ea868a5
f 1/1/1 2/2/1 3/3/1
f 1/4/2 3/5/2 4/6/2
f 5/7/3 6/8/3 7/9/3
f 6/10/4 5/11/4 8/12/4
f 9/13/5 10/14/5 11/15/5
f 9/16/6 11/17/6 12/18/6
f 13/19/7 14/20/7 15/21/7
f 14/22/8 13/23/8 16/24/8
f 13/25/9 17/26/9 16/27/9
f 16/28/10 17/29/10 18/30/10
f 19/31/11 20/32/11 21/33/11
f 19/34/12 21/35/12 22/36/12
f 19/37/13 23/38/13 20/39/13
f 23/40/14 19/41/14 24/42/14
f 25/43/15 23/44/15 24/45/15
f 23/46/16 25/47/16 26/48/16
f 27/49/17 28/50/17 29/51/17
f 29/52/18 28/53/18 30/54/18
f 31/55/19 30/56/19 28/57/19
f 30/58/20 31/59/20 32/60/20
f 31/61/21 33/62/21 32/63/21
f 31/64/22 34/65/22 33/66/22
f 35/67/23 36/68/23 37/69/23
f 36/70/24 35/71/24 38/72/24
f 39/73/25 36/74/25 38/75/25
f 36/76/26 39/77/26 40/78/26
f 40/79/27 39/80/27 41/81/27
f 41/82/28 39/83/28 42/84/28
f 43/85/29 44/86/29 45/87/29
f 43/88/30 45/89/30 46/90/30
f 47/91/31 48/92/31 49/93/31
f 50/94/32 49/95/32 48/96/32
f 48/97/33 51/98/33 50/99/33
f 47/100/34 49/101/34 52/102/34
f 52/103/35 53/104/35 47/105/35
f 54/106/36 47/107/36 53/108/36
f 55/109/37 56/110/37 57/111/37
f 57/112/38 56/113/38 58/114/38
f 59/115/39 60/116/39 61/117/39
f 61/118/40 60/119/40 62/120/40
f 63/121/41 64/122/41 65/123/41
f 63/124/42 65/125/42 66/126/42
f 67/127/43 66/128/43 65/129/43
f 67/130/44 68/131/44 66/132/44
f 68/133/45 67/134/45 69/135/45
f 70/136/46 71/137/46 72/138/46
f 70/139/47 72/140/47 73/141/47
f 74/142/48 75/143/48 76/144/48
f 74/145/49 76/146/49 77/147/49
f 78/148/50 79/149/50 80/150/50
f 81/151/51 80/152/51 79/153/51
f 79/154/52 82/155/52 81/156/52
f 78/157/53 80/158/53 83/159/53
f 83/160/54 84/161/54 78/162/54
f 78/163/55 84/164/55 85/165/55
f 86/166/56 87/167/56 88/168/56
f 87/169/57 86/170/57 89/171/57
f 87/172/58 89/173/58 90/174/58
f 91/175/59 89/176/59 86/177/59
f 89/178/60 91/179/60 92/180/60
f 91/181/61 93/182/61 92/183/61
f 92/184/62 93/185/62 94/186/62
f 93/187/63 91/188/63 95/189/63
f 96/190/64 97/191/64 98/192/64
f 96/193/65 98/194/65 99/195/65
f 100/196/66 101/197/66 102/198/66
f 102/199/67 101/200/67 103/201/67
f 104/202/68 103/203/68 101/204/68
f 104/205/69 101/206/69 105/207/69
f 105/208/70 106/209/70 104/210/70
f 106/211/71 105/212/71 107/213/71
f 108/214/72 109/215/72 110/216/72
f 108/217/73 111/218/73 109/219/73
f 112/220/74 109/221/74 111/222/74
f 111/223/75 108/224/75 113/225/75
f 111/226/76 113/227/76 114/228/76
f 114/229/77 113/230/77 115/231/77
f 111/232/78 116/233/78 112/234/78
f 117/235/79 112/236/79 116/237/79
f 116/238/80 118/239/80 117/240/80
f 119/241/81 118/242/81 116/243/81
f 118/244/82 119/245/82 120/246/82
f 121/247/83 122/248/83 123/249/83
f 122/250/84 121/251/84 124/252/84
f 125/253/85 126/254/85 127/255/85
f 126/256/86 125/257/86 128/258/86
f 129/259/87 130/260/87 131/261/87
f 129/262/88 131/263/88 132/264/88
f 133/265/89 134/266/89 135/267/89
f 134/268/90 133/269/90 136/270/90
f 137/271/91 138/272/91 139/273/91
f 139/274/92 140/275/92 137/276/92
f 141/277/93 142/278/93 143/279/93
f 144/280/94 143/281/94 142/282/94
f 142/283/95 145/284/95 144/285/95
f 141/286/96 143/287/96 146/288/96
f 146/289/97 147/290/97 141/291/97
f 148/292/98 141/293/98 147/294/98
f 149/295/99 150/296/99 151/297/99
f 149/298/100 151/299/100 152/300/100
f 153/301/101 154/302/101 155/303/101
f 156/304/102 155/305/102 154/306/102
f 154/307/103 157/308/103 156/309/103
f 158/310/104 156/311/104 157/312/104
f 157/313/105 159/314/105 158/315/105
f 158/316/106 159/317/106 160/318/106
f 161/319/107 162/320/107 163/321/107
f 161/322/108 163/323/108 164/324/108
f 165/325/109 166/326/109 167/327/109
f 165/328/110 167/329/110 168/330/110
f 169/331/111 170/332/111 171/333/111
f 169/334/112 171/335/112 172/336/112
f 173/337/113 174/338/113 175/339/113
f 173/340/114 175/341/114 176/342/114
f 177/343/115 178/344/115 179/345/115
f 177/346/116 179/347/116 180/348/116
f 181/349/117 182/350/117 183/351/117
f 182/352/118 181/353/118 184/354/118
f 185/355/119 181/356/119 183/357/119
f 181/358/120 185/359/120 186/360/120
f 187/361/121 186/362/121 185/363/121
f 186/364/122 187/365/122 188/366/122
f 189/367/123 190/368/123 191/369/123
f 190/370/124 192/371/124 191/372/124
f 192/373/125 190/374/125 193/375/125
f 189/376/126 191/377/126 194/378/126
f 195/379/127 189/380/127 194/381/127
f 189/382/128 195/383/128 196/384/128
f 197/385/129 198/386/129 199/387/129
f 198/388/130 197/389/130 200/390/130
f 201/391/131 202/392/131 203/393/131
f 202/394/132 201/395/132 204/396/132
f 205/397/133 206/398/133 207/399/133
f 207/400/134 208/401/134 205/402/134
f 209/403/135 210/404/135 211/405/135
f 211/406/136 212/407/136 209/408/136
f 213/409/137 214/410/137 215/411/137
f 215/412/138 216/413/138 213/414/138