# Made in Blockbench 5.0.7
mtllib model.mtl

o cube
v 0.96875 1.65625 0.3437499999999999
v 0.96875 1.65625 -0.5625
v 0.96875 1.53125 0.3437499999999999
v 0.96875 1.53125 -0.5625
v -0.875 1.65625 -0.5625
v -0.875 1.65625 0.3437499999999999
v -0.875 1.53125 -0.5625
v -0.875 1.53125 0.3437499999999999
v 0.96875 0 0.53125
v 0.96875 1.65625 0.5312499999999996
v 0.96875 0 0.34375
v 0.96875 1.65625 0.34374999999999956
v -0.875 1.65625 0.5312499999999996
v -0.875 0 0.53125
v -0.875 1.65625 0.34374999999999956
v -0.875 0 0.34375
v 0.96875 0.84375 0.3437499999999999
v 0.96875 0.84375 -0.5625
v 0.96875 0.71875 0.3437499999999999
v 0.96875 0.71875 -0.5625
v -0.875 0.84375 -0.5625
v -0.875 0.84375 0.3437499999999999
v -0.875 0.71875 -0.5625
v -0.875 0.71875 0.3437499999999999
v 0.96875 0.125 0.3437499999999999
v 0.96875 0.125 -0.5625
v 0.96875 0 0.3437499999999999
v 0.96875 0 -0.5625
v -0.875 0.125 -0.5625
v -0.875 0.125 0.3437499999999999
v -0.875 0 -0.5625
v -0.875 0 0.3437499999999999
vt 0.4609375 0.765625
vt 0.4609375 0.7578125
vt 0.59375 0.765625
vt 0.4609375 0.7578125
vt 0.59375 0.7578125
vt 0.59375 0.765625
vt 0.4609375 0.7578125
vt 0.4609375 0.75
vt 0.59375 0.7578125
vt 0.4609375 0.75
vt 0.59375 0.75
vt 0.59375 0.7578125
vt 0.4609375 0.8671875
vt 0.4609375 1
vt 0.23046875 0.8671875
vt 0.4609375 1
vt 0.23046875 1
vt 0.23046875 0.8671875
vt 0.4609375 0.8671875
vt 0.4609375 0.734375
vt 0.23046875 0.8671875
vt 0.4609375 0.734375
vt 0.23046875 0.734375
vt 0.23046875 0.8671875
vt 0.4609375 0.8203125
vt 0.4609375 0.8125
vt 0.69140625 0.8203125
vt 0.4609375 0.8125
vt 0.69140625 0.8125
vt 0.69140625 0.8203125
vt 0.4609375 0.8046875
vt 0.4609375 0.796875
vt 0.66015625 0.8046875
vt 0.4609375 0.796875
vt 0.66015625 0.796875
vt 0.66015625 0.8046875
vt 0.4609375 0.796875
vt 0.4609375 0.7890625
vt 0.66015625 0.796875
vt 0.4609375 0.7890625
vt 0.66015625 0.7890625
vt 0.66015625 0.796875
vt 0.23046875 0.80078125
vt 0.23046875 1
vt 0 0.80078125
vt 0.23046875 1
vt 0 1
vt 0 0.80078125
vt 0.23046875 0.80078125
vt 0.23046875 0.6015625
vt 0 0.80078125
vt 0.23046875 0.6015625
vt 0 0.6015625
vt 0 0.80078125
vt 0.4609375 0.84375
vt 0.4609375 0.8359375
vt 0.69140625 0.84375
vt 0.4609375 0.8359375
vt 0.69140625 0.8359375
vt 0.69140625 0.84375
vt 0.4609375 0.8515625
vt 0.4609375 0.84375
vt 0.69140625 0.8515625
vt 0.4609375 0.84375
vt 0.69140625 0.84375
vt 0.69140625 0.8515625
vt 0.4609375 0.75
vt 0.4609375 0.7421875
vt 0.5859375 0.75
vt 0.4609375 0.7421875
vt 0.5859375 0.7421875
vt 0.5859375 0.75
vt 0.4609375 0.7421875
vt 0.4609375 0.734375
vt 0.5859375 0.7421875
vt 0.4609375 0.734375
vt 0.5859375 0.734375
vt 0.5859375 0.7421875
vt 0.23046875 0.4765625
vt 0.23046875 0.6015625
vt 0 0.4765625
vt 0.23046875 0.6015625
vt 0 0.6015625
vt 0 0.4765625
vt 0.69140625 1
vt 0.69140625 0.875
vt 0.4609375 1
vt 0.69140625 0.875
vt 0.4609375 0.875
vt 0.4609375 1
vt 0.4609375 0.8359375
vt 0.4609375 0.828125
vt 0.69140625 0.8359375
vt 0.4609375 0.828125
vt 0.69140625 0.828125
vt 0.69140625 0.8359375
vt 0.4609375 0.75
vt 0.4609375 0.7421875
vt 0.5859375 0.75
vt 0.4609375 0.7421875
vt 0.5859375 0.7421875
vt 0.5859375 0.75
vt 0.4609375 0.7421875
vt 0.4609375 0.734375
vt 0.5859375 0.7421875
vt 0.4609375 0.734375
vt 0.5859375 0.734375
vt 0.5859375 0.7421875
vt 0.23046875 0.4765625
vt 0.23046875 0.6015625
vt 0 0.4765625
vt 0.23046875 0.6015625
vt 0 0.6015625
vt 0 0.4765625
vt 0.69140625 1
vt 0.69140625 0.875
vt 0.4609375 1
vt 0.69140625 0.875
vt 0.4609375 0.875
vt 0.4609375 1
vt 0.4609375 0.8359375
vt 0.4609375 0.828125
vt 0.69140625 0.8359375
vt 0.4609375 0.828125
vt 0.69140625 0.828125
vt 0.69140625 0.8359375
vn 1 0 0
vn 1 0 0
vn -1 0 0
vn -1 0 0
vn 0 1 0
vn 0 1 0
vn 0 -1 0
vn 0 -1 0
vn 0 0 -1
vn 0 0 -1
vn 1 0 0
vn 1 0 0
vn -1 0 0
vn -1 0 0
vn 0 2.681293342490944e-16 1
vn 0 2.681293342490944e-16 1
vn 0 -2.681293342490944e-16 -1
vn 0 -2.681293342490944e-16 -1
vn 0 -1 0
vn 0 -1 0
vn 0 1 0
vn 0 1 0
vn 1 0 0
vn 1 0 0
vn -1 0 0
vn -1 0 0
vn 0 1 0
vn 0 1 0
vn 0 -1 0
vn 0 -1 0
vn 0 0 -1
vn 0 0 -1
vn 1 0 0
vn 1 0 0
vn -1 0 0
vn -1 0 0
vn 0 1 0
vn 0 1 0
vn 0 -1 0
vn 0 -1 0
vn 0 0 -1
vn 0 0 -1
usemtl m_a6f00b5f-3bf8-9a9a-62fc-9d5448330ffd
f 1/1/1 3/2/1 2/3/1
f 3/4/2 4/5/2 2/6/2
f 5/7/3 7/8/3 6/9/3
f 7/10/4 8/11/4 6/12/4
f 5/13/5 6/14/5 2/15/5
f 6/16/6 1/17/6 2/18/6
f 8/19/7 7/20/7 3/21/7
f 7/22/8 4/23/8 3/24/8
f 2/25/9 4/26/9 5/27/9
f 4/28/10 7/29/10 5/30/10
f 9/31/11 11/32/11 10/33/11
f 11/34/12 12/35/12 10/36/12
f 13/37/13 15/38/13 14/39/13
f 15/40/14 16/41/14 14/42/14
f 13/43/15 14/44/15 10/45/15
f 14/46/16 9/47/16 10/48/16
f 16/49/17 15/50/17 11/51/17
f 15/52/18 12/53/18 11/54/18
f 14/55/19 16/56/19 9/57/19
f 16/58/20 11/59/20 9/60/20
f 10/61/21 12/62/21 13/63/21
f 12/64/22 15/65/22 13/66/22
f 17/67/23 19/68/23 18/69/23
f 19/70/24 20/71/24 18/72/24
f 21/73/25 23/74/25 22/75/25
f 23/76/26 24/77/26 22/78/26
f 21/79/27 22/80/27 18/81/27
f 22/82/28 17/83/28 18/84/28
f 24/85/29 23/86/29 19/87/29
f 23/88/30 20/89/30 19/90/30
f 18/91/31 20/92/31 21/93/31
f 20/94/32 23/95/32 21/96/32
f 25/97/33 27/98/33 26/99/33
f 27/100/34 28/101/34 26/102/34
f 29/103/35 31/104/35 30/105/35
f 31/106/36 32/107/36 30/108/36
f 29/109/37 30/110/37 26/111/37
f 30/112/38 25/113/38 26/114/38
f 32/115/39 31/116/39 27/117/39
f 31/118/40 28/119/40 27/120/40
f 26/121/41 28/122/41 29/123/41
f 28/124/42 31/125/42 29/126/42