# Made in Blockbench 5.0.7
mtllib SeaShell.mtl

o Meshpart1
v 1.2978999999999985 -0.0000190735 -3.1458199999999996
v 3.0429999999999993 -0.0000190735 -0.6534899999999997
v 1.7571999999999974 -0.0000190735 2.103999999999999
v -3.018900000000002 -0.0000190735 -0.12310000000000088
v -1.7331000000000003 -0.0000190735 -2.8806399999999996
v -1.2738000000000014 -0.0000190735 2.3691999999999993
v -23.930999999999997 98.2804 0.7894000000000005
v -22.619299999999996 97.1945 4.2577
v -21.151899999999998 99.8561 4.2559000000000005
v -16.922199999999997 82.2818 0.11769999999999925
v -22.129199999999997 100.938 0.6318000000000001
v -18.3236 66.1228 -20.3019
v -19.2656 66.2198 -18.16412
v -20.1081 68.9657 -18.92899
v -13.639899999999997 69.0105 -7.14053
v -18.900199999999998 68.9657 -21.0872
v 16.3278 82.8998 0.16929999999999978
v 3.1464 70.984 1.6456999999999997
v 4.206000000000003 71.379 -0.9708400000000008
v 8.4546 81.8409 5.537100000000001
v 23.1064 97.1945 0.2571999999999992
v 16.7769 82.2818 -2.8305499999999997
v 21.5042 97.5744 2.6843000000000004
v 14.2788 96.1911 6.263200000000001
v 0.8233000000000033 96.2007 8.885000000000002
v 8.647399999999998 101.913 5.3286999999999995
v 15.4514 98.5608 4.7333
v 18.6769 97.8683 3.7529000000000003
v 21.6609 99.8561 0.5101999999999993
v 23.7959 98.2804 -3.3861499999999998
v 16.7769 82.2818 -2.8305499999999997
v 21.994 100.938 -3.2285199999999996
v 21.994 100.938 -3.2285199999999996
v 18.3458 97.8683 -1.8929500000000008
v 21.994 100.938 -3.2285199999999996
v 18.3458 97.8683 -1.8929500000000008
v 14.415299999999998 102.497 1.2199000000000009
v 14.8981 98.5608 -1.59131
v 18.3458 97.8683 -1.8929500000000008
v 14.8981 98.5608 -1.59131
v 11.5394 104.303 1.4715000000000007
v 14.0567 104.343 -2.53409
v 11.979800000000001 105.512 -2.35238
v 8.094099999999997 101.913 -0.9960400000000007
v 8.647399999999998 101.913 5.3286999999999995
v 2.6081999999999965 109.27 -1.5324799999999996
v -0.06759999999999877 110.245 -1.2983700000000002
v 0.34479999999999933 108.479 3.4155999999999995
v 3.020699999999998 107.504 3.1814999999999998
v 3.796599999999998 104.263 -0.6200600000000005
v -2.743400000000001 109.27 -1.0642700000000005
v 4.242100000000001 104.263 4.4719999999999995
v 0.7013999999999996 103.236 7.491
v -2.331000000000003 107.504 3.6496999999999993
v -3.3098000000000027 104.263 5.1327
v 8.647399999999998 101.913 5.3286999999999995
v -7.499400000000001 101.913 6.741299999999999
v -7.499400000000001 101.913 6.741299999999999
v -3.7552999999999983 104.263 0.040599999999999525
v -8.052700000000002 101.913 0.41660000000000075
v -7.499400000000001 101.913 6.741299999999999
v -12.114899999999999 105.512 -0.24440000000000062
v -11.017200000000003 104.303 3.4449000000000005
v -14.1918 104.343 -0.06269999999999953
v -14.303400000000003 98.5608 7.336500000000001
v -12.8829 96.1911 8.639500000000002
v -13.893099999999997 102.497 3.6965000000000003
v -14.856699999999996 98.5608 1.0119000000000007
v -18.304499999999997 97.8683 1.3134999999999994
v -17.650100000000002 97.8683 6.931100000000001
v -14.856699999999996 98.5608 1.0119000000000007
v -18.304499999999997 97.8683 1.3134999999999994
v -7.273400000000002 81.8409 6.9131
v -20.619999999999997 97.5744 6.369700000000002
v -15.959000000000003 82.8998 2.9939999999999998
v -22.129199999999997 100.938 0.6318000000000001
v -18.304499999999997 97.8683 1.3134999999999994
v -22.129199999999997 100.938 0.6318000000000001
v -16.922199999999997 82.2818 0.11769999999999925
v -4.2194 71.379 -0.23370000000000068
v -2.721499999999999 70.984 2.1591000000000005
v 0.6749999999999972 81.4423 7.1889
v 0.21249999999999858 69.155 1.9024
v 9.737099999999998 69.2745 0.43790000000000084
v -0.006700000000002149 68.3689 -0.6022800000000004
v 9.967199999999998 70.1552 0.4177999999999997
v 3.1464 70.984 1.6456999999999997
v -9.421799999999998 69.2745 2.1141000000000005
v -2.721499999999999 70.984 2.1591000000000005
v -9.651899999999998 70.1552 2.1342
v 10.5972 68.8946 -0.8988300000000002
v -10.500999999999998 68.8946 0.9469999999999992
v -10.500999999999998 70.2767 0.9469999999999992
v -2.721499999999999 70.984 2.1591000000000005
v -4.2194 71.379 -0.23370000000000068
v 10.5972 70.2767 -0.8988300000000002
v 3.1464 70.984 1.6456999999999997
v 4.206000000000003 71.379 -0.9708400000000008
v 3.2937999999999974 68.4282 -0.2027000000000001
v 2.336599999999997 66.494 0.18599999999999994
v 11.6994 66.7417 -9.834691
v 5.401200000000003 63.1559 -8.46593
v 12.283999999999999 69.0105 -9.40858
v 15.9101 66.2198 -21.2416
v 14.499300000000002 64.4672 -21.4115
v 8.8369 62.209 -19.84795
v -1.6111000000000004 61.102 -18.9413
v 4.2165000000000035 63.3027 -23.8624
v 9.6755 63.3028 -21.7513
v 12.2498 63.8379 -21.4417
v 14.6112 66.1228 -23.1833
v 16.607 68.9657 -22.1411
v 12.283999999999999 69.0105 -9.40858
v 15.0427 68.9657 -24.056800000000003
v 15.0427 68.9657 -24.056800000000003
v 12.374099999999999 68.1868 -21.4525
v 12.374099999999999 68.1868 -21.4525
v 15.0427 68.9657 -24.056800000000003
v 9.6755 68.1868 -21.7513
v 8.855200000000004 66.0648 -24.7188
v 9.6755 68.1868 -21.7513
v 12.374099999999999 68.1868 -21.4525
v 6.521700000000003 66.0648 -25.9099
v 8.708399999999997 68.9657 -26.131999999999998
v 7.032299999999999 68.9657 -26.8878
v 4.2165000000000035 63.3027 -23.8624
v 4.2165000000000035 68.1868 -23.8624
v -0.42900000000000205 68.9657 -29.1373
v -0.31049999999999756 65.3255 -27.7836
v -2.4343000000000004 65.3255 -28.3506
v -2.5527999999999977 68.9657 -29.7043
v 0.7531000000000034 68.1868 -25.3741
v 0.7531000000000034 64.2546 -25.3741
v -2.082799999999999 62.1784 -24.3325
v -4.5458 68.9657 -28.7771
v -4.427399999999999 65.3255 -27.4234
v -5.0563999999999965 64.2546 -24.8658
v 4.2165000000000035 63.3027 -23.8624
v -8.204799999999999 63.3027 -22.7757
v -8.204799999999999 63.3027 -22.7757
v -5.0563999999999965 68.1868 -24.8658
v -8.204799999999999 68.1868 -22.7757
v -11.5032 68.9657 -25.266199999999998
v -8.204799999999999 63.3027 -22.7757
v -10.8305 66.0648 -24.3917
v -13.0225 68.9657 -24.230800000000002
v -13.214199999999998 63.3028 -19.74867
v -12.057899999999997 62.209 -18.01989
v -12.921700000000001 66.0648 -22.813499999999998
v -13.214199999999998 68.1868 -19.74867
v -15.82 68.1868 -18.98588
v -13.214199999999998 68.1868 -19.74867
v -15.695700000000002 63.8379 -18.99675
v -15.82 68.1868 -18.98588
v -6.697899999999997 63.1559 -7.4073899999999995
v -17.9058 64.4672 -18.57647
v -13.138100000000001 66.7417 -7.66169
v -18.900199999999998 68.9657 -21.0872
v -15.82 68.1868 -18.98588
v -18.900199999999998 68.9657 -21.0872
v -13.639899999999997 69.0105 -7.14053
v -3.1876999999999995 68.4282 0.36430000000000007
v -2.1773999999999987 66.494 0.5808999999999997
v -0.6216000000000008 62.4117 -7.63123
v 0.20219999999999771 66.494 1.7851
v 0.25489999999999924 68.4282 2.387600000000001
v 7.5634000000000015 66.9777 1.0488
v 2.336599999999997 66.494 0.18599999999999994
v 7.6813999999999965 66.9777 0.3583999999999996
v -7.1751000000000005 66.9777 2.3382000000000005
v -7.411099999999998 66.9777 1.6788000000000007
v -2.1773999999999987 66.494 0.5808999999999997
v 8.334800000000001 67.9445 1.2746999999999993
v -7.895499999999998 67.9445 2.694699999999999
v 8.242199999999997 67.9445 0.21550000000000047
v 2.336599999999997 66.494 0.18599999999999994
v 3.2937999999999974 68.4282 -0.2027000000000001
v -2.1773999999999987 66.494 0.5808999999999997
v -7.988199999999999 67.9445 1.6355000000000004
v -3.1876999999999995 68.4282 0.36430000000000007
v 7.032299999999999 68.9657 -26.8878
v 4.2165000000000035 68.1868 -23.8624
v 9.6755 68.1868 -21.7513
v -1.0185999999999993 66.6798 -12.16913
v 8.708399999999997 68.9657 -26.131999999999998
v -0.39059999999999917 68.2688 -4.99074
v 3.049999999999997 68.2688 -6.00572
v 7.766599999999997 68.4334 -9.03871
v 9.6755 68.1868 -21.7513
v -8.204799999999999 68.1868 -22.7757
v -13.214199999999998 68.1868 -19.74867
v -3.955199999999998 68.2688 -5.39284
v -9.126800000000003 68.4334 -7.5607299999999995
v -13.214199999999998 68.1868 -19.74867
v -11.5032 68.9657 -25.266199999999998
v -13.0225 68.9657 -24.230800000000002
v -15.82 68.1868 -18.98588
v -15.82 68.1868 -18.98588
v -9.7316 69.3542 -7.49787
v -4.335500000000003 69.0202 -4.71787
v -0.32970000000000255 69.0202 -4.29397
v -13.639899999999997 69.0105 -7.14053
v -13.639899999999997 69.0105 -7.14053
v -3.1876999999999995 68.4282 0.36430000000000007
v -15.82 68.1868 -18.98588
v -20.1081 68.9657 -18.92899
v -15.82 68.1868 -18.98588
v -18.900199999999998 68.9657 -21.0872
v -7.988199999999999 67.9445 1.6355000000000004
v -7.895499999999998 67.9445 2.694699999999999
v 0.25489999999999924 68.4282 2.387600000000001
v 3.2937999999999974 68.4282 -0.2027000000000001
v 8.334800000000001 67.9445 1.2746999999999993
v 8.242199999999997 67.9445 0.21550000000000047
v 3.5416999999999987 69.0202 -5.40703
v 12.283999999999999 69.0105 -9.40858
v 12.283999999999999 69.0105 -9.40858
v 8.3731 69.3542 -9.08183
v 12.374099999999999 68.1868 -21.4525
v 12.374099999999999 68.1868 -21.4525
v 16.607 68.9657 -22.1411
v 15.0427 68.9657 -24.056800000000003
v 12.374099999999999 68.1868 -21.4525
v 12.374099999999999 68.1868 -21.4525
v 14.8981 98.5608 -1.59131
v 8.094099999999997 101.913 -0.9960400000000007
v 11.979800000000001 105.512 -2.35238
v 0.19140000000000157 87.3638 1.6617999999999995
v 14.0567 104.343 -2.53409
v 0.011400000000001853 77.9968 -0.39597000000000016
v 4.564599999999999 78.9213 -0.7943200000000008
v 10.9728 82.3146 -1.56968
v 14.8981 98.5608 -1.59131
v -8.052700000000002 101.913 0.41660000000000075
v -14.856699999999996 98.5608 1.0119000000000007
v -4.541800000000002 78.9213 0.0023999999999997357
v -10.987299999999998 82.3146 0.35159999999999947
v -14.856699999999996 98.5608 1.0119000000000007
v -12.114899999999999 105.512 -0.24440000000000062
v -14.1918 104.343 -0.06269999999999953
v -18.304499999999997 97.8683 1.3134999999999994
v -18.304499999999997 97.8683 1.3134999999999994
v -11.878999999999998 82.3017 -0.7720300000000009
v -5.1936000000000035 78.0903 -0.9210200000000004
v -0.07370000000000232 77.0876 -1.36895
v -4.2194 71.379 -0.23370000000000068
v -16.922199999999997 82.2818 0.11769999999999925
v -16.922199999999997 82.2818 0.11769999999999925
v -18.304499999999997 97.8683 1.3134999999999994
v -23.930999999999997 98.2804 0.7894000000000005
v -22.129199999999997 100.938 0.6318000000000001
v -18.304499999999997 97.8683 1.3134999999999994
v 4.206000000000003 71.379 -0.9708400000000008
v -0.006700000000002149 68.3689 -0.6022800000000004
v 5.046100000000003 78.0903 -1.8168799999999994
v -10.500999999999998 68.8946 0.9469999999999992
v -10.500999999999998 70.2767 0.9469999999999992
v 10.5972 68.8946 -0.8988300000000002
v 10.5972 70.2767 -0.8988300000000002
v 16.7769 82.2818 -2.8305499999999997
v 11.6558 82.3017 -2.83106
v 16.7769 82.2818 -2.8305499999999997
v 18.3458 97.8683 -1.8929500000000008
v 18.3458 97.8683 -1.8929500000000008
v 23.7959 98.2804 -3.3861499999999998
v 18.3458 97.8683 -1.8929500000000008
v 21.994 100.938 -3.2285199999999996
v 18.3458 97.8683 -1.8929500000000008
v -0.42900000000000205 68.9657 -29.1373
v -2.5527999999999977 68.9657 -29.7043
v -2.1539 68.1868 -25.1453
v 0.7531000000000034 68.1868 -25.3741
v -4.5458 68.9657 -28.7771
v -5.0563999999999965 68.1868 -24.8658
v 2.6081999999999965 109.27 -1.5324799999999996
v 3.796599999999998 104.263 -0.6200600000000005
v 0.020699999999997942 104.296 -0.28970999999999947
v -0.06759999999999877 110.245 -1.2983700000000002
v -2.743400000000001 109.27 -1.0642700000000005
v -3.7552999999999983 104.263 0.040599999999999525
v -1.1182000000000016 1.2326 -0.2894299999999994
v -0.46750000000000114 1.2326 0.6400000000000006
v -0.46750000000000114 66.5286 0.6400000000000006
v -1.1182000000000016 66.5286 -0.2894299999999994
v -0.6387 1.2326 -1.3177299999999992
v 0.6627999999999972 1.2326 0.5411000000000001
v 0.6627999999999972 66.5286 0.5411000000000001
v 1.1422999999999988 1.2326 -0.48719999999999963
v 1.1422999999999988 66.5286 -0.48720999999999925
v 0.49150000000000205 1.2326 -1.41662
v 0.49150000000000205 66.5286 -1.41662
v -0.6387 66.5286 -1.3177299999999992
v -1.2738000000000014 1.82463 2.3691999999999993
v 1.7571999999999974 1.82463 2.103999999999999
v 3.0429999999999993 1.82463 -0.6534899999999997
v -1.7331000000000003 1.82463 -2.8806399999999996
v -3.018900000000002 1.82463 -0.12310000000000088
v 1.2978999999999985 1.82463 -3.1458199999999996
v -3.018900000000002 -0.0000190735 -0.12310000000000088
v -1.2738000000000014 -0.0000190735 2.3691999999999993
v -1.2738000000000014 1.82463 2.3691999999999993
v -3.018900000000002 1.82463 -0.12310000000000088
v -1.7331000000000003 -0.0000190735 -2.8806399999999996
v 1.7571999999999974 -0.0000190735 2.103999999999999
v 1.7571999999999974 1.82463 2.103999999999999
v 3.0429999999999993 -0.0000190735 -0.6534899999999997
v 3.0429999999999993 1.82463 -0.6534899999999997
v 1.2978999999999985 -0.0000190735 -3.1458199999999996
v 1.2978999999999985 1.82463 -3.1458199999999996
v -1.7331000000000003 1.82463 -2.8806399999999996
vt 0.897976 0.80405
vt 0.93529 0.739421
vt 0.897976 0.674792
vt 0.897976 0.80405
vt 0.897976 0.674792
vt 0.786036 0.739421
vt 0.823349 0.80405
vt 0.897976 0.80405
vt 0.786036 0.739421
vt 0.897976 0.674792
vt 0.823349 0.674792
vt 0.786036 0.739421
vt 0.433693 0.26917100000000005
vt 0.409962 0.2601800000000001
vt 0.398161 0.281663
vt 0.409962 0.2601800000000001
vt 0.433693 0.26917100000000005
vt 0.371006 0.132301
vt 0.398161 0.281663
vt 0.4064 0.30324400000000007
vt 0.433693 0.26917100000000005
vt 0.398161 0.281663
vt 0.409962 0.2601800000000001
vt 0.433693 0.26917100000000005
vt 0.371006 0.132301
vt 0.433693 0.26917100000000005
vt 0.409962 0.2601800000000001
vt 0.433693 0.26917100000000005
vt 0.4064 0.30324400000000007
vt 0.398161 0.281663
vt 0.093921 0.14480099999999996
vt 0.200949 0.04862299999999997
vt 0.169104 0.05669400000000002
vt 0.200949 0.04862299999999997
vt 0.093921 0.14480099999999996
vt 0.161004 0.136254
vt 0.039478 0.2601800000000001
vt 0.093921 0.14480099999999996
vt 0.076482 0.13004799999999994
vt 0.169104 0.05669400000000002
vt 0.076482 0.13004799999999994
vt 0.093921 0.14480099999999996
vt 0.093921 0.14480099999999996
vt 0.039478 0.2601800000000001
vt 0.054069 0.263247
vt 0.093921 0.14480099999999996
vt 0.054069 0.263247
vt 0.114684 0.252081
vt 0.114684 0.252081
vt 0.161004 0.136254
vt 0.093921 0.14480099999999996
vt 0.161004 0.136254
vt 0.114684 0.252081
vt 0.22472 0.252159
vt 0.159307 0.294362
vt 0.22472 0.252159
vt 0.114684 0.252081
vt 0.114684 0.252081
vt 0.105156 0.26925599999999994
vt 0.159307 0.294362
vt 0.077554 0.266595
vt 0.105156 0.26925599999999994
vt 0.114684 0.252081
vt 0.114684 0.252081
vt 0.054069 0.263247
vt 0.077554 0.266595
vt 0.039478 0.2601800000000001
vt 0.051279 0.281663
vt 0.054069 0.263247
vt 0.051279 0.281663
vt 0.077554 0.266595
vt 0.054069 0.263247
vt 0.051279 0.281663
vt 0.039478 0.2601800000000001
vt 0.007935 0.2708980000000001
vt 0.076482 0.13004799999999994
vt 0.007935 0.2708980000000001
vt 0.039478 0.2601800000000001
vt 0.077554 0.266595
vt 0.051279 0.281663
vt 0.046947 0.299188
vt 0.007935 0.2708980000000001
vt 0.046947 0.299188
vt 0.051279 0.281663
vt 0.105156 0.26925599999999994
vt 0.077554 0.266595
vt 0.074292 0.281243
vt 0.046947 0.299188
vt 0.074292 0.281243
vt 0.077554 0.266595
vt 0.110039 0.302976
vt 0.105156 0.26925599999999994
vt 0.086602 0.2907390000000001
vt 0.074292 0.281243
vt 0.086602 0.2907390000000001
vt 0.105156 0.26925599999999994
vt 0.105156 0.26925599999999994
vt 0.110039 0.302976
vt 0.13334 0.31756000000000006
vt 0.13334 0.31756000000000006
vt 0.159307 0.294362
vt 0.105156 0.26925599999999994
vt 0.13334 0.31756000000000006
vt 0.110039 0.302976
vt 0.094657 0.319836
vt 0.086602 0.2907390000000001
vt 0.094657 0.319836
vt 0.110039 0.302976
vt 0.159307 0.294362
vt 0.13334 0.31756000000000006
vt 0.127109 0.340986
vt 0.094657 0.319836
vt 0.127109 0.340986
vt 0.13334 0.31756000000000006
vt 0.127109 0.340986
vt 0.157354 0.3148679999999999
vt 0.159307 0.294362
vt 0.196205 0.36704000000000003
vt 0.225697 0.37490899999999994
vt 0.22472 0.355768
vt 0.22472 0.355768
vt 0.20304 0.34339300000000006
vt 0.196205 0.36704000000000003
vt 0.177526 0.33090700000000006
vt 0.196205 0.36704000000000003
vt 0.20304 0.34339300000000006
vt 0.22472 0.355768
vt 0.225697 0.37490899999999994
vt 0.253236 0.36704000000000003
vt 0.195103 0.3172360000000001
vt 0.20304 0.34339300000000006
vt 0.22472 0.355768
vt 0.22472 0.355768
vt 0.22472 0.30894200000000005
vt 0.195103 0.3172360000000001
vt 0.253236 0.36704000000000003
vt 0.246401 0.34339300000000006
vt 0.22472 0.355768
vt 0.250056 0.31573300000000004
vt 0.22472 0.30894200000000005
vt 0.22472 0.355768
vt 0.22472 0.355768
vt 0.246401 0.34339300000000006
vt 0.250056 0.31573300000000004
vt 0.20304 0.34339300000000006
vt 0.195103 0.3172360000000001
vt 0.177526 0.33090700000000006
vt 0.157354 0.3148679999999999
vt 0.177526 0.33090700000000006
vt 0.195103 0.3172360000000001
vt 0.195103 0.3172360000000001
vt 0.159307 0.294362
vt 0.157354 0.3148679999999999
vt 0.159307 0.294362
vt 0.195103 0.3172360000000001
vt 0.22472 0.30894200000000005
vt 0.22472 0.30894200000000005
vt 0.22472 0.252159
vt 0.159307 0.294362
vt 0.288631 0.29526300000000005
vt 0.22472 0.252159
vt 0.22472 0.30894200000000005
vt 0.22472 0.30894200000000005
vt 0.250056 0.31573300000000004
vt 0.288631 0.29526300000000005
vt 0.260572 0.328353
vt 0.250056 0.31573300000000004
vt 0.246401 0.34339300000000006
vt 0.293063 0.320126
vt 0.288631 0.29526300000000005
vt 0.250056 0.31573300000000004
vt 0.250056 0.31573300000000004
vt 0.260572 0.328353
vt 0.293063 0.320126
vt 0.246401 0.34339300000000006
vt 0.253236 0.36704000000000003
vt 0.260572 0.328353
vt 0.288631 0.29526300000000005
vt 0.293063 0.320126
vt 0.325261 0.34121200000000007
vt 0.325261 0.34121200000000007
vt 0.3161 0.31756000000000006
vt 0.288631 0.29526300000000005
vt 0.3161 0.31756000000000006
vt 0.325261 0.34121200000000007
vt 0.352681 0.324643
vt 0.339252 0.27196
vt 0.288631 0.29526300000000005
vt 0.3161 0.31756000000000006
vt 0.288631 0.29526300000000005
vt 0.339252 0.27196
vt 0.334757 0.252081
vt 0.334757 0.252081
vt 0.22472 0.252159
vt 0.288631 0.29526300000000005
vt 0.352681 0.324643
vt 0.339402 0.302976
vt 0.3161 0.31756000000000006
vt 0.3161 0.31756000000000006
vt 0.339402 0.302976
vt 0.339252 0.27196
vt 0.339402 0.302976
vt 0.352681 0.324643
vt 0.359534 0.291265
vt 0.359534 0.291265
vt 0.339252 0.27196
vt 0.339402 0.302976
vt 0.378605 0.29085800000000006
vt 0.370384 0.270126
vt 0.339252 0.27196
vt 0.339252 0.27196
vt 0.359534 0.291265
vt 0.378605 0.29085800000000006
vt 0.334757 0.252081
vt 0.339252 0.27196
vt 0.370384 0.270126
vt 0.22472 0.252159
vt 0.334757 0.252081
vt 0.288437 0.136254
vt 0.370384 0.270126
vt 0.395372 0.263247
vt 0.334757 0.252081
vt 0.355519 0.14480099999999996
vt 0.288437 0.136254
vt 0.334757 0.252081
vt 0.334757 0.252081
vt 0.395372 0.263247
vt 0.355519 0.14480099999999996
vt 0.4064 0.30324400000000007
vt 0.398161 0.281663
vt 0.370384 0.270126
vt 0.370384 0.270126
vt 0.378605 0.29085800000000006
vt 0.4064 0.30324400000000007
vt 0.398161 0.281663
vt 0.395372 0.263247
vt 0.370384 0.270126
vt 0.355519 0.14480099999999996
vt 0.395372 0.263247
vt 0.409962 0.2601800000000001
vt 0.409962 0.2601800000000001
vt 0.395372 0.263247
vt 0.398161 0.281663
vt 0.371006 0.132301
vt 0.355519 0.14480099999999996
vt 0.409962 0.2601800000000001
vt 0.277632 0.054815999999999976
vt 0.248492 0.04862299999999997
vt 0.355519 0.14480099999999996
vt 0.355519 0.14480099999999996
vt 0.371006 0.132301
vt 0.277632 0.054815999999999976
vt 0.248492 0.04862299999999997
vt 0.288437 0.136254
vt 0.355519 0.14480099999999996
vt 0.288437 0.136254
vt 0.22472 0.13303699999999996
vt 0.22472 0.252159
vt 0.22472 0.13303699999999996
vt 0.288437 0.136254
vt 0.248492 0.04862299999999997
vt 0.248492 0.04862299999999997
vt 0.22472 0.03154900000000005
vt 0.22472 0.13303699999999996
vt 0.22472 0.252159
vt 0.22472 0.13303699999999996
vt 0.161004 0.136254
vt 0.200949 0.04862299999999997
vt 0.161004 0.136254
vt 0.22472 0.13303699999999996
vt 0.22472 0.13303699999999996
vt 0.22472 0.03154900000000005
vt 0.200949 0.04862299999999997
vt 0.147105 0.034824999999999995
vt 0.22472 0.03154900000000005
vt 0.22472 0.01850099999999999
vt 0.22472 0.03154900000000005
vt 0.147105 0.034824999999999995
vt 0.14524 0.04193400000000003
vt 0.14524 0.04193400000000003
vt 0.200949 0.04862299999999997
vt 0.22472 0.03154900000000005
vt 0.22472 0.01850099999999999
vt 0.22472 0.03154900000000005
vt 0.302336 0.034824999999999995
vt 0.22472 0.03154900000000005
vt 0.248492 0.04862299999999997
vt 0.304201 0.04193400000000003
vt 0.304201 0.04193400000000003
vt 0.302336 0.034824999999999995
vt 0.22472 0.03154900000000005
vt 0.14524 0.04193400000000003
vt 0.147105 0.034824999999999995
vt 0.12753 0.02687600000000001
vt 0.22472 0.01850099999999999
vt 0.12753 0.02687600000000001
vt 0.147105 0.034824999999999995
vt 0.302336 0.034824999999999995
vt 0.318455 0.029505000000000003
vt 0.22472 0.01850099999999999
vt 0.318455 0.029505000000000003
vt 0.302336 0.034824999999999995
vt 0.304201 0.04193400000000003
vt 0.320709 0.05042599999999997
vt 0.304201 0.04193400000000003
vt 0.248492 0.04862299999999997
vt 0.304201 0.04193400000000003
vt 0.320709 0.05042599999999997
vt 0.318455 0.029505000000000003
vt 0.248492 0.04862299999999997
vt 0.277632 0.054815999999999976
vt 0.320709 0.05042599999999997
vt 0.12753 0.02687600000000001
vt 0.129483 0.048772999999999955
vt 0.14524 0.04193400000000003
vt 0.200949 0.04862299999999997
vt 0.14524 0.04193400000000003
vt 0.129483 0.048772999999999955
vt 0.129483 0.048772999999999955
vt 0.169104 0.05669400000000002
vt 0.200949 0.04862299999999997
vt 0.169104 0.05669400000000002
vt 0.200949 0.04862299999999997
vt 0.093921 0.14480099999999996
vt 0.200949 0.04862299999999997
vt 0.161004 0.136254
vt 0.093921 0.14480099999999996
vt 0.093921 0.14480099999999996
vt 0.076482 0.13004799999999994
vt 0.169104 0.05669400000000002
vt 0.076482 0.13004799999999994
vt 0.093921 0.14480099999999996
vt 0.039478 0.2601800000000001
vt 0.093921 0.14480099999999996
vt 0.054069 0.263247
vt 0.039478 0.2601800000000001
vt 0.093921 0.14480099999999996
vt 0.161004 0.136254
vt 0.114684 0.252081
vt 0.114684 0.252081
vt 0.054069 0.263247
vt 0.093921 0.14480099999999996
vt 0.22472 0.252159
vt 0.114684 0.252081
vt 0.161004 0.136254
vt 0.159307 0.294362
vt 0.105156 0.26925599999999994
vt 0.114684 0.252081
vt 0.114684 0.252081
vt 0.22472 0.252159
vt 0.159307 0.294362
vt 0.077554 0.266595
vt 0.054069 0.263247
vt 0.114684 0.252081
vt 0.114684 0.252081
vt 0.105156 0.26925599999999994
vt 0.077554 0.266595
vt 0.039478 0.2601800000000001
vt 0.054069 0.263247
vt 0.051279 0.281663
vt 0.051279 0.281663
vt 0.054069 0.263247
vt 0.077554 0.266595
vt 0.007935 0.2708980000000001
vt 0.039478 0.2601800000000001
vt 0.051279 0.281663
vt 0.039478 0.2601800000000001
vt 0.007935 0.2708980000000001
vt 0.076482 0.13004799999999994
vt 0.046947 0.299188
vt 0.051279 0.281663
vt 0.077554 0.266595
vt 0.051279 0.281663
vt 0.046947 0.299188
vt 0.007935 0.2708980000000001
vt 0.074292 0.281243
vt 0.077554 0.266595
vt 0.105156 0.26925599999999994
vt 0.077554 0.266595
vt 0.074292 0.281243
vt 0.046947 0.299188
vt 0.086602 0.2907390000000001
vt 0.105156 0.26925599999999994
vt 0.110039 0.302976
vt 0.105156 0.26925599999999994
vt 0.086602 0.2907390000000001
vt 0.074292 0.281243
vt 0.105156 0.26925599999999994
vt 0.159307 0.294362
vt 0.13334 0.31756000000000006
vt 0.13334 0.31756000000000006
vt 0.110039 0.302976
vt 0.105156 0.26925599999999994
vt 0.110039 0.302976
vt 0.094657 0.319836
vt 0.086602 0.2907390000000001
vt 0.094657 0.319836
vt 0.110039 0.302976
vt 0.13334 0.31756000000000006
vt 0.127109 0.340986
vt 0.13334 0.31756000000000006
vt 0.159307 0.294362
vt 0.13334 0.31756000000000006
vt 0.127109 0.340986
vt 0.094657 0.319836
vt 0.159307 0.294362
vt 0.157354 0.3148679999999999
vt 0.127109 0.340986
vt 0.196205 0.36704000000000003
vt 0.20304 0.34339300000000006
vt 0.22472 0.355768
vt 0.22472 0.355768
vt 0.225697 0.37490899999999994
vt 0.196205 0.36704000000000003
vt 0.20304 0.34339300000000006
vt 0.196205 0.36704000000000003
vt 0.177526 0.33090700000000006
vt 0.177526 0.33090700000000006
vt 0.195103 0.3172360000000001
vt 0.20304 0.34339300000000006
vt 0.22472 0.355768
vt 0.20304 0.34339300000000006
vt 0.195103 0.3172360000000001
vt 0.195103 0.3172360000000001
vt 0.22472 0.30894200000000005
vt 0.22472 0.355768
vt 0.253236 0.36704000000000003
vt 0.225697 0.37490899999999994
vt 0.22472 0.355768
vt 0.22472 0.355768
vt 0.246401 0.34339300000000006
vt 0.253236 0.36704000000000003
vt 0.250056 0.31573300000000004
vt 0.246401 0.34339300000000006
vt 0.22472 0.355768
vt 0.22472 0.355768
vt 0.22472 0.30894200000000005
vt 0.250056 0.31573300000000004
vt 0.157354 0.3148679999999999
vt 0.159307 0.294362
vt 0.195103 0.3172360000000001
vt 0.195103 0.3172360000000001
vt 0.177526 0.33090700000000006
vt 0.157354 0.3148679999999999
vt 0.22472 0.30894200000000005
vt 0.195103 0.3172360000000001
vt 0.159307 0.294362
vt 0.159307 0.294362
vt 0.22472 0.252159
vt 0.22472 0.30894200000000005
vt 0.288631 0.29526300000000005
vt 0.250056 0.31573300000000004
vt 0.22472 0.30894200000000005
vt 0.22472 0.30894200000000005
vt 0.22472 0.252159
vt 0.288631 0.29526300000000005
vt 0.246401 0.34339300000000006
vt 0.250056 0.31573300000000004
vt 0.260572 0.328353
vt 0.293063 0.320126
vt 0.260572 0.328353
vt 0.250056 0.31573300000000004
vt 0.250056 0.31573300000000004
vt 0.288631 0.29526300000000005
vt 0.293063 0.320126
vt 0.260572 0.328353
vt 0.253236 0.36704000000000003
vt 0.246401 0.34339300000000006
vt 0.325261 0.34121200000000007
vt 0.293063 0.320126
vt 0.288631 0.29526300000000005
vt 0.288631 0.29526300000000005
vt 0.3161 0.31756000000000006
vt 0.325261 0.34121200000000007
vt 0.352681 0.324643
vt 0.325261 0.34121200000000007
vt 0.3161 0.31756000000000006
vt 0.3161 0.31756000000000006
vt 0.288631 0.29526300000000005
vt 0.339252 0.27196
vt 0.288631 0.29526300000000005
vt 0.22472 0.252159
vt 0.334757 0.252081
vt 0.334757 0.252081
vt 0.339252 0.27196
vt 0.288631 0.29526300000000005
vt 0.3161 0.31756000000000006
vt 0.339402 0.302976
vt 0.352681 0.324643
vt 0.339252 0.27196
vt 0.339402 0.302976
vt 0.3161 0.31756000000000006
vt 0.359534 0.291265
vt 0.352681 0.324643
vt 0.339402 0.302976
vt 0.339402 0.302976
vt 0.339252 0.27196
vt 0.359534 0.291265
vt 0.378605 0.29085800000000006
vt 0.359534 0.291265
vt 0.339252 0.27196
vt 0.339252 0.27196
vt 0.370384 0.270126
vt 0.378605 0.29085800000000006
vt 0.370384 0.270126
vt 0.339252 0.27196
vt 0.334757 0.252081
vt 0.288437 0.136254
vt 0.334757 0.252081
vt 0.22472 0.252159
vt 0.334757 0.252081
vt 0.395372 0.263247
vt 0.370384 0.270126
vt 0.355519 0.14480099999999996
vt 0.395372 0.263247
vt 0.334757 0.252081
vt 0.334757 0.252081
vt 0.288437 0.136254
vt 0.355519 0.14480099999999996
vt 0.4064 0.30324400000000007
vt 0.378605 0.29085800000000006
vt 0.370384 0.270126
vt 0.370384 0.270126
vt 0.398161 0.281663
vt 0.4064 0.30324400000000007
vt 0.398161 0.281663
vt 0.370384 0.270126
vt 0.395372 0.263247
vt 0.355519 0.14480099999999996
vt 0.409962 0.2601800000000001
vt 0.395372 0.263247
vt 0.409962 0.2601800000000001
vt 0.398161 0.281663
vt 0.395372 0.263247
vt 0.409962 0.2601800000000001
vt 0.355519 0.14480099999999996
vt 0.371006 0.132301
vt 0.277632 0.054815999999999976
vt 0.371006 0.132301
vt 0.355519 0.14480099999999996
vt 0.355519 0.14480099999999996
vt 0.248492 0.04862299999999997
vt 0.277632 0.054815999999999976
vt 0.248492 0.04862299999999997
vt 0.355519 0.14480099999999996
vt 0.288437 0.136254
vt 0.22472 0.252159
vt 0.22472 0.13303699999999996
vt 0.288437 0.136254
vt 0.248492 0.04862299999999997
vt 0.288437 0.136254
vt 0.22472 0.13303699999999996
vt 0.22472 0.13303699999999996
vt 0.22472 0.03154900000000005
vt 0.248492 0.04862299999999997
vt 0.161004 0.136254
vt 0.22472 0.13303699999999996
vt 0.22472 0.252159
vt 0.200949 0.04862299999999997
vt 0.22472 0.03154900000000005
vt 0.22472 0.13303699999999996
vt 0.22472 0.13303699999999996
vt 0.161004 0.136254
vt 0.200949 0.04862299999999997
vt 0.22472 0.01850099999999999
vt 0.22472 0.03154900000000005
vt 0.147105 0.034824999999999995
vt 0.22472 0.03154900000000005
vt 0.200949 0.04862299999999997
vt 0.14524 0.04193400000000003
vt 0.14524 0.04193400000000003
vt 0.147105 0.034824999999999995
vt 0.22472 0.03154900000000005
vt 0.302336 0.034824999999999995
vt 0.22472 0.03154900000000005
vt 0.22472 0.01850099999999999
vt 0.22472 0.03154900000000005
vt 0.302336 0.034824999999999995
vt 0.304201 0.04193400000000003
vt 0.304201 0.04193400000000003
vt 0.248492 0.04862299999999997
vt 0.22472 0.03154900000000005
vt 0.147105 0.034824999999999995
vt 0.12753 0.02687600000000001
vt 0.22472 0.01850099999999999
vt 0.22472 0.01850099999999999
vt 0.318455 0.029505000000000003
vt 0.302336 0.034824999999999995
vt 0.12753 0.02687600000000001
vt 0.147105 0.034824999999999995
vt 0.14524 0.04193400000000003
vt 0.129483 0.048772999999999955
vt 0.14524 0.04193400000000003
vt 0.200949 0.04862299999999997
vt 0.14524 0.04193400000000003
vt 0.129483 0.048772999999999955
vt 0.12753 0.02687600000000001
vt 0.200949 0.04862299999999997
vt 0.169104 0.05669400000000002
vt 0.129483 0.048772999999999955
vt 0.304201 0.04193400000000003
vt 0.302336 0.034824999999999995
vt 0.318455 0.029505000000000003
vt 0.248492 0.04862299999999997
vt 0.304201 0.04193400000000003
vt 0.320709 0.05042599999999997
vt 0.318455 0.029505000000000003
vt 0.320709 0.05042599999999997
vt 0.304201 0.04193400000000003
vt 0.320709 0.05042599999999997
vt 0.277632 0.054815999999999976
vt 0.248492 0.04862299999999997
vt 0.544338 0.06860500000000003
vt 0.593462 0.112923
vt 0.509354 0.15420600000000007
vt 0.593462 0.112923
vt 0.693261 0.292092
vt 0.509354 0.15420600000000007
vt 0.509354 0.15420600000000007
vt 0.518664 0.08299599999999996
vt 0.544338 0.06860500000000003
vt 0.693261 0.40744099999999994
vt 0.636977 0.39605599999999996
vt 0.693261 0.292092
vt 0.636977 0.39605599999999996
vt 0.557531 0.351549
vt 0.693261 0.292092
vt 0.509354 0.15420600000000007
vt 0.693261 0.292092
vt 0.557531 0.351549
vt 0.793061 0.112923
vt 0.877169 0.15420600000000007
vt 0.693261 0.292092
vt 0.693261 0.40744099999999994
vt 0.693261 0.292092
vt 0.748185 0.39469599999999994
vt 0.748185 0.39469599999999994
vt 0.693261 0.292092
vt 0.81947 0.3461080000000001
vt 0.81947 0.3461080000000001
vt 0.693261 0.292092
vt 0.877169 0.15420600000000007
vt 0.877169 0.15420600000000007
vt 0.793061 0.112923
vt 0.842185 0.06860500000000003
vt 0.842185 0.06860500000000003
vt 0.867859 0.08299599999999996
vt 0.877169 0.15420600000000007
vt 0.877169 0.15420600000000007
vt 0.919788 0.16273399999999993
vt 0.81947 0.3461080000000001
vt 0.919788 0.16273399999999993
vt 0.832603 0.34966699999999995
vt 0.81947 0.3461080000000001
vt 0.81947 0.3461080000000001
vt 0.832603 0.34966699999999995
vt 0.75519 0.404929
vt 0.75519 0.404929
vt 0.748185 0.39469599999999994
vt 0.81947 0.3461080000000001
vt 0.693261 0.41863800000000007
vt 0.693261 0.40744099999999994
vt 0.748185 0.39469599999999994
vt 0.748185 0.39469599999999994
vt 0.75519 0.404929
vt 0.693261 0.41863800000000007
vt 0.75519 0.404929
vt 0.832603 0.34966699999999995
vt 0.901547 0.35467399999999993
vt 0.901547 0.35467399999999993
vt 0.745337 0.48893600000000004
vt 0.75519 0.404929
vt 0.693261 0.41863800000000007
vt 0.75519 0.404929
vt 0.745337 0.48893600000000004
vt 0.919788 0.16273399999999993
vt 0.901547 0.35467399999999993
vt 0.832603 0.34966699999999995
vt 0.988249 0.157659
vt 0.901547 0.35467399999999993
vt 0.919788 0.16273399999999993
vt 0.919788 0.16273399999999993
vt 0.965976 0.12492700000000001
vt 0.988249 0.157659
vt 0.745337 0.48893600000000004
vt 0.823664 0.502509
vt 0.823664 0.51953
vt 0.823664 0.51953
vt 0.693261 0.526004
vt 0.745337 0.48893600000000004
vt 0.745337 0.48893600000000004
vt 0.693261 0.526004
vt 0.693261 0.41863800000000007
vt 0.641186 0.48893600000000004
vt 0.693261 0.526004
vt 0.562858 0.51953
vt 0.693261 0.41863800000000007
vt 0.693261 0.526004
vt 0.641186 0.48893600000000004
vt 0.562858 0.51953
vt 0.562858 0.502509
vt 0.641186 0.48893600000000004
vt 0.629972 0.406289
vt 0.641186 0.48893600000000004
vt 0.484975 0.35467399999999993
vt 0.641186 0.48893600000000004
vt 0.629972 0.406289
vt 0.693261 0.41863800000000007
vt 0.484975 0.35467399999999993
vt 0.547798 0.35442799999999997
vt 0.629972 0.406289
vt 0.557531 0.351549
vt 0.636977 0.39605599999999996
vt 0.629972 0.406289
vt 0.629972 0.406289
vt 0.547798 0.35442799999999997
vt 0.557531 0.351549
vt 0.693261 0.41863800000000007
vt 0.629972 0.406289
vt 0.636977 0.39605599999999996
vt 0.466735 0.16273399999999993
vt 0.547798 0.35442799999999997
vt 0.484975 0.35467399999999993
vt 0.466735 0.16273399999999993
vt 0.557531 0.351549
vt 0.547798 0.35442799999999997
vt 0.466735 0.16273399999999993
vt 0.484975 0.35467399999999993
vt 0.398273 0.157659
vt 0.398273 0.157659
vt 0.420546 0.12492700000000001
vt 0.466735 0.16273399999999993
vt 0.557531 0.351549
vt 0.466735 0.16273399999999993
vt 0.509354 0.15420600000000007
vt 0.636977 0.39605599999999996
vt 0.693261 0.40744099999999994
vt 0.693261 0.41863800000000007
vt 0.131906 0.777124
vt 0.221107 0.820907
vt 0.169008 0.867908
vt 0.221107 0.820907
vt 0.131906 0.777124
vt 0.326949 0.63089
vt 0.169008 0.867908
vt 0.14178 0.852645
vt 0.131906 0.777124
vt 0.326949 0.515629
vt 0.326949 0.63089
vt 0.264604 0.524711
vt 0.264604 0.524711
vt 0.326949 0.63089
vt 0.186401 0.571749
vt 0.186401 0.571749
vt 0.326949 0.63089
vt 0.131906 0.777124
vt 0.432791 0.820907
vt 0.326949 0.63089
vt 0.521991 0.777124
vt 0.326949 0.515629
vt 0.38528 0.530152
vt 0.326949 0.63089
vt 0.38528 0.530152
vt 0.460695 0.573109
vt 0.326949 0.63089
vt 0.521991 0.777124
vt 0.326949 0.63089
vt 0.460695 0.573109
vt 0.484889 0.867908
vt 0.432791 0.820907
vt 0.521991 0.777124
vt 0.521991 0.777124
vt 0.512118 0.852645
vt 0.484889 0.867908
vt 0.460695 0.573109
vt 0.567191 0.768079
vt 0.521991 0.777124
vt 0.567191 0.768079
vt 0.460695 0.573109
vt 0.473738 0.56682
vt 0.460695 0.573109
vt 0.38528 0.530152
vt 0.392709 0.517259
vt 0.392709 0.517259
vt 0.473738 0.56682
vt 0.460695 0.573109
vt 0.326949 0.49668200000000007
vt 0.392709 0.517259
vt 0.38528 0.530152
vt 0.38528 0.530152
vt 0.326949 0.515629
vt 0.326949 0.49668200000000007
vt 0.392709 0.517259
vt 0.382177 0.4221269999999999
vt 0.547846 0.564519
vt 0.547846 0.564519
vt 0.473738 0.56682
vt 0.392709 0.517259
vt 0.382177 0.4221269999999999
vt 0.392709 0.517259
vt 0.326949 0.49668200000000007
vt 0.567191 0.768079
vt 0.473738 0.56682
vt 0.547846 0.564519
vt 0.567191 0.768079
vt 0.547846 0.564519
vt 0.639798 0.773462
vt 0.639798 0.773462
vt 0.616176 0.808176
vt 0.567191 0.768079
vt 0.27172 0.4221269999999999
vt 0.326949 0.382815
vt 0.326949 0.49668200000000007
vt 0.326949 0.49668200000000007
vt 0.259828 0.509778
vt 0.27172 0.4221269999999999
vt 0.326949 0.49668200000000007
vt 0.326949 0.515629
vt 0.264604 0.524711
vt 0.264604 0.524711
vt 0.259828 0.509778
vt 0.326949 0.49668200000000007
vt 0.326949 0.49668200000000007
vt 0.326949 0.382815
vt 0.382177 0.4221269999999999
vt 0.382177 0.4221269999999999
vt 0.326949 0.382815
vt 0.465247 0.38968099999999994
vt 0.465247 0.38968099999999994
vt 0.465247 0.40773100000000007
vt 0.382177 0.4221269999999999
vt 0.18865 0.38968099999999994
vt 0.326949 0.382815
vt 0.27172 0.4221269999999999
vt 0.27172 0.4221269999999999
vt 0.18865 0.40773100000000007
vt 0.18865 0.38968099999999994
vt 0.106051 0.564519
vt 0.27172 0.4221269999999999
vt 0.259828 0.509778
vt 0.259828 0.509778
vt 0.174719 0.56682
vt 0.106051 0.564519
vt 0.186401 0.571749
vt 0.174719 0.56682
vt 0.259828 0.509778
vt 0.259828 0.509778
vt 0.264604 0.524711
vt 0.186401 0.571749
vt 0.086706 0.768079
vt 0.106051 0.564519
vt 0.174719 0.56682
vt 0.086706 0.768079
vt 0.174719 0.56682
vt 0.186401 0.571749
vt 0.0141 0.773462
vt 0.106051 0.564519
vt 0.086706 0.768079
vt 0.086706 0.768079
vt 0.037721 0.808176
vt 0.0141 0.773462
vt 0.131906 0.777124
vt 0.086706 0.768079
vt 0.186401 0.571749
vt 0.660184 0.022322999999999982
vt 0.693261 0.01031800000000005
vt 0.693261 0.08357700000000001
vt 0.693261 0.08357700000000001
vt 0.646585 0.08398400000000006
vt 0.660184 0.022322999999999982
vt 0.693261 0.08357700000000001
vt 0.693261 0.01031800000000005
vt 0.726338 0.022322999999999982
vt 0.593462 0.112923
vt 0.646585 0.08398400000000006
vt 0.693261 0.08357700000000001
vt 0.693261 0.08357700000000001
vt 0.693261 0.292092
vt 0.593462 0.112923
vt 0.726338 0.022322999999999982
vt 0.739938 0.08398400000000006
vt 0.693261 0.08357700000000001
vt 0.793061 0.112923
vt 0.693261 0.292092
vt 0.693261 0.08357700000000001
vt 0.693261 0.08357700000000001
vt 0.739938 0.08398400000000006
vt 0.793061 0.112923
vt 0.291869 0.916993
vt 0.277446 0.851598
vt 0.326949 0.852029
vt 0.326949 0.852029
vt 0.326949 0.929725
vt 0.291869 0.916993
vt 0.326949 0.852029
vt 0.277446 0.851598
vt 0.221107 0.820907
vt 0.221107 0.820907
vt 0.326949 0.63089
vt 0.326949 0.852029
vt 0.362029 0.916993
vt 0.326949 0.929725
vt 0.326949 0.852029
vt 0.326949 0.852029
vt 0.376451 0.851598
vt 0.362029 0.916993
vt 0.432791 0.820907
vt 0.376451 0.851598
vt 0.326949 0.852029
vt 0.326949 0.852029
vt 0.326949 0.63089
vt 0.432791 0.820907
vt 0.987952 0.989268
vt 0.986825 0.975187
vt 0.008686 0.975187
vt 0.008686 0.975187
vt 0.009813 0.989268
vt 0.987952 0.989268
vt 0.989078 0.975187
vt 0.987952 0.989268
vt 0.009813 0.989268
vt 0.986825 0.975187
vt 0.986825 0.959186
vt 0.008686 0.959186
vt 0.008686 0.959186
vt 0.008686 0.975187
vt 0.986825 0.975187
vt 0.986825 0.959186
vt 0.987952 0.945106
vt 0.009813 0.945106
vt 0.009813 0.945106
vt 0.008686 0.959186
vt 0.986825 0.959186
vt 0.987952 0.945106
vt 0.989078 0.959186
vt 0.01094 0.959186
vt 0.01094 0.959186
vt 0.009813 0.945106
vt 0.987952 0.945106
vt 0.989078 0.959186
vt 0.989078 0.975187
vt 0.01094 0.975187
vt 0.01094 0.975187
vt 0.01094 0.959186
vt 0.989078 0.959186
vt 0.009813 0.989268
vt 0.01094 0.975187
vt 0.989078 0.975187
vt 0.82406 0.676022
vt 0.897266 0.676022
vt 0.933869 0.739421
vt 0.82406 0.676022
vt 0.933869 0.739421
vt 0.82406 0.802819
vt 0.787457 0.739421
vt 0.82406 0.676022
vt 0.82406 0.802819
vt 0.933869 0.739421
vt 0.897266 0.80282
vt 0.82406 0.802819
vt 0.769154 0.877445
vt 0.769154 0.815451
vt 0.722093 0.815451
vt 0.722093 0.815451
vt 0.722093 0.877445
vt 0.769154 0.877445
vt 0.769154 0.815451
vt 0.769154 0.877445
vt 0.722093 0.877445
vt 0.769154 0.815451
vt 0.769154 0.736977
vt 0.722093 0.736977
vt 0.722093 0.736977
vt 0.722093 0.815451
vt 0.769154 0.815451
vt 0.769154 0.736977
vt 0.769154 0.674983
vt 0.722093 0.674983
vt 0.722093 0.674983
vt 0.722093 0.736977
vt 0.769154 0.736977
vt 0.769154 0.674983
vt 0.769154 0.736977
vt 0.722093 0.736977
vt 0.722093 0.736977
vt 0.722093 0.674983
vt 0.769154 0.674983
vt 0.769154 0.736977
vt 0.769154 0.815451
vt 0.722093 0.815451
vt 0.722093 0.815451
vt 0.722093 0.736977
vt 0.769154 0.736977
vt 0.722093 0.877445
vt 0.722093 0.815451
vt 0.769154 0.815451
vn 0 -1 0
vn 0 -1 0
vn 0 -1 0
vn 0 -1 0
vn -0.7886273919870802 0.4350818659123908 0.4344773947650774
vn -0.891801075629628 -0.39959541329651066 0.21216584828437732
vn -0.7602724434124142 0.5371163693143182 0.36536532074394057
vn -0.8582754331253691 -0.36408124568835043 -0.3616740624256587
vn -0.868625671286289 -0.13361284794002876 0.4771132465650042
vn -0.8330474962113829 -0.29774925693654203 -0.4662373312484568
vn 0.6716192737388464 -0.7227733801055075 0.1628686346518691
vn 0.531800082944205 -0.503955274726583 0.6806010232550279
vn 0.8812445806141053 -0.4192317881882405 0.21829497683355045
vn 0.6556461153846845 -0.714121851816977 0.24527158852681008
vn 0.751754036986183 -0.3598824850532958 0.5525852557088732
vn 0.4689733749755162 -0.30733716650890813 0.8280143957965646
vn 0.5669559959404077 -0.2694927190452859 0.7784179937853435
vn 0.18963621263633296 -0.12623427008403784 0.97370581589785
vn 0.1808116473790829 0.3293083378229052 0.9267487074781263
vn 0.28160997900946927 0.4181990039643975 0.8636002621615353
vn 0.3429941342164118 0.38379252291802146 0.857355424106802
vn 0.3630478125465316 0.3440387686440146 0.865929333996192
vn 0.7959135528901558 0.3880875631745026 0.46466080062239573
vn 0.3290889114733521 0.6394623262694691 0.6948297788863999
vn 0.8520794600500878 0.43510428884047975 0.290937882705864
vn 0.91509411205212 -0.39959736365228 0.05408061621033569
vn -0.35304396667411087 0.9066636479887152 0.23091337555629993
vn 0.8121506538758079 0.5371413990289521 0.22779471648464075
vn 0.2063786508938003 0.9783973470833394 -0.012103044060847713
vn -0.635364172033799 0.7713131654363905 0.03726083359642753
vn 0.9796725570831273 0.18137330635998256 -0.0857053361130717
vn 0.19545840638709916 0.9805629104506359 -0.017099415814410993
vn 0.463456379055171 0.6548474397010616 0.5969782369819139
vn 0.37295472846577 0.6371983613808466 0.6744501603295738
vn 0.5218281720097466 0.7841890164412911 0.33577216291677153
vn 0.9898393165189463 0.13983145952820797 -0.025793223906995167
vn -0.4199023436555596 0.8781305309759999 0.2292788528416367
vn 0.48642113977226703 0.8154162102896141 0.31383256488065847
vn -0.6673197062633259 0.7424798824806031 0.058378367091058
vn 0.3495963032147169 0.8869911883737684 0.30171021945882803
vn 0.34958403946179994 0.886997582352084 0.3017056317921967
vn 0.9729083926536325 0.23118625758152359 0.0014743844732781996
vn -0.2918936581874257 0.8869921109913027 0.3578310877343596
vn 0.23442545620898353 0.4345949262592406 0.8695814829853126
vn 0.42965237971638437 0.5722093956279166 0.6985522458336115
vn -0.2918936581874219 0.8869921109913048 0.3578310877343574
vn -0.30182240246320097 0.5722051677602237 0.7625512988382068
vn -0.0798756592382227 0.4346013205785807 0.8970738939533427
vn 0.9429625216737589 0.3225144949994369 -0.08249898929031907
vn 0.4765539870462084 0.878156003169682 -0.04169330314825176
vn 0.47655744030898745 0.8781542798171297 -0.04169012982714908
vn 0.286552609692768 0.7530774932054711 0.5922515437764835
vn 0.28722063818577925 0.1909614573525579 0.9386362590513648
vn -0.1198713992888525 0.19096448307540673 0.9742501803111332
vn -0.17935912081139652 0.7530715074491837 0.6330194392354606
vn -0.9429581356918515 0.3225275822914546 0.08249795751275811
vn -0.4765599885321721 0.8781528738397187 0.041690616417355914
vn -0.47656235360191435 0.8781514435876038 0.041693707611722225
vn -0.9578695894157783 0.23118578658063504 0.1704082795979747
vn 0.6673179477460564 0.7424814460482462 -0.05837858246049507
vn 0.4533429184949357 0.8781274343348436 0.15288036930554283
vn -0.4245352672028949 0.8154163580906096 0.3935301384382309
vn -0.25016897457728005 0.637202198593784 0.7289642256422466
vn -0.12735833798758392 0.4181913107608685 0.8993863915743596
vn -0.017140372506174322 0.32931358856535525 0.9440650231930836
vn -0.45559580283877715 0.7841879668995346 0.42128576644086196
vn -0.3527592761267881 0.6548528321539465 0.6683776337718518
vn -0.9792812078360599 0.13983067726765752 0.14647763540559985
vn -0.9796722767328381 0.18137476819784581 0.08570544709804138
vn -0.20534775988707138 0.9783966859380057 0.023921171687214922
vn -0.19545318388650015 0.9805639589478822 0.01709898596660645
vn -0.18890433123985928 0.38377811208880713 0.9038968493807094
vn -0.017677082026568824 -0.1262335996138518 0.9918430314820766
vn -0.20716247973877414 0.3440280762408297 0.9158211559832609
vn -0.42317701509981476 -0.26948887640043434 0.8650415940217225
vn -0.31806006948277626 -0.3073373616860643 0.8968732007995672
vn 0.38778094739667324 0.9066635258081415 0.1660939126075616
vn 0.6321809577164529 0.771313091356556 -0.07364340977101322
vn -0.20343227585235915 0.639449230704313 0.7414310423048067
vn -0.6443796372665886 -0.3598828068292987 0.674729018513985
vn -0.703142362109705 0.3880611568096978 0.5958182249497774
vn -0.8299508218646022 -0.41923016344535685 0.3680050316827896
vn -0.6331330271770413 -0.7227706205224764 0.27702924034691784
vn -0.6030968376953609 -0.7141197744800862 0.3553971750849554
vn -0.40554038409428067 -0.5039560220852546 0.7626043041267667
vn -0.040146712234954016 -0.11368266768389852 0.9927056424565119
vn -0.05246331249036968 -0.4189327208090183 0.9065004005945563
vn -0.1604773266833449 -0.3849892694251993 0.9088620852736781
vn 0.21191809286889268 -0.11368116236233897 0.9706530354553881
vn 0.20907843288545583 -0.4189352684205116 0.8836172529866062
vn 0.3158758673467738 -0.38498755197977136 0.8671833838632672
vn 0.057235205215114125 -0.9539680289040146 0.29439621450177156
vn 0.15216209296939448 -0.017201725952975373 0.9882058480334004
vn 0.16152259065074834 -0.12164780717034747 0.9793427713115141
vn -0.00524354870356348 -0.9539675600093247 0.29986396857049824
vn 0.010985230884670063 -0.12167654269018957 0.9925090143980423
vn 0.021752666756758667 -0.01713069737369841 0.9996166068530776
vn 0.7984728192755033 -0.19562213996214567 0.5693620423200515
vn 0.05567407737170657 -0.950423477228977 0.3059339978505
vn -0.0017051134588754347 -0.9504255595073626 0.31094750107246255
vn -0.6874830101248114 -0.19557980940311417 0.6993680354030845
vn -0.11737062690950878 0.9759268860666511 0.18382287396055702
vn -0.8133768695686259 0 0.5817371124921831
vn -0.1245266136694126 0.9634942363660839 0.237006284679048
vn 0.9020522331366945 0 0.4316268859710927
vn 0.1475046288706864 0.9759288987033568 0.1606398740580133
vn 0.16378927252001033 0.9634947798878234 0.2117802713575575
vn 0.7153690802119641 -0.22079649871605683 0.6629449337851666
vn 0.5125969754080955 -0.7243536362335148 0.46103812258614507
vn 0.691613234940956 -0.30147698125852274 0.65634043226496
vn 0.8921393077699635 -0.2942562482983712 0.3427837742208605
vn 0.7294277452995499 -0.6160059769762877 0.2974420964098803
vn 0.5185582416613145 -0.8248662022896582 0.22515127875577912
vn 0.42029829288117065 -0.865739589225087 0.2717430931036731
vn 0.11465124309965613 -0.9865297295590659 0.11667984038307497
vn 0.16803576433921688 -0.8848706355178193 -0.43447432640056677
vn 0.07027116784689662 -0.9389874319429978 -0.33669654827830875
vn 0.2551094672108622 -0.8942703907108264 -0.3676950204140601
vn 0.2325249300135377 -0.8839985433703179 -0.4055597764095393
vn 0.7156933424127289 -0.5322812433517674 -0.4521722211746242
vn 0.21053213173488625 -0.7208815231945187 -0.6603075427586111
vn 0.7824320829779877 -0.36407815491392387 -0.5052198854372225
vn 0.9382753068249724 -0.13362099826058255 0.3190374232380102
vn -0.44935361352302233 -0.19936308270917738 -0.8708247190258763
vn 0.7394368264364427 -0.29775472728135627 -0.6038007138876266
vn 0.12061458447138769 -0.005912611540342892 -0.9926818035189159
vn -0.7010412890009675 0.018266746979307778 -0.7128866930099452
vn 0.9638526581893732 0 -0.26643583336570825
vn 0.11005152815478378 0 -0.9939258831275081
vn 0.25602473675697507 -0.7044107764254811 -0.6620096617302292
vn 0.3512219590097717 -0.6349677309684393 -0.6880836548982472
vn 0.9723688165778439 -0.060619496820175645 -0.22544214590948236
vn 0.4205182146820863 -0.3800622853657005 -0.8238428796580037
vn -0.5133796882901426 -0.1916218746085914 -0.8364940841527845
vn 0.38430313956611795 -0.354938254787115 -0.8522499235601622
vn -0.7320088076103947 0 -0.6812951677362817
vn 0.2433909801977345 -0.3311022427281933 -0.9116644863208979
vn 0.2433909801977352 -0.33110224272819355 -0.9116644863208976
vn 0.9452350861540915 -0.08628766697642785 -0.3147778112113882
vn 0.9148357159877393 0 -0.4038262160301144
vn 0.11926585916996538 -0.8866828686407743 -0.44673162558231516
vn 0.3157941285553386 -0.7333742723478055 -0.602026780989269
vn -0.3980205841680889 -0.331110243438843 -0.8555382056158355
vn -0.3980053042104776 -0.3311025614798791 -0.8555482871245716
vn -0.195028016144053 -0.8866848505106567 -0.4192303051949009
vn -0.41554952844726556 -0.733367150047874 -0.5380438761271373
vn 0.4000329685354964 0 -0.916500749636725
vn 0.4000329685354964 0 -0.916500749636725
vn 0.1672780049860257 -0.6150538274102682 -0.7705367339951259
vn 0.18688453572471536 -0.9600999942364449 -0.2080436766021412
vn -0.2985359664976098 -0.6150323435373442 -0.729802365788369
vn -0.2201696548345811 -0.9601008326058691 -0.17242886741940433
vn -0.9710644762765112 0 -0.23881746777366405
vn -0.553080898030829 0 -0.8331275533994852
vn -0.553080898030829 0 -0.8331275533994852
vn -0.9855377008955883 -0.08628982092034422 -0.14584069020329288
vn 0.6025828542783832 0 -0.7980563286696729
vn 0.3602454562134593 -0.19167844303373302 -0.9129526744326459
vn -0.5264812040179351 -0.35497462640380356 -0.772535148990197
vn -0.36710618311064597 -0.7044008758894225 -0.6074968776612334
vn -0.12766942080875565 -0.9389883309040716 -0.31937663254587495
vn -0.24094044870252587 -0.8848647087560169 -0.39870057358518446
vn -0.5571854031641602 -0.3800743997266489 -0.7383006685444757
vn -0.4653707545824289 -0.6349673617356908 -0.6166413141444526
vn -0.9967448292674345 -0.060608782069941414 -0.053163153260802676
vn -0.9954767092492827 0 -0.09500590161784248
vn -0.2809383865465383 0 -0.9597258061366423
vn -0.2911558391237755 -0.00593065060923711 -0.9566572556184798
vn -0.2994129201362767 -0.8839924981123044 -0.35903922701654123
vn -0.09264729319848183 -0.9865298425803093 0.1348159811055978
vn -0.31507292577700835 -0.8942614459603109 -0.31784511591542514
vn -0.3667268495077704 -0.865738725423826 0.3405992911789957
vn -0.4715830262970559 -0.8248657781163384 0.3117786031802666
vn 0.5666054220649699 0.01825372373550732 -0.8237870460600635
vn 0.2913381567844696 -0.19935776581884684 -0.9356166734347703
vn -0.32197108143828984 -0.7208750425542871 -0.6137375625948056
vn -0.6667017306451558 -0.6159982580547012 0.41958902324575653
vn -0.7833548781155097 -0.5322544928958972 -0.321030044894191
vn -0.8190549909503376 -0.29428246995048846 0.4924903549098016
vn -0.5671281199677254 -0.3014962967518027 0.7664630966894768
vn -0.5893742352088291 -0.22082853488353715 0.7770925099711091
vn -0.4247500643174551 -0.7243510004664613 0.5430497315951409
vn -0.1161135846104049 -0.9854310528380125 0.12427097638422636
vn -0.09424619868957745 -0.8984777166050767 0.42878368298792846
vn -0.20462732393838032 -0.8914146429883452 0.4043607208468432
vn 0.13593025411992002 -0.9854308848384324 0.10222004314926793
vn 0.2717263695167857 -0.8914162487743735 0.36268698836634805
vn 0.16727335283032027 -0.8984782413594289 0.4059020512840149
vn 0.11438333812632322 -0.29829117835789987 0.9475963406814819
vn 0.08586934678537064 -0.9896918940936975 0.1146141790874211
vn 0.06669905854518075 -0.9977080123648056 0.011399897028289386
vn 0.051896429038799076 -0.2982914696939507 0.9530629358866307
vn -0.06370629726236726 -0.9977081949988608 0.022800555283467527
vn -0.0646627841940471 -0.9896924939152253 0.12777907429675656
vn 0.11152831328751149 -0.30962867077523143 0.9442941922776007
vn 0.05414800202391361 -0.3096964499771169 0.949292422148407
vn 0.7600303181270939 -0.6367728583605672 0.12990089446551742
vn 0.04738003770837927 -0.17289586695643344 -0.9837998532303895
vn 0.8577237263044737 -0.5086129202504094 -0.07498604329286085
vn 0.060170722945074084 -0.22520295350867806 -0.9724521139013662
vn -0.7259696118573438 -0.6367565594339785 0.259825338790311
vn -0.21749214206355014 -0.1728488104299726 -0.9606354443146224
vn -0.8577117517843843 -0.5086213232226102 0.07506597374472535
vn -0.22813413893563167 -0.22523602685397548 -0.9472188484501
vn -0.07174834785625771 0.9800155452198076 0.18553087534807008
vn -0.04219229253718701 0.9931345862432268 0.10910318078750599
vn -0.08702187487048857 0.9773353261759535 0.19298407577457785
vn -0.06210573405554673 0.9756132112937527 -0.2105272897904528
vn -0.13768154381148756 0.9772921529023099 -0.16107091720498087
vn -0.17973373905816495 0.982636861063835 -0.04604978092005437
vn 0.060497997362461184 0.9931346731639942 0.10011749734476137
vn 0.024603959459896994 0.9756133069580911 -0.21811309099912665
vn 0.10762018967031044 0.9772924222481063 -0.18253058974252964
vn 0.16900569033918492 0.9826370639305707 -0.0765602848929075
vn 0.10287662971121768 0.9800160836724546 0.17024944875847736
vn 0.11922075603713356 0.977334472819981 0.17493924536142294
vn -0.0053923355816218235 0.9998157779268317 -0.01842099143747315
vn 0.735601590516708 0.5133330401691272 -0.4420175221640097
vn 0.4461314645592175 0.34927968806161974 -0.8239966115451114
vn 0.28894315294279016 0.7165446379556403 -0.6348823798031411
vn 0.08280677986136932 0.6739966552554785 -0.7340787055305573
vn 0.07642585857672884 0.6874339095450176 -0.7222144474797375
vn -0.06332285385325039 0.9688744588121065 0.23931673414416216
vn -0.033061502378550475 0.9918553302581706 0.1230038247329263
vn -0.012538551362457906 0.9928763536220305 0.11848768352850655
vn -0.09221639070565797 0.9943711491148959 -0.05217427616309545
vn 0.17651977662706378 0.9791452016447255 -0.10057555645206016
vn 0.17910493970337196 0.9787099609967682 0.100240873996369
vn -0.09800038289225403 0.9951494169291608 0.008576883963474325
vn -0.055436471004049255 0.9939968788062437 0.09432392382668897
vn -0.054577051429000274 0.9941821066477684 0.0928616405127644
vn 0.07097395504111619 0.9939967535308405 0.08326554915432488
vn 0.0698722398912288 0.9941822226331775 0.08197303393639926
vn 0.09799870952586338 0.9951496626767903 -0.008567485368292481
vn 0.053918657375383955 0.9918554146029376 0.11539330530698391
vn 0.03292239386466519 0.9928764924043855 0.11450933068088409
vn 0.10391941392379804 0.9688738142645549 0.22468708784037297
vn -0.39479979994694964 0.7165416992679741 -0.5750661798193428
vn -0.582442006977294 0.34926191126209644 -0.7340145951204304
vn -0.2006724851921072 0.687435244255256 -0.697970872345358
vn 0.08175716075633727 0.9943710138302212 -0.0673947588416226
vn -0.8011924962513761 0.5133155294171161 -0.3075674742389293
vn -0.19130009795688907 0.9791456641639603 -0.06839620508918674
vn -0.1589755707632758 0.9787108787234714 0.12981442049642017
vn 0.0021123205630810826 0.9998157796903893 -0.019077336919446415
vn -0.20902518110698742 0.6739838712470682 -0.7085578416488006
vn -0.17272267618988416 -0.17856859044304557 -0.9686486130878362
vn -0.13790072727536246 -0.10501069256009611 -0.9848635153486879
vn -0.18834127868406506 -0.18468058014622046 -0.9645831462660474
vn -0.12838130965319786 0.21514364096772887 -0.9681071495877297
vn -0.2078220765224922 0.17246202980421008 -0.9628430987371158
vn -0.26000990852647266 0.061538901163177194 -0.9636429894476918
vn -0.035216137353017665 -0.10501358916519539 -0.9938470555173856
vn -0.04168189682207257 0.21514394539651258 -0.975692421942764
vn 0.03746754086830607 0.17246213092540272 -0.9843033052763519
vn 0.08872452254126278 0.06153747927121933 -0.9941534578447984
vn 0.0018932177794003492 -0.17857285637800444 -0.9839248704507071
vn 0.01798568311131871 -0.1846867861584559 -0.982632844057983
vn -0.09087917806350623 0.018823002759406245 -0.9956840209432011
vn 0.7236536004918339 0.376224045572224 -0.5786025700154419
vn 0.27941668390742747 0.6072822383693793 -0.743730192822137
vn 0.4838415326041797 0.781977398540957 -0.39294874920065054
vn 0.07862161213815175 0.7127956183942372 -0.6969512526014823
vn 0.0871514449806702 0.7240546261468922 -0.6842145306795709
vn -0.12993485910197544 -0.11966304247272165 -0.9842752098149793
vn -0.16806897156090084 -0.23291450075940476 -0.957864111518152
vn -0.10926464704580677 -0.11695276137266672 -0.9871085495087476
vn -0.1736551614235298 0.060013437801702284 -0.9829762317544555
vn 0.09856937672636645 0.08481054798908248 -0.9915095808521304
vn 0.08373883648207833 -0.11546854201677843 -0.989775137629324
vn -0.024419785835858254 -0.08775606411026803 -0.9958426317805467
vn -0.0638052265040125 -0.11695134333599001 -0.9910859076602186
vn -0.20464158262158097 0.7240508099127755 -0.6586897959789483
vn -0.1984542782851578 0.7127941091783161 -0.6727112733937256
vn -0.14887970902142023 -0.08775499027201475 -0.9849537521752256
vn -0.14983436662007962 -0.0891238345122282 -0.98468604372226
vn -0.1847268278551744 0 -0.9827899058652184
vn -0.023428312067760772 -0.08913161071267624 -0.9957442795042409
vn 0.011266339611594144 0 -0.9999365327818343
vn -0.042953581951767246 -0.11966222915287866 -0.9918850441012188
vn -0.0008082721213718005 -0.2329253489735474 -0.9724942819892204
vn -0.5447266699354385 0.7819806714844697 -0.3029506304428924
vn -0.4043219417885992 0.607285589878899 -0.6839064115167619
vn 0.0003326109235591063 0.06001271590156434 -0.9981975572501126
vn -0.8131392116775862 0.3762255130678855 -0.44413847587116345
vn -0.2692466710357386 0.08480984517840304 -0.9593297244936114
vn -0.25433797432213606 -0.11549373265248009 -0.9601944555847582
vn -0.08338947364641003 0.018821501793100864 -0.9963392729162227
vn -0.04595599550331438 0.9840005607571632 0.17213640784821665
vn 0.015580911641844608 0.9800858502637949 0.1979620198550804
vn 0.07515284234297868 0.9840004948611697 0.16153970533817597
vn 0 1 0
vn -0.023636213881794762 0.9928071053590144 0.11736856879927139
vn 0.019033926345627658 0.9800858290603383 0.19766000435844042
vn 0.04365720264126183 0.9928071495766185 0.11148099572164547
vn 0 1 0
vn -0.08714264789135553 -0.19857563450601587 -0.9762038087914924
vn -0.1463252484888984 -0.16747693022060442 -0.9749566141621612
vn -0.08715616606228728 -0.0000018531869502795018 -0.9961946610547001
vn -0.12017469922439956 -0.11486219386386791 -0.9860855531276708
vn -0.02519964489525465 -0.16747589272426922 -0.9855540590213012
vn -0.08368577636635385 -0.19856848462780113 -0.9765076793075309
vn -0.08714308790593872 -0.00003443257517848336 -0.9961958045708764
vn -0.05288026128883804 -0.11486232055739173 -0.9919729458418689
vn -0.8191909248869637 0 0.5735209050966158
vn -0.8191909248869637 0 0.5735209050966158
vn -0.9063091930244285 0 -0.42261524657708355
vn 0.08716585695977541 0 0.9961938131611079
vn 0.08716585695977541 0 0.9961938131611079
vn 0.9063091930244267 6.472299169360596e-8 0.42261524657708277
vn 0.9063107671583133 0 0.4226118707903384
vn 0.8191466154660249 0 -0.5735841894356545
vn 0.8191437157953629 -8.784432897431437e-8 -0.5735883304888253
vn -0.08716476344485145 0 -0.9961939088418494
vn -0.08716476344485145 0 -0.9961939088418494
vn -0.9063091930244285 0 -0.42261524657708355
vn 0 1 0
vn 0 1 0
vn 0 1 0
vn 0 1 0
vn -0.8191562520040475 0 0.5735704270642635
vn -0.8191562520040475 0 0.5735704270642635
vn -0.906315594364949 0 -0.422601518467349
vn 0.08716287314014887 0 0.9961940742375226
vn 0.08716287314014887 0 0.9961940742375226
vn 0.906312659423477 0 0.42260781271616904
vn 0.906312659423477 0 0.42260781271616904
vn 0.8191594958179313 0 -0.5735657943177159
vn 0.8191594958179313 0 -0.5735657943177159
vn -0.08715634970582067 0 -0.9961946449896009
vn -0.08715634970582067 0 -0.9961946449896009
vn -0.906315594364949 0 -0.422601518467349
usemtl m_08d72042-ab37-a3b2-5b2f-ebbe75f9cc4a
f 1/1/1 2/2/1 3/3/1
f 1/4/2 3/5/2 4/6/2
f 5/7/3 1/8/3 4/9/3
f 3/10/4 6/11/4 4/12/4
f 7/13/5 8/14/5 9/15/5
f 8/16/6 7/17/6 10/18/6
f 9/19/7 11/20/7 7/21/7
f 12/22/8 13/23/8 14/24/8
f 15/25/9 14/26/9 13/27/9
f 14/28/10 16/29/10 12/30/10
f 17/31/11 18/32/11 19/33/11
f 18/34/12 17/35/12 20/36/12
f 21/37/13 17/38/13 22/39/13
f 19/40/14 22/41/14 17/42/14
f 17/43/15 21/44/15 23/45/15
f 17/46/16 23/47/16 24/48/16
f 24/49/17 20/50/17 17/51/17
f 20/52/18 24/53/18 25/54/18
f 26/55/19 25/56/19 24/57/19
f 24/58/20 27/59/20 26/60/20
f 28/61/21 27/62/21 24/63/21
f 24/64/22 23/65/22 28/66/22
f 21/67/23 29/68/23 23/69/23
f 29/70/24 28/71/24 23/72/24
f 29/73/25 21/74/25 30/75/25
f 31/76/26 30/77/26 21/78/26
f 28/79/27 29/80/27 32/81/27
f 30/82/28 33/83/28 29/84/28
f 27/85/29 28/86/29 34/87/29
f 35/88/30 36/89/30 28/90/30
f 37/91/31 27/92/31 38/93/31
f 39/94/32 40/95/32 27/96/32
f 27/97/33 37/98/33 41/99/33
f 41/100/34 26/101/34 27/102/34
f 41/103/35 37/104/35 42/105/35
f 38/106/36 42/107/36 37/108/36
f 26/109/37 41/110/37 43/111/37
f 42/112/38 43/113/38 41/114/38
f 43/115/39 44/116/39 45/117/39
f 46/118/40 47/119/40 48/120/40
f 48/121/41 49/122/41 46/123/41
f 50/124/42 46/125/42 49/126/42
f 48/127/43 47/128/43 51/129/43
f 52/130/44 49/131/44 48/132/44
f 48/133/45 53/134/45 52/135/45
f 51/136/46 54/137/46 48/138/46
f 55/139/47 53/140/47 48/141/47
f 48/142/48 54/143/48 55/144/48
f 49/145/49 52/146/49 50/147/49
f 44/148/50 50/149/50 52/150/50
f 52/151/51 26/152/51 44/153/51
f 26/154/52 52/155/52 53/156/52
f 53/157/53 25/158/53 56/159/53
f 57/160/54 25/161/54 53/162/54
f 53/163/55 55/164/55 58/165/55
f 59/166/56 55/167/56 54/168/56
f 60/169/57 58/170/57 55/171/57
f 55/172/58 59/173/58 60/174/58
f 54/175/59 51/176/59 59/177/59
f 61/178/60 60/179/60 62/180/60
f 62/181/61 63/182/61 58/183/61
f 63/184/62 62/185/62 64/186/62
f 65/187/63 58/188/63 63/189/63
f 58/190/64 65/191/64 66/192/64
f 66/193/65 25/194/65 58/195/65
f 64/196/66 67/197/66 63/198/66
f 63/199/67 67/200/67 65/201/67
f 67/202/68 64/203/68 68/204/68
f 68/205/69 65/206/69 67/207/69
f 69/208/70 70/209/70 65/210/70
f 65/211/71 71/212/71 72/213/71
f 66/214/72 65/215/72 70/216/72
f 25/217/73 66/218/73 73/219/73
f 70/220/74 74/221/74 66/222/74
f 75/223/75 73/224/75 66/225/75
f 66/226/76 74/227/76 75/228/76
f 76/229/77 9/230/77 70/231/77
f 70/232/78 77/233/78 78/234/78
f 9/235/79 74/236/79 70/237/79
f 75/238/80 74/239/80 8/240/80
f 8/241/81 74/242/81 9/243/81
f 79/244/82 75/245/82 8/246/82
f 80/247/83 81/248/83 75/249/83
f 75/250/84 79/251/84 80/252/84
f 81/253/85 73/254/85 75/255/85
f 73/256/86 82/257/86 25/258/86
f 82/259/87 73/260/87 81/261/87
f 81/262/88 83/263/88 82/264/88
f 25/265/89 82/266/89 20/267/89
f 18/268/90 20/269/90 82/270/90
f 82/271/91 83/272/91 18/273/91
f 84/274/92 83/275/92 85/276/92
f 83/277/93 84/278/93 86/279/93
f 86/280/94 87/281/94 83/282/94
f 85/283/95 83/284/95 88/285/95
f 83/286/96 89/287/96 90/288/96
f 90/289/97 88/290/97 83/291/97
f 86/292/98 84/293/98 91/294/98
f 85/295/99 91/296/99 84/297/99
f 88/298/100 92/299/100 85/300/100
f 92/301/101 88/302/101 90/303/101
f 93/304/102 90/305/102 94/306/102
f 90/307/103 93/308/103 92/309/103
f 94/310/104 95/311/104 93/312/104
f 91/313/105 96/314/105 86/315/105
f 97/316/106 86/317/106 96/318/106
f 96/319/107 98/320/107 97/321/107
f 99/322/108 100/323/108 101/324/108
f 100/325/109 102/326/109 101/327/109
f 101/328/110 103/329/110 99/330/110
f 103/331/111 101/332/111 104/333/111
f 101/334/112 105/335/112 104/336/112
f 101/337/113 102/338/113 106/339/113
f 106/340/114 105/341/114 101/342/114
f 107/343/115 106/344/115 102/345/115
f 108/346/116 109/347/116 106/348/116
f 106/349/117 107/350/117 108/351/117
f 110/352/118 105/353/118 106/354/118
f 106/355/119 109/356/119 110/357/119
f 104/358/120 105/359/120 111/360/120
f 111/361/121 105/362/121 110/363/121
f 112/364/122 104/365/122 111/366/122
f 104/367/123 112/368/123 113/369/123
f 114/370/124 111/371/124 110/372/124
f 111/373/125 115/374/125 112/375/125
f 116/376/126 110/377/126 109/378/126
f 110/379/127 117/380/127 118/381/127
f 119/382/128 109/383/128 120/384/128
f 109/385/129 121/386/129 122/387/129
f 109/388/130 108/389/130 123/390/130
f 123/391/131 120/392/131 109/393/131
f 120/394/132 124/395/132 119/396/132
f 124/397/133 120/398/133 123/399/133
f 125/400/134 123/401/134 108/402/134
f 123/403/135 125/404/135 124/405/135
f 126/406/136 127/407/136 125/408/136
f 128/409/137 129/410/137 130/411/137
f 130/412/138 131/413/138 128/414/138
f 129/415/139 128/416/139 132/417/139
f 132/418/140 133/419/140 129/420/140
f 130/421/141 129/422/141 133/423/141
f 133/424/142 134/425/142 130/426/142
f 135/427/143 131/428/143 130/429/143
f 130/430/144 136/431/144 135/432/144
f 137/433/145 136/434/145 130/435/145
f 130/436/146 134/437/146 137/438/146
f 127/439/147 108/440/147 133/441/147
f 133/442/148 132/443/148 127/444/148
f 134/445/149 133/446/149 108/447/149
f 138/448/150 107/449/150 134/450/150
f 139/451/151 137/452/151 134/453/151
f 134/454/152 107/455/152 140/456/152
f 136/457/153 137/458/153 141/459/153
f 142/460/154 141/461/154 137/462/154
f 137/463/155 139/464/155 142/465/155
f 141/466/156 135/467/156 136/468/156
f 143/469/157 142/470/157 144/471/157
f 139/472/158 145/473/158 143/474/158
f 146/475/159 143/476/159 145/477/159
f 145/478/160 139/479/160 147/480/160
f 139/481/161 107/482/161 148/483/161
f 148/484/162 147/485/162 139/486/162
f 145/487/163 149/488/163 146/489/163
f 147/490/164 149/491/164 145/492/164
f 150/493/165 146/494/165 149/495/165
f 149/496/166 147/497/166 150/498/166
f 151/499/167 152/500/167 147/501/167
f 147/502/168 153/503/168 154/504/168
f 153/505/169 147/506/169 148/507/169
f 155/508/170 148/509/170 107/510/170
f 148/511/171 156/512/171 153/513/171
f 157/514/172 156/515/172 148/516/172
f 148/517/173 155/518/173 157/519/173
f 158/520/174 159/521/174 153/522/174
f 153/523/175 12/524/175 160/525/175
f 12/526/176 153/527/176 156/528/176
f 157/529/177 13/530/177 156/531/177
f 13/532/178 12/533/178 156/534/178
f 13/535/179 157/536/179 161/537/179
f 162/538/180 161/539/180 157/540/180
f 157/541/181 163/542/181 162/543/181
f 163/544/182 157/545/182 155/546/182
f 107/547/183 164/548/183 155/549/183
f 163/550/184 155/551/184 164/552/184
f 164/553/185 165/554/185 163/555/185
f 102/556/186 164/557/186 107/558/186
f 100/559/187 165/560/187 164/561/187
f 164/562/188 102/563/188 100/564/188
f 166/565/189 165/566/189 167/567/189
f 165/568/190 168/569/190 169/570/190
f 169/571/191 167/572/191 165/573/191
f 170/574/192 165/575/192 166/576/192
f 165/577/193 170/578/193 171/579/193
f 171/580/194 172/581/194 165/582/194
f 167/583/195 173/584/195 166/585/195
f 166/586/196 174/587/196 170/588/196
f 173/589/197 167/590/197 169/591/197
f 175/592/198 169/593/198 176/594/198
f 169/595/199 175/596/199 173/597/199
f 176/598/200 177/599/200 175/600/200
f 171/601/201 170/602/201 174/603/201
f 178/604/202 171/605/202 179/606/202
f 174/607/203 179/608/203 171/609/203
f 179/610/204 180/611/204 178/612/204
f 181/613/205 182/614/205 183/615/205
f 182/616/206 184/617/206 183/618/206
f 183/619/207 185/620/207 181/621/207
f 186/622/208 187/623/208 184/624/208
f 187/625/209 188/626/209 184/627/209
f 189/628/210 184/629/210 188/630/210
f 190/631/211 191/632/211 184/633/211
f 186/634/212 184/635/212 192/636/212
f 192/637/213 184/638/213 193/639/213
f 193/640/214 184/641/214 194/642/214
f 191/643/215 190/644/215 195/645/215
f 195/646/216 196/647/216 191/648/216
f 194/649/217 197/650/217 193/651/217
f 198/652/218 199/653/218 193/654/218
f 193/655/219 199/656/219 200/657/219
f 200/658/220 192/659/220 193/660/220
f 201/661/221 186/662/221 192/663/221
f 192/664/222 200/665/222 201/666/222
f 200/667/223 199/668/223 202/669/223
f 203/670/224 204/671/224 200/672/224
f 201/673/225 200/674/225 204/675/225
f 205/676/226 203/677/226 199/678/226
f 206/679/227 203/680/227 198/681/227
f 207/682/228 208/683/228 206/684/228
f 204/685/229 209/686/229 210/687/229
f 210/688/230 211/689/230 204/690/230
f 204/691/231 211/692/231 201/693/231
f 212/694/232 211/695/232 213/696/232
f 201/697/233 211/698/233 212/699/233
f 213/700/234 214/701/234 212/702/234
f 215/703/235 212/704/235 216/705/235
f 212/706/236 215/707/236 201/708/236
f 217/709/237 218/710/237 215/711/237
f 188/712/238 187/713/238 215/714/238
f 215/715/239 218/716/239 188/717/239
f 201/718/240 215/719/240 187/720/240
f 219/721/241 218/722/241 216/723/241
f 220/724/242 188/725/242 218/726/242
f 220/727/243 216/728/243 221/729/243
f 221/730/244 222/731/244 223/732/244
f 188/733/245 224/734/245 189/735/245
f 187/736/246 186/737/246 201/738/246
f 225/739/247 226/740/247 227/741/247
f 226/742/248 225/743/248 228/744/248
f 227/745/249 229/746/249 225/747/249
f 230/748/250 228/749/250 231/750/250
f 231/751/251 228/752/251 232/753/251
f 232/754/252 228/755/252 233/756/252
f 234/757/253 228/758/253 235/759/253
f 230/760/254 236/761/254 228/762/254
f 236/763/255 237/764/255 228/765/255
f 238/766/256 228/767/256 237/768/256
f 239/769/257 234/770/257 235/771/257
f 235/772/258 240/773/258 239/774/258
f 237/775/259 241/776/259 238/777/259
f 242/778/260 237/779/260 243/780/260
f 237/781/261 236/782/261 244/783/261
f 244/784/262 243/785/262 237/786/262
f 245/787/263 244/788/263 236/789/263
f 236/790/264 230/791/264 245/792/264
f 244/793/265 246/794/265 247/795/265
f 248/796/266 243/797/266 244/798/266
f 246/799/267 244/800/267 245/801/267
f 249/802/268 243/803/268 247/804/268
f 242/805/269 247/806/269 250/807/269
f 250/808/270 251/809/270 252/810/270
f 253/811/271 254/812/271 245/813/271
f 245/814/272 255/815/272 253/816/272
f 245/817/273 230/818/273 231/819/273
f 231/820/274 255/821/274 245/822/274
f 245/823/275 254/824/275 246/825/275
f 246/826/276 254/827/276 256/828/276
f 256/829/277 257/830/277 246/831/277
f 258/832/278 254/833/278 253/834/278
f 253/835/279 259/836/279 258/837/279
f 260/838/280 253/839/280 255/840/280
f 255/841/281 261/842/281 262/843/281
f 232/844/282 261/845/282 255/846/282
f 255/847/283 231/848/283 232/849/283
f 263/850/284 260/851/284 261/852/284
f 264/853/285 261/854/285 232/855/285
f 265/856/286 260/857/286 264/858/286
f 266/859/287 267/860/287 265/861/287
f 233/862/288 268/863/288 232/864/288
f 269/865/289 270/866/289 271/867/289
f 271/868/290 272/869/290 269/870/290
f 271/871/291 270/872/291 273/873/291
f 182/874/292 272/875/292 271/876/292
f 271/877/293 184/878/293 182/879/293
f 273/880/294 274/881/294 271/882/294
f 190/883/295 184/884/295 271/885/295
f 271/886/296 274/887/296 190/888/296
f 275/889/297 276/890/297 277/891/297
f 277/892/298 278/893/298 275/894/298
f 277/895/299 276/896/299 226/897/299
f 226/898/300 228/899/300 277/900/300
f 279/901/301 278/902/301 277/903/301
f 277/904/302 280/905/302 279/906/302
f 234/907/303 280/908/303 277/909/303
f 277/910/304 228/911/304 234/912/304
f 281/913/305 282/914/305 283/915/305
f 283/916/306 284/917/306 281/918/306
f 285/919/307 281/920/307 284/921/307
f 282/922/308 286/923/308 287/924/308
f 287/925/309 283/926/309 282/927/309
f 286/928/310 288/929/310 289/930/310
f 289/931/311 287/932/311 286/933/311
f 288/934/312 290/935/312 291/936/312
f 291/937/313 289/938/313 288/939/313
f 290/940/314 285/941/314 292/942/314
f 292/943/315 291/944/315 290/945/315
f 284/946/316 292/947/316 285/948/316
f 293/949/317 294/950/317 295/951/317
f 293/952/318 295/953/318 296/954/318
f 297/955/319 293/956/319 296/957/319
f 295/958/320 298/959/320 296/960/320
f 299/961/321 300/962/321 301/963/321
f 301/964/322 302/965/322 299/966/322
f 303/967/323 299/968/323 302/969/323
f 300/970/324 304/971/324 305/972/324
f 305/973/325 301/974/325 300/975/325
f 304/976/326 306/977/326 307/978/326
f 307/979/327 305/980/327 304/981/327
f 306/982/328 308/983/328 309/984/328
f 309/985/329 307/986/329 306/987/329
f 308/988/330 303/989/330 310/990/330
f 310/991/331 309/992/331 308/993/331
f 302/994/332 310/995/332 303/996/332