# Made in Blockbench 5.0.7
mtllib tree.mtl

o mesh
v 0.1875 3 0.125
v 0.1875 0 0.125
v 0.1875 3 -0.125
v 0.1875 0 -0.125
v -0.1875 3 0.125
v -0.1875 3 -0.125
v -0.1875 0 0.125
v -0.1875 0 -0.125
vt 0.15625 0.578125
vt 0.125 0.578125
vt 0.125 0.203125
vt 0.15625 0.578125
vt 0.125 0.203125
vt 0.15625 0.203125
vt 0.1953125 0.203125
vt 0.1953125 0.578125
vt 0.1640625 0.578125
vt 0.1953125 0.203125
vt 0.1640625 0.578125
vt 0.1640625 0.203125
vt 0 0.5859375
vt 0.046875 0.5859375
vt 0.046875 0.6171875
vt 0 0.5859375
vt 0.046875 0.6171875
vt 0 0.6171875
vt 0.1015625 0.5859375
vt 0.1015625 0.6171875
vt 0.0546875 0.6171875
vt 0.1015625 0.5859375
vt 0.0546875 0.6171875
vt 0.0546875 0.5859375
vt 0.046875 0.625
vt 0.046875 1
vt 0 1
vt 0.046875 0.625
vt 0 1
vt 0 0.625
vt 0.1015625 1
vt 0.0546875 1
vt 0.0546875 0.625
vt 0.1015625 1
vt 0.0546875 0.625
vt 0.1015625 0.625
vn 1 0 0
vn 1 0 0
vn -1 0 0
vn -1 0 0
vn 0 1 0
vn 0 1 0
vn 0 -1 0
vn 0 -1 0
vn 0 0 1
vn 0 0 1
vn 0 0 -1
vn 0 0 -1
usemtl m_026aef2f-9afb-22cd-a8ac-bd8c302ffb56
f 3/1/1 1/2/1 2/3/1
f 3/4/2 2/5/2 4/6/2
f 7/7/3 5/8/3 6/9/3
f 7/10/4 6/11/4 8/12/4
f 5/13/5 1/14/5 3/15/5
f 5/16/6 3/17/6 6/18/6
f 4/19/7 2/20/7 7/21/7
f 4/22/8 7/23/8 8/24/8
f 2/25/9 1/26/9 5/27/9
f 2/28/10 5/29/10 7/30/10
f 6/31/11 3/32/11 4/33/11
f 6/34/12 4/35/12 8/36/12
o cube
v 0.1875 3.125 0.125
v 0.1875 3.125 -0.125
v 0.1875 3 0.125
v 0.1875 3 -0.125
v -0.1875 3.125 -0.125
v -0.1875 3.125 0.125
v -0.1875 3 -0.125
v -0.1875 3 0.125
vt 0.4140625 0.7734375
vt 0.4140625 0.7578125
vt 0.4453125 0.7734375
vt 0.4140625 0.7578125
vt 0.4453125 0.7578125
vt 0.4453125 0.7734375
vt 0.625 0.5625
vt 0.625 0.546875
vt 0.65625 0.5625
vt 0.625 0.546875
vt 0.65625 0.546875
vt 0.65625 0.5625
vt 0.6875 0.78125
vt 0.6875 0.8125
vt 0.640625 0.78125
vt 0.6875 0.8125
vt 0.640625 0.8125
vt 0.640625 0.78125
vt 0.5859375 0.359375
vt 0.5859375 0.328125
vt 0.5390625 0.359375
vt 0.5859375 0.328125
vt 0.5390625 0.328125
vt 0.5390625 0.359375
vt 0.5625 0.6640625
vt 0.5625 0.6484375
vt 0.609375 0.6640625
vt 0.5625 0.6484375
vt 0.609375 0.6484375
vt 0.609375 0.6640625
vt 0.359375 0.7734375
vt 0.359375 0.7578125
vt 0.40625 0.7734375
vt 0.359375 0.7578125
vt 0.40625 0.7578125
vt 0.40625 0.7734375
vn 1 0 0
vn 1 0 0
vn -1 0 0
vn -1 0 0
vn 0 1 0
vn 0 1 0
vn 0 -1 0
vn 0 -1 0
vn 0 0 1
vn 0 0 1
vn 0 0 -1
vn 0 0 -1
usemtl m_026aef2f-9afb-22cd-a8ac-bd8c302ffb56
f 9/37/13 11/38/13 10/39/13
f 11/40/14 12/41/14 10/42/14
f 13/43/15 15/44/15 14/45/15
f 15/46/16 16/47/16 14/48/16
f 13/49/17 14/50/17 10/51/17
f 14/52/18 9/53/18 10/54/18
f 16/55/19 15/56/19 11/57/19
f 15/58/20 12/59/20 11/60/20
f 14/61/21 16/62/21 9/63/21
f 16/64/22 11/65/22 9/66/22
f 10/67/23 12/68/23 13/69/23
f 12/70/24 15/71/24 13/72/24
o cube
v 0.375 3.1875 -0.125
v 0.375 3.1875 -1.1875
v 0.375 2.8125 -0.125
v 0.375 2.8125 -1.1875
v -0.4375 3.1875 -1.1875
v -0.4375 3.1875 -0.125
v -0.4375 2.8125 -1.1875
v -0.4375 2.8125 -0.125
vt 0.4453125 0.5234375
vt 0.4453125 0.4765625
vt 0.578125 0.5234375
vt 0.4453125 0.4765625
vt 0.578125 0.4765625
vt 0.578125 0.5234375
vt 0.484375 0.640625
vt 0.484375 0.59375
vt 0.6171875 0.640625
vt 0.484375 0.59375
vt 0.6171875 0.59375
vt 0.6171875 0.640625
vt 0.3359375 0.6171875
vt 0.3359375 0.75
vt 0.234375 0.6171875
vt 0.3359375 0.75
vt 0.234375 0.75
vt 0.234375 0.6171875
vt 0.2109375 0.71875
vt 0.2109375 0.5859375
vt 0.109375 0.71875
vt 0.2109375 0.5859375
vt 0.109375 0.5859375
vt 0.109375 0.71875
vt 0 0.4140625
vt 0 0.3671875
vt 0.1015625 0.4140625
vt 0 0.3671875
vt 0.1015625 0.3671875
vt 0.1015625 0.4140625
vn 1 0 0
vn 1 0 0
vn -1 0 0
vn -1 0 0
vn 0 1 0
vn 0 1 0
vn 0 -1 0
vn 0 -1 0
vn 0 0 -1
vn 0 0 -1
usemtl m_026aef2f-9afb-22cd-a8ac-bd8c302ffb56
f 17/73/25 19/74/25 18/75/25
f 19/76/26 20/77/26 18/78/26
f 21/79/27 23/80/27 22/81/27
f 23/82/28 24/83/28 22/84/28
f 21/85/29 22/86/29 18/87/29
f 22/88/30 17/89/30 18/90/30
f 24/91/31 23/92/31 19/93/31
f 23/94/32 20/95/32 19/96/32
f 18/97/33 20/98/33 21/99/33
f 20/100/34 23/101/34 21/102/34
o cube
v -0.125 3.1875 0.5625
v -0.125 3.1875 -0.25
v -0.125 2.875 0.5625
v -0.125 2.875 -0.25
v -1.0625 3.1875 -0.25
v -1.0625 3.1875 0.5625
v -1.0625 2.875 -0.25
v -1.0625 2.875 0.5625
vt 0.4296875 0.359375
vt 0.4296875 0.3203125
vt 0.53125 0.359375
vt 0.4296875 0.3203125
vt 0.53125 0.3203125
vt 0.53125 0.359375
vt 0.3359375 0.5078125
vt 0.3359375 0.609375
vt 0.21875 0.5078125
vt 0.3359375 0.609375
vt 0.21875 0.609375
vt 0.21875 0.5078125
vt 0.1171875 0.578125
vt 0.1171875 0.4765625
vt 0 0.578125
vt 0.1171875 0.4765625
vt 0 0.4765625
vt 0 0.578125
vt 0.5546875 0.40625
vt 0.5546875 0.3671875
vt 0.671875 0.40625
vt 0.5546875 0.3671875
vt 0.671875 0.3671875
vt 0.671875 0.40625
vt 0.5859375 0.53125
vt 0.5859375 0.4921875
vt 0.703125 0.53125
vt 0.5859375 0.4921875
vt 0.703125 0.4921875
vt 0.703125 0.53125
vn -1 0 0
vn -1 0 0
vn 0 1 0
vn 0 1 0
vn 0 -1 0
vn 0 -1 0
vn 0 0 1
vn 0 0 1
vn 0 0 -1
vn 0 0 -1
usemtl m_026aef2f-9afb-22cd-a8ac-bd8c302ffb56
f 29/103/35 31/104/35 30/105/35
f 31/106/36 32/107/36 30/108/36
f 29/109/37 30/110/37 26/111/37
f 30/112/38 25/113/38 26/114/38
f 32/115/39 31/116/39 27/117/39
f 31/118/40 28/119/40 27/120/40
f 30/121/41 32/122/41 25/123/41
f 32/124/42 27/125/42 25/126/42
f 26/127/43 28/128/43 29/129/43
f 28/130/44 31/131/44 29/132/44
o cube
v 0.875 3.25 1.125
v 0.875 3.25 0.0625
v 0.875 2.9375 1.125
v 0.875 2.9375 0.0625
v -0.0625 3.25 0.0625
v -0.0625 3.25 1.125
v -0.0625 2.9375 0.0625
v -0.0625 2.9375 1.125
vt 0.5 0.8203125
vt 0.5 0.78125
vt 0.6328125 0.8203125
vt 0.5 0.78125
vt 0.6328125 0.78125
vt 0.6328125 0.8203125
vt 0.5625 0.7734375
vt 0.5625 0.734375
vt 0.6953125 0.7734375
vt 0.5625 0.734375
vt 0.6953125 0.734375
vt 0.6953125 0.7734375
vt 0.2265625 0.8671875
vt 0.2265625 1
vt 0.109375 0.8671875
vt 0.2265625 1
vt 0.109375 1
vt 0.109375 0.8671875
vt 0.2265625 0.859375
vt 0.2265625 0.7265625
vt 0.109375 0.859375
vt 0.2265625 0.7265625
vt 0.109375 0.7265625
vt 0.109375 0.859375
vt 0.609375 0.953125
vt 0.609375 0.9140625
vt 0.7265625 0.953125
vt 0.609375 0.9140625
vt 0.7265625 0.9140625
vt 0.7265625 0.953125
vn 1 0 0
vn 1 0 0
vn -1 0 0
vn -1 0 0
vn 0 1 0
vn 0 1 0
vn 0 -1 0
vn 0 -1 0
vn 0 0 1
vn 0 0 1
usemtl m_026aef2f-9afb-22cd-a8ac-bd8c302ffb56
f 33/133/45 35/134/45 34/135/45
f 35/136/46 36/137/46 34/138/46
f 37/139/47 39/140/47 38/141/47
f 39/142/48 40/143/48 38/144/48
f 37/145/49 38/146/49 34/147/49
f 38/148/50 33/149/50 34/150/50
f 40/151/51 39/152/51 35/153/51
f 39/154/52 36/155/52 35/156/52
f 38/157/53 40/158/53 33/159/53
f 40/160/54 35/161/54 33/162/54
o cube
v 1.3125 3.25 0.25
v 1.3125 3.25 -0.5
v 1.3125 2.875 0.25
v 1.3125 2.875 -0.5
v 0.25 3.25 -0.5
v 0.25 3.25 0.25
v 0.25 2.875 -0.5
v 0.25 2.875 0.25
vt 0.328125 0.390625
vt 0.328125 0.34375
vt 0.421875 0.390625
vt 0.328125 0.34375
vt 0.421875 0.34375
vt 0.421875 0.390625
vt 0.625 0.6171875
vt 0.625 0.5703125
vt 0.71875 0.6171875
vt 0.625 0.5703125
vt 0.71875 0.5703125
vt 0.71875 0.6171875
vt 0.4921875 0.78125
vt 0.4921875 0.875
vt 0.359375 0.78125
vt 0.4921875 0.875
vt 0.359375 0.875
vt 0.359375 0.78125
vt 0.4765625 0.625
vt 0.4765625 0.53125
vt 0.34375 0.625
vt 0.4765625 0.53125
vt 0.34375 0.53125
vt 0.34375 0.625
vt 0.5 0.875
vt 0.5 0.828125
vt 0.6328125 0.875
vt 0.5 0.828125
vt 0.6328125 0.828125
vt 0.6328125 0.875
vt 0.484375 0.5859375
vt 0.484375 0.5390625
vt 0.6171875 0.5859375
vt 0.484375 0.5390625
vt 0.6171875 0.5390625
vt 0.6171875 0.5859375
vn 1 0 0
vn 1 0 0
vn -1 0 0
vn -1 0 0
vn 0 1 0
vn 0 1 0
vn 0 -1 0
vn 0 -1 0
vn 0 0 1
vn 0 0 1
vn 0 0 -1
vn 0 0 -1
usemtl m_026aef2f-9afb-22cd-a8ac-bd8c302ffb56
f 41/163/55 43/164/55 42/165/55
f 43/166/56 44/167/56 42/168/56
f 45/169/57 47/170/57 46/171/57
f 47/172/58 48/173/58 46/174/58
f 45/175/59 46/176/59 42/177/59
f 46/178/60 41/179/60 42/180/60
f 48/181/61 47/182/61 43/183/61
f 47/184/62 44/185/62 43/186/62
f 46/187/63 48/188/63 41/189/63
f 48/190/64 43/191/64 41/192/64
f 42/193/65 44/194/65 45/195/65
f 44/196/66 47/197/66 45/198/66
o cube
v 0.625 3.384459913296168 0.027870119646472458
v 0.625 3.9932213423048886 -0.7654832206447627
v 0.625 3.0373678269187527 -0.23846300554484284
v 0.625 3.646129255927473 -1.031816345836078
v -0.125 3.9932213423048886 -0.7654832206447627
v -0.125 3.384459913296168 0.027870119646472458
v -0.125 3.646129255927473 -1.031816345836078
v -0.125 3.0373678269187527 -0.23846300554484284
vt 0.4765625 1
vt 0.4765625 0.9453125
vt 0.6015625 1
vt 0.4765625 0.9453125
vt 0.6015625 0.9453125
vt 0.6015625 1
vt 0.4765625 0.9375
vt 0.4765625 0.8828125
vt 0.6015625 0.9375
vt 0.4765625 0.8828125
vt 0.6015625 0.8828125
vt 0.6015625 0.9375
vt 0.5546875 0.6484375
vt 0.5546875 0.7734375
vt 0.4609375 0.6484375
vt 0.5546875 0.7734375
vt 0.4609375 0.7734375
vt 0.4609375 0.6484375
vt 0.4375 0.5234375
vt 0.4375 0.3984375
vt 0.34375 0.5234375
vt 0.4375 0.3984375
vt 0.34375 0.3984375
vt 0.34375 0.5234375
vt 0.5625 0.7265625
vt 0.5625 0.671875
vt 0.65625 0.7265625
vt 0.5625 0.671875
vt 0.65625 0.671875
vt 0.65625 0.7265625
vn 1 0 0
vn 1 0 0
vn -1 0 0
vn -1 0 0
vn 0 0.7933533402912352 0.6087614290087207
vn 0 0.7933533402912352 0.6087614290087207
vn 0 -0.7933533402912352 -0.6087614290087207
vn 0 -0.7933533402912352 -0.6087614290087207
vn 0 0.6087614290087207 -0.7933533402912352
vn 0 0.6087614290087207 -0.7933533402912352
usemtl m_026aef2f-9afb-22cd-a8ac-bd8c302ffb56
f 49/199/67 51/200/67 50/201/67
f 51/202/68 52/203/68 50/204/68
f 53/205/69 55/206/69 54/207/69
f 55/208/70 56/209/70 54/210/70
f 53/211/71 54/212/71 50/213/71
f 54/214/72 49/215/72 50/216/72
f 56/217/73 55/218/73 51/219/73
f 55/220/74 52/221/74 51/222/74
f 50/223/75 52/224/75 53/225/75
f 52/226/76 55/227/76 53/228/76
o cube
v 0.6875 4.068152199616448 0.5963488379268532
v 0.6875 3.3001971580955183 0.05862092884774739
v 0.6875 3.8530610359848056 0.9035308545352251
v 0.6875 3.085105994463876 0.36580294545611924
v -0.25 3.3001971580955183 0.05862092884774739
v -0.25 4.068152199616448 0.5963488379268532
v -0.25 3.085105994463876 0.36580294545611924
v -0.25 3.8530610359848056 0.9035308545352251
vt 0 0.46875
vt 0 0.421875
vt 0.1171875 0.46875
vt 0 0.421875
vt 0.1171875 0.421875
vt 0.1171875 0.46875
vt 0.203125 0.4453125
vt 0.203125 0.3984375
vt 0.3203125 0.4453125
vt 0.203125 0.3984375
vt 0.3203125 0.3984375
vt 0.3203125 0.4453125
vt 0.3515625 0.8828125
vt 0.3515625 1
vt 0.234375 0.8828125
vt 0.3515625 1
vt 0.234375 1
vt 0.234375 0.8828125
vt 0.3515625 0.875
vt 0.3515625 0.7578125
vt 0.234375 0.875
vt 0.3515625 0.7578125
vt 0.234375 0.7578125
vt 0.234375 0.875
vt 0.4453125 0.46875
vt 0.4453125 0.421875
vt 0.5625 0.46875
vt 0.4453125 0.421875
vt 0.5625 0.421875
vt 0.5625 0.46875
vn 1 0 0
vn 1 0 0
vn -1 0 0
vn -1 0 0
vn 0 0.5735764363510463 -0.8191520442889917
vn 0 0.5735764363510463 -0.8191520442889917
vn 0 -0.5735764363510463 0.8191520442889917
vn 0 -0.5735764363510463 0.8191520442889917
vn 0 0.8191520442889917 0.5735764363510463
vn 0 0.8191520442889917 0.5735764363510463
usemtl m_026aef2f-9afb-22cd-a8ac-bd8c302ffb56
f 57/229/77 59/230/77 58/231/77
f 59/232/78 60/233/78 58/234/78
f 61/235/79 63/236/79 62/237/79
f 63/238/80 64/239/80 62/240/80
f 61/241/81 62/242/81 58/243/81
f 62/244/82 57/245/82 58/246/82
f 64/247/83 63/248/83 59/249/83
f 63/250/84 60/251/84 59/252/84
f 62/253/85 64/254/85 57/255/85
f 64/256/86 59/257/86 57/258/86
o cube
v -0.0748990588163097 3.2895528398972913 0.375
v -0.0748990588163097 3.2895528398972913 -0.5625
v -0.28602099869620345 3.0591536721441273 0.375
v -0.28602099869620345 3.0591536721441273 -0.5625
v -0.7200167285251684 3.880694271560994 -0.5625
v -0.7200167285251684 3.880694271560994 0.375
v -0.9311386684050621 3.65029510380783 -0.5625
v -0.9311386684050621 3.65029510380783 0.375
vt 0.203125 0.390625
vt 0.203125 0.3515625
vt 0.3203125 0.390625
vt 0.625 0.6640625
vt 0.625 0.625
vt 0.7421875 0.6640625
vt 0.625 0.625
vt 0.7421875 0.625
vt 0.7421875 0.6640625
vt 0.453125 0.6328125
vt 0.453125 0.75
vt 0.34375 0.6328125
vt 0.453125 0.75
vt 0.34375 0.75
vt 0.34375 0.6328125
vt 0.46875 1
vt 0.46875 0.8828125
vt 0.359375 1
vt 0.46875 0.8828125
vt 0.359375 0.8828125
vt 0.359375 1
vt 0.640625 0.90625
vt 0.640625 0.8671875
vt 0.75 0.90625
vt 0.640625 0.8671875
vt 0.75 0.8671875
vt 0.75 0.90625
vt 0 0.359375
vt 0 0.3203125
vt 0.109375 0.359375
vt 0 0.3203125
vt 0.109375 0.3203125
vt 0.109375 0.359375
vn 0.7372773368101243 -0.6755902076156601 0
vn -0.7372773368101243 0.6755902076156601 0
vn -0.7372773368101243 0.6755902076156601 0
vn 0.6755902076156601 0.7372773368101243 0
vn 0.6755902076156601 0.7372773368101243 0
vn -0.6755902076156601 -0.7372773368101243 0
vn -0.6755902076156601 -0.7372773368101243 0
vn 0 0 1
vn 0 0 1
vn 0 0 -1
vn 0 0 -1
usemtl m_026aef2f-9afb-22cd-a8ac-bd8c302ffb56
f 65/259/87 67/260/87 66/261/87
f 69/262/88 71/263/88 70/264/88
f 71/265/89 72/266/89 70/267/89
f 69/268/90 70/269/90 66/270/90
f 70/271/91 65/272/91 66/273/91
f 72/274/92 71/275/92 67/276/92
f 71/277/93 68/278/93 67/279/93
f 70/280/94 72/281/94 65/282/94
f 72/283/95 67/284/95 65/285/95
f 66/286/96 68/287/96 69/288/96
f 68/289/97 71/290/97 69/291/97