# Made in Blockbench 5.0.7
mtllib collision.mtl

o cube
v 0.0625 0.125 0.0625
v 0.0625 0.125 -0.0625
v 0.0625 0 0.0625
v 0.0625 0 -0.0625
v -0.0625 0.125 -0.0625
v -0.0625 0.125 0.0625
v -0.0625 0 -0.0625
v -0.0625 0 0.0625
vt 0 1
vt 0.125 1
vt 0.125 0.875
vt 0 0.875
vt 0 1
vt 0.125 1
vt 0.125 0.875
vt 0 0.875
vt 0 1
vt 0.125 1
vt 0.125 0.875
vt 0 0.875
vt 0 1
vt 0.125 1
vt 0.125 0.875
vt 0 0.875
vt 0 1
vt 0.125 1
vt 0.125 0.875
vt 0 0.875
vt 0 1
vt 0.125 1
vt 0.125 0.875
vt 0 0.875
vn 0 0 -1
vn 1 0 0
vn 0 0 1
vn -1 0 0
vn 0 1 0
vn 0 -1 0
usemtl none
f 4/4/1 7/3/1 5/2/1 2/1/1
f 3/8/2 4/7/2 2/6/2 1/5/2
f 8/12/3 3/11/3 1/10/3 6/9/3
f 7/16/4 8/15/4 6/14/4 5/13/4
f 6/20/5 1/19/5 2/18/5 5/17/5
f 7/24/6 4/23/6 3/22/6 8/21/6
o cube
v -0.8125 1.2312500000000002 1.125
v -0.6875 0.25 0.625
v -0.6875 1.3125 0.625
v -0.6875 1.2312500000000002 1.125
v -0.6875 0.25 1.125
v -0.8125 0.25 1.125
v -0.8125 1.2218749999999998 1.125
v -0.8125 1.2312499999999997 1.125
v 0.875 1.2312499999999997 1.1249999999999998
v 0.875 1.2218749999999998 1.1249999999999998
v 0.875 0.25 1.1249999999999998
v -0.8125 0.1875 1.125
v -0.8125000000000002 0.25 -1.0689102564102564
v -0.8125000000000002 0.1875 -1.0689102564102564
v 0.8749999999999998 0.1875 -1.0689102564102564
v 0.8749999999999998 0.25 -1.0689102564102564
v 0.875 0.1875 1.1249999999999998
v -0.8125000000000002 0.1875 -1.125
v 0.8749999999999998 0.1875 -1.125
v 0.8749999999999998 0.25 0.6249999999999998
v 0.8749999999999998 1.3125 0.6249999999999998
v 0.8749999999999998 1.3125 -1.2125000000000001
v 0.8749999999999998 0.25 -1.2125000000000001
v -0.8125000000000002 0.25 0.625
v -0.8125000000000002 1.3125 0.625
v -0.8125000000000002 1.3125 -1.2125000000000012
v -0.8125000000000002 0.25 -1.2125000000000012
v -0.8250000000000001 1.1957777334996043 1.1732019737258637
v -0.8250000000000001 1.2438787026261298 1.1926676517266785
v -0.8250000000000003 1.6296461356892722 -0.5225415904481299
v -0.8250000000000003 1.581545166562747 -0.47950726844894476
v 0.8874999999999998 1.581545166562747 -0.47950726844894476
v 0.8874999999999998 1.6296461356892722 -0.5225415904481299
v 0.8875000000000001 1.2438787026261298 1.1926676517266783
v 0.8875000000000001 1.1957777334996043 1.1732019737258634
v 0.75 0.25 1.1249999999999998
v 0.75 1.2312500000000002 1.1249999999999998
v 0.75 1.3125 0.6249999999999998
v 0.75 0.25 0.6249999999999998
v 0.875 1.2312500000000002 1.1249999999999998
vt 0.703125 0.8671875
vt 0.703125 0.98984375
vt 0.640625 1
vt 0.640625 0.8671875
vt 0.703125 0.734375
vt 0.703125 0.8671875
vt 0.640625 0.85703125
vt 0.640625 0.734375
vt 0.515625 0.3359375
vt 0.515625 0.2734375
vt 0.53125 0.2734375
vt 0.53125 0.3359375
vt 0.4921875 0.2109375
vt 0.4921875 0.33476562499999996
vt 0.484375 0.3359375
vt 0.5 0.3359375
vt 0.4921875 0.33476562499999996
vt 0.4921875 0.2109375
vt 0.421875 0.28125
vt 0.421875 0.40625
vt 0.2109375 0.40625
vt 0.2109375 0.28125
vt 0.84375 0.34375
vt 0.84375 0.46875
vt 0.6328125 0.46875
vt 0.6328125 0.34375
vt 0.6328125 0.3359375
vt 0.6328125 0.46875
vt 0.421875 0.46875
vt 0.421875 0.3359375
vt 0.2109375 0.2734375
vt 0.2109375 0.40625
vt 0 0.40625
vt 0 0.2734375
vt 0.984375 0.7265625
vt 0.984375 0.734375
vt 0.6953125 0.734375
vt 0.6953125 0.7265625
vt 0.9921875 0.9609375
vt 0.9921875 0.96875
vt 0.703125 0.96875
vt 0.703125 0.9609375
vt 0.2109375 0.40625
vt 0.2109375 0.6953125
vt 0 0.6953125
vt 0 0.40625
vt 0.421875 0.40625
vt 0.421875 0.6953125
vt 0.2109375 0.6953125
vt 0.2109375 0.40625
vt 0.9140625 0.953125
vt 0.9140625 0.9609375
vt 0.703125 0.9609375
vt 0.703125 0.953125
vt 0.9140625 0.9453125
vt 0.9140625 0.953125
vt 0.703125 0.953125
vt 0.703125 0.9453125
vt 0.53125 0.3359375
vt 0.53125 0.328125
vt 0.546875 0.328125
vt 0.546875 0.3359375
vt 0.5625 0.328125
vt 0.5625 0.3359375
vt 0.546875 0.3359375
vt 0.546875 0.328125
vt 0.859375 0.3125
vt 0.6484375 0.3125
vt 0.6484375 0.296875
vt 0.859375 0.296875
vt 0.640625 0.8671875
vt 0.640625 1
vt 0.421875 1
vt 0.421875 0.8671875
vt 0.640625 0.734375
vt 0.640625 0.8671875
vt 0.421875 0.8671875
vt 0.421875 0.734375
vt 0.640625 0.6015625
vt 0.640625 0.734375
vt 0.421875 0.734375
vt 0.421875 0.6015625
vt 0.640625 0.46875
vt 0.640625 0.6015625
vt 0.421875 0.6015625
vt 0.421875 0.46875
vt 0.6328125 0.0390625
vt 0.6484375 0.0390625
vt 0.6484375 0.34375
vt 0.6328125 0.34375
vt 0.953125 0.328125
vt 0.953125 0.34375
vt 0.6484375 0.34375
vt 0.6484375 0.328125
vt 0 1
vt 0 0.6953125
vt 0.2109375 0.6953125
vt 0.2109375 1
vt 0.421875 0.6953125
vt 0.421875 1
vt 0.2109375 1
vt 0.2109375 0.6953125
vt 0.9140625 0.96875
vt 0.9140625 0.984375
vt 0.703125 0.984375
vt 0.703125 0.96875
vt 0.9140625 0.984375
vt 0.9140625 1
vt 0.703125 1
vt 0.703125 0.984375
vt 0.703125 0.6015625
vt 0.703125 0.72421875
vt 0.640625 0.734375
vt 0.640625 0.6015625
vt 0.703125 0.46875
vt 0.703125 0.6015625
vt 0.640625 0.59140625
vt 0.640625 0.46875
vt 0.5 0.3359375
vt 0.5 0.2734375
vt 0.515625 0.2734375
vt 0.515625 0.3359375
vn -1 0 4.440892098500626e-16
vn 1 0 0
vn 0 0.9870527346239432 0.1603960693763904
vn 0 0 0
vn 0 0 0
vn -1.3158198810372227e-16 0 -1
vn 1.3158198810372225e-16 0 1
vn 6.579099405186112e-16 0 -1
vn -6.579099405186112e-16 0 1
vn -1 0 1.0120952043332325e-16
vn 1 0 -1.0120952043332325e-16
vn 0 1 0
vn 0 -1 0
vn 3.8240238545687217e-16 -0.8137334712067389 -0.5812381937190909
vn 1.3158198810372225e-16 0 1
vn -1 0 0
vn 1 0 0
vn 0 -1 0
vn -1 0 0
vn 1 0 0
vn -1 0 0
vn 1 0 0
vn -1 -4.8018343153753966e-17 1.186564804703404e-16
vn 1 -1.4499622060051748e-16 -1.6206735476628186e-16
vn 3.687627630057101e-17 0.9756285908212953 0.21942846846308217
vn 0 -0.9738235683974229 -0.227305208109515
vn 0 -0.6667657118530724 -0.7452673919453779
vn 1.1956899244674015e-16 -0.3751304655277125 0.926972024298987
vn -1 0 0
vn 1 0 -4.440892098500626e-16
vn 0 0.9870527346239432 0.1603960693763904
usemtl none
f 14/25/7 9/26/7 33/27/7 32/28/7
f 10/29/8 11/30/8 12/31/8 13/32/8
f 33/33/9 9/34/9 12/35/9 11/36/9
f 14/37/10 15/38/10 16/39/10
f 17/40/11 18/41/11 19/42/11
f 14/43/12 16/44/12 17/45/12 19/46/12
f 19/47/13 18/48/13 15/49/13 14/50/13
f 35/51/14 34/52/14 30/53/14 31/54/14
f 31/55/15 30/56/15 34/57/15 35/58/15
f 20/59/16 14/60/16 21/61/16 22/62/16
f 23/63/17 24/64/17 19/65/17 25/66/17
f 21/67/18 14/68/18 19/69/18 24/70/18
f 20/71/19 22/72/19 23/73/19 25/74/19
f 26/75/20 35/76/20 31/77/20 27/78/20
f 25/79/21 19/80/21 14/81/21 20/82/21
f 35/83/22 26/84/22 22/85/22 21/86/22
f 27/87/23 31/88/23 24/89/23 23/90/23
f 26/91/24 27/92/24 23/93/24 22/94/24
f 28/95/25 29/96/25 30/97/25 31/98/25
f 31/99/26 30/100/26 29/101/26 28/102/26
f 32/103/27 33/104/27 34/105/27 35/106/27
f 35/107/28 34/108/28 33/109/28 32/110/28
f 36/111/29 37/112/29 38/113/29 39/114/29
f 40/115/30 41/116/30 42/117/30 43/118/30
f 38/119/31 37/120/31 42/121/31 41/122/31
f 36/123/32 39/124/32 40/125/32 43/126/32
f 39/127/33 38/128/33 41/129/33 40/130/33
f 43/131/34 42/132/34 37/133/34 36/134/34
f 44/135/35 45/136/35 46/137/35 47/138/35
f 28/139/36 29/140/36 48/141/36 19/142/36
f 46/143/37 45/144/37 48/145/37 29/146/37