# Made in Blockbench 5.0.7
mtllib model.mtl

o cube
v -0.8125 0.25 1.125
v -0.8125 1.4187500000000002 1.125
v -0.8125 0.25 0.625
v -0.6875 0.25 0.625
v -0.6875 1.4187500000000002 1.125
v -0.6875 0.25 1.125
v -0.8125 0.25 1.1875
v -0.8125 1.4093749999999998 1.1875
v -0.8125 0.25 1.125
v 0.875 0.25 1.1249999999999998
v 0.875 1.4093749999999998 1.1874999999999998
v 0.875 0.25 1.1874999999999998
v -0.8125000000000002 0.25 -1.125
v -0.8125000000000002 1.5 -1.25
v -0.8125000000000002 0.25 -1.25
v 0.8749999999999998 0.25 -1.25
v 0.8749999999999998 1.5 -1.25
v 0.8749999999999998 1.5 -1.125
v 0.8749999999999998 0.25 -1.125
v -0.8125 0.1875 1.1875
v -0.8125 0.25 1.1875
v -0.8125000000000002 0.25 -1.125
v -0.8125000000000002 0.1875 -1.125
v 0.8749999999999998 0.1875 -1.125
v 0.8749999999999998 0.25 -1.125
v 0.875 0.25 1.1874999999999998
v 0.875 0.1875 1.1874999999999998
v -0.8125000000000002 0.1875 -1.25
v -0.8125000000000002 0.25 -1.25
v 0.8749999999999998 0.25 -1.25
v 0.8749999999999998 0.1875 -1.25
v 0.75 0.25 0.6249999999999998
v 0.75 1.5 0.6249999999999998
v 0.7499999999999998 1.5 -1.125
v 0.7499999999999998 0.25 -1.125
v 0.8749999999999998 0.25 -1.125
v 0.875 1.5 0.6249999999999998
v 0.875 0.25 0.6249999999999998
v -0.8125 0.25 0.625
v -0.8125 1.5 0.625
v -0.8125000000000002 1.5 -1.125
v -0.8125000000000002 0.25 -1.125
v -0.6875000000000002 0.25 -1.125
v -0.6875000000000002 1.5 -1.125
v -0.6875 1.5 0.625
v -0.6875 0.25 0.625
v -0.8250000000000001 1.3645277334996044 1.2982019737258637
v -0.8250000000000001 1.4876287026261306 1.3176676517266785
v -0.8250000000000003 1.9108961356892733 -0.8350415904481299
v -0.8250000000000003 1.7877951665627472 -0.8545072684489448
v 0.8874999999999998 1.7877951665627472 -0.8545072684489448
v 0.8874999999999998 1.9108961356892733 -0.8350415904481299
v 0.8875000000000001 1.4876287026261306 1.3176676517266783
v 0.8875000000000001 1.3645277334996044 1.2982019737258634
v 0.75 0.25 1.1249999999999998
v 0.75 1.4187500000000002 1.1249999999999998
v 0.75 0.25 0.6249999999999998
v 0.875 0.25 0.6249999999999998
v 0.875 1.4187500000000002 1.1249999999999998
v 0.875 0.25 1.1249999999999998
vt 0.703125 0.8671875
vt 0.703125 0.98984375
vt 0.640625 1
vt 0.640625 0.8671875
vt 0.703125 0.734375
vt 0.703125 0.8671875
vt 0.640625 0.85703125
vt 0.640625 0.734375
vt 0.515625 0.3359375
vt 0.515625 0.2734375
vt 0.53125 0.2734375
vt 0.53125 0.3359375
vt 0.4921875 0.2109375
vt 0.4921875 0.33476562499999996
vt 0.484375 0.3359375
vt 0.484375 0.2109375
vt 0.5 0.2109375
vt 0.5 0.3359375
vt 0.4921875 0.33476562499999996
vt 0.4921875 0.2109375
vt 0.421875 0.28125
vt 0.421875 0.40625
vt 0.2109375 0.40625
vt 0.2109375 0.28125
vt 0.84375 0.34375
vt 0.84375 0.46875
vt 0.6328125 0.46875
vt 0.6328125 0.34375
vt 0.46875 0.203125
vt 0.46875 0.3359375
vt 0.453125 0.3359375
vt 0.453125 0.203125
vt 0.484375 0.203125
vt 0.484375 0.3359375
vt 0.46875 0.3359375
vt 0.46875 0.203125
vt 0.859375 0.3125
vt 0.859375 0.328125
vt 0.6484375 0.328125
vt 0.6484375 0.3125
vt 0.6328125 0.3359375
vt 0.6328125 0.46875
vt 0.421875 0.46875
vt 0.421875 0.3359375
vt 0.2109375 0.2734375
vt 0.2109375 0.40625
vt 0 0.40625
vt 0 0.2734375
vt 0.984375 0.7265625
vt 0.984375 0.734375
vt 0.6953125 0.734375
vt 0.6953125 0.7265625
vt 0.9921875 0.9609375
vt 0.9921875 0.96875
vt 0.703125 0.96875
vt 0.703125 0.9609375
vt 0.2109375 0.40625
vt 0.2109375 0.6953125
vt 0 0.6953125
vt 0 0.40625
vt 0.421875 0.40625
vt 0.421875 0.6953125
vt 0.2109375 0.6953125
vt 0.2109375 0.40625
vt 0.9140625 0.953125
vt 0.9140625 0.9609375
vt 0.703125 0.9609375
vt 0.703125 0.953125
vt 0.9140625 0.9453125
vt 0.9140625 0.953125
vt 0.703125 0.953125
vt 0.703125 0.9453125
vt 0.53125 0.3359375
vt 0.53125 0.328125
vt 0.546875 0.328125
vt 0.546875 0.3359375
vt 0.5625 0.328125
vt 0.5625 0.3359375
vt 0.546875 0.3359375
vt 0.546875 0.328125
vt 0.859375 0.3125
vt 0.6484375 0.3125
vt 0.6484375 0.296875
vt 0.859375 0.296875
vt 0.640625 0.8671875
vt 0.640625 1
vt 0.421875 1
vt 0.421875 0.8671875
vt 0.640625 0.734375
vt 0.640625 0.8671875
vt 0.421875 0.8671875
vt 0.421875 0.734375
vt 0.4375 0.1171875
vt 0.4375 0.3359375
vt 0.421875 0.3359375
vt 0.421875 0.1171875
vt 0.640625 0.6015625
vt 0.640625 0.734375
vt 0.421875 0.734375
vt 0.421875 0.6015625
vt 0.640625 0.46875
vt 0.640625 0.6015625
vt 0.421875 0.6015625
vt 0.421875 0.46875
vt 0.453125 0.1171875
vt 0.453125 0.3359375
vt 0.4375 0.3359375
vt 0.4375 0.1171875
vt 0.6328125 0.0390625
vt 0.6484375 0.0390625
vt 0.6484375 0.34375
vt 0.6328125 0.34375
vt 0.953125 0.328125
vt 0.953125 0.34375
vt 0.6484375 0.34375
vt 0.6484375 0.328125
vt 0 1
vt 0 0.6953125
vt 0.2109375 0.6953125
vt 0.2109375 1
vt 0.421875 0.6953125
vt 0.421875 1
vt 0.2109375 1
vt 0.2109375 0.6953125
vt 0.9140625 0.96875
vt 0.9140625 0.984375
vt 0.703125 0.984375
vt 0.703125 0.96875
vt 0.9140625 0.984375
vt 0.9140625 1
vt 0.703125 1
vt 0.703125 0.984375
vt 0.703125 0.6015625
vt 0.703125 0.72421875
vt 0.640625 0.734375
vt 0.640625 0.6015625
vt 0.703125 0.46875
vt 0.703125 0.6015625
vt 0.640625 0.59140625
vt 0.640625 0.46875
vt 0.5 0.3359375
vt 0.5 0.2734375
vt 0.515625 0.2734375
vt 0.515625 0.3359375
vn -1 0 0
vn 1 0 0
vn 0 0.9870527346239432 0.1603960693763904
vn -1 0 0
vn 1 0 0
vn -1.3158198810372225e-16 0 -1
vn 1.3158198810372225e-16 0 1
vn -1 0 0
vn 1 0 0
vn 0 1 0
vn 0 0 -1
vn 0 0 1
vn -1 0 9.601928861622976e-17
vn 1 0 -9.601928861622976e-17
vn 0 1 0
vn 0 -1 0
vn 0 0 -1
vn 1.3158198810372225e-16 0 1
vn -1 0 0
vn 1 0 0
vn 0 -1 0
vn -1 0 1.268826313857322e-16
vn 1 0 -1.268826313857322e-16
vn 0 1 0
vn -1 0 1.2688263138573217e-16
vn 1 0 -1.2688263138573217e-16
vn 0 1 0
vn -1 -1.5818519387078985e-17 1.0003633403442954e-16
vn 1 1.5818519387078988e-17 -1.0003633403442957e-16
vn 2.9550009491537835e-17 0.9812131286364968 0.19292691930204478
vn 0 -0.9812131286364968 -0.19292691930204478
vn 0 0.15618711467311006 -0.9877274852964704
vn 1.3004549895806932e-16 -0.15618711467311006 0.9877274852964704
vn -1 0 0
vn 1 0 0
vn 0 0.9870527346239432 0.1603960693763904
usemtl m_3123629a-d8fc-35fa-b72c-c8c3d1093ddd
f 1/1/1 2/2/1 40/3/1 3/4/1
f 4/5/2 45/6/2 5/7/2 6/8/2
f 40/9/3 2/10/3 5/11/3 45/12/3
f 7/13/4 8/14/4 2/15/4 9/16/4
f 10/17/5 59/18/5 11/19/5 12/20/5
f 9/21/6 2/22/6 59/23/6 10/24/6
f 12/25/7 11/26/7 8/27/7 7/28/7
f 13/29/8 41/30/8 14/31/8 15/32/8
f 16/33/9 17/34/9 18/35/9 19/36/9
f 14/37/10 41/38/10 18/39/10 17/40/10
f 15/41/11 14/42/11 17/43/11 16/44/11
f 19/45/12 18/46/12 41/47/12 13/48/12
f 20/49/13 21/50/13 22/51/13 23/52/13
f 24/53/14 25/54/14 26/55/14 27/56/14
f 22/57/15 21/58/15 26/59/15 25/60/15
f 20/61/16 23/62/16 24/63/16 27/64/16
f 28/65/17 29/66/17 30/67/17 31/68/17
f 27/69/18 26/70/18 21/71/18 20/72/18
f 29/73/19 28/74/19 23/75/19 22/76/19
f 31/77/20 30/78/20 25/79/20 24/80/20
f 28/81/21 31/82/21 24/83/21 23/84/21
f 32/85/22 33/86/22 34/87/22 35/88/22
f 36/89/23 18/90/23 37/91/23 38/92/23
f 34/93/24 33/94/24 37/95/24 18/96/24
f 39/97/25 40/98/25 41/99/25 42/100/25
f 43/101/26 44/102/26 45/103/26 46/104/26
f 41/105/27 40/106/27 45/107/27 44/108/27
f 47/109/28 48/110/28 49/111/28 50/112/28
f 51/113/29 52/114/29 53/115/29 54/116/29
f 49/117/30 48/118/30 53/119/30 52/120/30
f 47/121/31 50/122/31 51/123/31 54/124/31
f 50/125/32 49/126/32 52/127/32 51/128/32
f 54/129/33 53/130/33 48/131/33 47/132/33
f 55/133/34 56/134/34 33/135/34 57/136/34
f 58/137/35 37/138/35 59/139/35 60/140/35
f 33/141/36 56/142/36 59/143/36 37/144/36
o cylinder
v 0.7562500000000004 0.07023118305278073 -0.7790202895061682
v 0.7562500000000001 0.18577957079530988 -0.7403583397915072
v 0.7562500000000001 0.18750000000000014 -0.9375
v 0.8812500000000004 0.07023118305278103 -0.7790202895061682
v 0.8812500000000002 0.18577957079531018 -0.7403583397915072
v 0.8812500000000001 0.18750000000000044 -0.9375
v 0.7562500000000005 -0.0005245024364003148 -0.8782161021022294
v 0.8812500000000005 -0.0005245024364000095 -0.8782161021022296
v 0.7562500000000005 0.0005387812873362263 -1.0000563487096608
v 0.8812500000000005 0.0005387812873365316 -1.0000563487096608
v 0.7562500000000003 0.0730148959812075 -1.0980021963220923
v 0.8812500000000004 0.07301489598120779 -1.0980021963220923
v 0.7562500000000001 0.18922042920469045 -1.1346416602084928
v 0.8812500000000001 0.18922042920469076 -1.134641660208493
v 0.7562499999999999 0.3047688169472195 -1.0959797104938318
v 0.8812499999999999 0.3047688169472198 -1.095979710493832
v 0.7562499999999996 0.37552450243640056 -0.9967838978977706
v 0.8812499999999996 0.3755245024364009 -0.9967838978977706
v 0.7562499999999996 0.374461218712664 -0.8749436512903392
v 0.8812499999999998 0.37446121871266436 -0.8749436512903394
v 0.7562499999999999 0.3019851040187928 -0.7769978036779078
v 0.8812499999999999 0.3019851040187931 -0.7769978036779078
vt 0.8560719687736671 0.8515625
vt 0.851365282410449 0.8660476705413531
vt 0.8314280312263329 0.8515625
vt 0.859375 0.78125
vt 0.875 0.78125
vt 0.875 0.796875
vt 0.859375 0.796875
vt 0.8130698580385474 0.8269187553496709
vt 0.8275551419614526 0.8316250927585922
vt 0.8130698580385474 0.8515625
vt 0.887321875 0.8515625
vt 0.882615625 0.86604765625
vt 0.862678125 0.8515625
vt 0.828125 0.7890625
vt 0.84375 0.7890625
vt 0.84375 0.8046875
vt 0.828125 0.8046875
vt 0.866990625 0.82145234375
vt 0.871696875 0.8359375
vt 0.847053125 0.8359375
vt 0.890428125 0.8359375
vt 0.895134375 0.85042265625
vt 0.870490625 0.85042265625
vt 0.890625 0.8515625
vt 0.90625 0.8515625
vt 0.90625 0.8671875
vt 0.890625 0.8671875
vt 0.895134375 0.81363984375
vt 0.890428125 0.828125
vt 0.870490625 0.81363984375
vt 0.8286948580385474 0.8203125
vt 0.8431801419614526 0.8250188374089213
vt 0.8286948580385474 0.8449562446503291
vt 0.84375 0.78125
vt 0.859375 0.78125
vt 0.859375 0.796875
vt 0.84375 0.796875
vt 0.8638844687736671 0.8370773294586469
vt 0.859177782410449 0.8515625
vt 0.8392405312263329 0.8370773294586469
vt 0.8001781276748354 0.8972982215062173
vt 0.804885021449589 0.8828125
vt 0.8248218723251646 0.8972982215062173
vt 0.875 0.796875
vt 0.890625 0.796875
vt 0.890625 0.8125
vt 0.875 0.8125
vt 0.8353678607531086 0.8702931062252465
vt 0.8208821392468914 0.875
vt 0.8208821392468914 0.8503562553496709
vt 0.8361344650837568 0.8972977839229053
vt 0.8314281276748354 0.8828125
vt 0.8560718723251646 0.8828125
vt 0.8984375 0.875
vt 0.9140625 0.875
vt 0.9140625 0.890625
vt 0.8984375 0.890625
vt 0.8119301419614526 0.8359375
vt 0.7974448580385474 0.8312311625910787
vt 0.8119301419614526 0.8112937553496709
vt 0.878303125 0.89729765625
vt 0.883009375 0.8828125
vt 0.902946875 0.89729765625
vt 0.890625 0.796875
vt 0.90625 0.796875
vt 0.90625 0.8125
vt 0.890625 0.8125
vt 0.820509375 0.8203125
vt 0.815803125 0.80582734375
vt 0.840446875 0.80582734375
vt 0.883009375 0.88167265625
vt 0.878303125 0.8671875
vt 0.902946875 0.8671875
vt 0.8125 0.7890625
vt 0.828125 0.7890625
vt 0.828125 0.8046875
vt 0.8125 0.8046875
vt 0.847053125 0.8125
vt 0.851759375 0.79801484375
vt 0.871696875 0.8125
vt 0.8744301419614526 0.8918312446503291
vt 0.8599448580385474 0.8871249072414078
vt 0.8744301419614526 0.8671875
vt 0.8984375 0.8359375
vt 0.9140625 0.8359375
vt 0.9140625 0.8515625
vt 0.8984375 0.8515625
vt 0.8439469650837568 0.8828125
vt 0.8392406276748354 0.8683272160770947
vt 0.8638843723251646 0.8683272160770947
vt 0.8119303607531086 0.8558743508755755
vt 0.7974446392468914 0.8605812446503291
vt 0.7974446392468914 0.8359375
vt 0.796875 0.7890625
vt 0.8125 0.7890625
vt 0.8125 0.8046875
vt 0.796875 0.8046875
vt 0.8001781276748354 0.8828125
vt 0.804885021449589 0.8683267784937827
vt 0.8248218723251646 0.8828125
vn -1 -2.874096301350335e-15 -2.5081858439794085e-17
vn 7.972801959457439e-16 -0.3173046564050921 0.9483236552061993
vn 1 2.1039462997598006e-15 -5.447991646703299e-16
vn -1 -2.216309670684661e-15 4.616546439269452e-16
vn 2.5057377586866262e-15 -0.8141155183563189 0.5807029557109403
vn 1 2.2163096706846614e-15 -4.616546439269449e-16
vn -1 -2.3683856015664894e-15 -2.0668588022408273e-17
vn 2.4416706000838405e-15 -0.9999619230641714 -0.008726535498374271
vn 1 2.3683856015664894e-15 2.066858802240829e-17
vn -1 -2.511914753339871e-15 4.082948295979393e-16
vn 1.879303319014966e-15 -0.8038568606172175 -0.5948227867513414
vn 1 2.2079151315074074e-15 5.002642688522713e-16
vn -1 -1.9160642009002223e-15 -1.6721238959863162e-17
vn -9.111773667951358e-16 -0.30070579950427195 -0.9537169507482275
vn 1 2.8740963013503332e-15 2.5081858439794578e-17
vn -1 -1.9160642009002243e-15 -1.672123895986318e-17
vn -2.391840587837234e-15 0.31730465640509237 -0.9483236552061994
vn 1 1.916064200900225e-15 1.6721238959863168e-17
vn -1 -2.5044064492438203e-15 -4.520716015288683e-16
vn -2.1640462461384498e-15 0.8141155183563189 -0.5807029557109403
vn 1 2.50440644924382e-15 4.520716015288666e-16
vn -1 -2.3683856015664894e-15 -2.0668588022408273e-17
vn -2.6570074387209695e-15 0.9999619230641713 0.008726535498374271
vn 1 2.0802888230073306e-15 -8.930576574334053e-16
vn -1 -2.5119147533398716e-15 4.0829482959794056e-16
vn -1.765406148165577e-15 0.8038568606172172 0.5948227867513415
vn 1 1.7319362540886714e-15 1.4805842702665099e-16
vn -1 -1.9160642009002227e-15 -1.6721238959862626e-17
vn -7.40331610521047e-16 0.30070579950427284 0.953716950748227
vn 1 2.696042700151423e-15 -5.396320176647279e-16
usemtl m_3123629a-d8fc-35fa-b72c-c8c3d1093ddd
f 61/145/37 62/146/37 63/147/37
f 62/148/38 61/149/38 64/150/38 65/151/38
f 65/152/39 64/153/39 66/154/39
f 67/155/40 61/156/40 63/157/40
f 61/158/41 67/159/41 68/160/41 64/161/41
f 64/162/42 68/163/42 66/164/42
f 69/165/43 67/166/43 63/167/43
f 67/168/44 69/169/44 70/170/44 68/171/44
f 68/172/45 70/173/45 66/174/45
f 71/175/46 69/176/46 63/177/46
f 69/178/47 71/179/47 72/180/47 70/181/47
f 70/182/48 72/183/48 66/184/48
f 73/185/49 71/186/49 63/187/49
f 71/188/50 73/189/50 74/190/50 72/191/50
f 72/192/51 74/193/51 66/194/51
f 75/195/52 73/196/52 63/197/52
f 73/198/53 75/199/53 76/200/53 74/201/53
f 74/202/54 76/203/54 66/204/54
f 77/205/55 75/206/55 63/207/55
f 75/208/56 77/209/56 78/210/56 76/211/56
f 76/212/57 78/213/57 66/214/57
f 79/215/58 77/216/58 63/217/58
f 77/218/59 79/219/59 80/220/59 78/221/59
f 78/222/60 80/223/60 66/224/60
f 81/225/61 79/226/61 63/227/61
f 79/228/62 81/229/62 82/230/62 80/231/62
f 80/232/63 82/233/63 66/234/63
f 62/235/64 81/236/64 63/237/64
f 81/238/65 62/239/65 65/240/65 82/241/65
f 82/242/66 65/243/66 66/244/66
o cylinder
v 0.7562500000000003 0.07023118305278085 1.0334797104938318
v 0.7562500000000001 0.18577957079530993 1.0721416602084928
v 0.7562500000000001 0.1875000000000001 0.875
v 0.8812500000000003 0.07023118305278107 1.0334797104938318
v 0.8812500000000001 0.18577957079531018 1.0721416602084928
v 0.8812500000000001 0.1875000000000004 0.875
v 0.7562500000000004 -0.000524502436400176 0.9342838978977706
v 0.8812500000000004 -0.000524502436399954 0.9342838978977706
v 0.7562500000000004 0.0005387812873363373 0.8124436512903392
v 0.8812500000000004 0.0005387812873365594 0.8124436512903392
v 0.7562500000000003 0.0730148959812075 0.7144978036779077
v 0.8812500000000002 0.07301489598120775 0.7144978036779077
v 0.7562500000000001 0.18922042920469037 0.6778583397915071
v 0.88125 0.18922042920469062 0.6778583397915071
v 0.7562499999999999 0.30476881694721936 0.7165202895061681
v 0.8812499999999998 0.30476881694721963 0.7165202895061681
v 0.7562499999999996 0.37552450243640045 0.8157161021022294
v 0.8812499999999996 0.3755245024364007 0.8157161021022294
v 0.7562499999999998 0.3744612187126639 0.9375563487096608
v 0.8812499999999996 0.37446121871266425 0.9375563487096608
v 0.7562499999999999 0.30198510401879275 1.0355021963220923
v 0.8812499999999999 0.301985104018793 1.0355021963220923
vt 0.8560719687736671 0.8515625
vt 0.851365282410449 0.8660476705413531
vt 0.8314280312263329 0.8515625
vt 0.859375 0.78125
vt 0.875 0.78125
vt 0.875 0.796875
vt 0.859375 0.796875
vt 0.8130698580385474 0.8269187553496709
vt 0.8275551419614526 0.8316250927585922
vt 0.8130698580385474 0.8515625
vt 0.887321875 0.8515625
vt 0.882615625 0.86604765625
vt 0.862678125 0.8515625
vt 0.828125 0.7890625
vt 0.84375 0.7890625
vt 0.84375 0.8046875
vt 0.828125 0.8046875
vt 0.866990625 0.82145234375
vt 0.871696875 0.8359375
vt 0.847053125 0.8359375
vt 0.890428125 0.8359375
vt 0.895134375 0.85042265625
vt 0.870490625 0.85042265625
vt 0.890625 0.8515625
vt 0.90625 0.8515625
vt 0.90625 0.8671875
vt 0.890625 0.8671875
vt 0.895134375 0.81363984375
vt 0.890428125 0.828125
vt 0.870490625 0.81363984375
vt 0.8286948580385474 0.8203125
vt 0.8431801419614526 0.8250188374089213
vt 0.8286948580385474 0.8449562446503291
vt 0.84375 0.78125
vt 0.859375 0.78125
vt 0.859375 0.796875
vt 0.84375 0.796875
vt 0.8638844687736671 0.8370773294586469
vt 0.859177782410449 0.8515625
vt 0.8392405312263329 0.8370773294586469
vt 0.8001781276748354 0.8972982215062173
vt 0.804885021449589 0.8828125
vt 0.8248218723251646 0.8972982215062173
vt 0.875 0.796875
vt 0.890625 0.796875
vt 0.890625 0.8125
vt 0.875 0.8125
vt 0.8353678607531086 0.8702931062252465
vt 0.8208821392468914 0.875
vt 0.8208821392468914 0.8503562553496709
vt 0.8361344650837568 0.8972977839229053
vt 0.8314281276748354 0.8828125
vt 0.8560718723251646 0.8828125
vt 0.8984375 0.875
vt 0.9140625 0.875
vt 0.9140625 0.890625
vt 0.8984375 0.890625
vt 0.8119301419614526 0.8359375
vt 0.7974448580385474 0.8312311625910787
vt 0.8119301419614526 0.8112937553496709
vt 0.878303125 0.89729765625
vt 0.883009375 0.8828125
vt 0.902946875 0.89729765625
vt 0.890625 0.796875
vt 0.90625 0.796875
vt 0.90625 0.8125
vt 0.890625 0.8125
vt 0.820509375 0.8203125
vt 0.815803125 0.80582734375
vt 0.840446875 0.80582734375
vt 0.883009375 0.88167265625
vt 0.878303125 0.8671875
vt 0.902946875 0.8671875
vt 0.8125 0.7890625
vt 0.828125 0.7890625
vt 0.828125 0.8046875
vt 0.8125 0.8046875
vt 0.847053125 0.8125
vt 0.851759375 0.79801484375
vt 0.871696875 0.8125
vt 0.8744301419614526 0.8918312446503291
vt 0.8599448580385474 0.8871249072414078
vt 0.8744301419614526 0.8671875
vt 0.8984375 0.8359375
vt 0.9140625 0.8359375
vt 0.9140625 0.8515625
vt 0.8984375 0.8515625
vt 0.8439469650837568 0.8828125
vt 0.8392406276748354 0.8683272160770947
vt 0.8638843723251646 0.8683272160770947
vt 0.8119303607531086 0.8558743508755755
vt 0.7974446392468914 0.8605812446503291
vt 0.7974446392468914 0.8359375
vt 0.796875 0.7890625
vt 0.8125 0.7890625
vt 0.8125 0.8046875
vt 0.796875 0.8046875
vt 0.8001781276748354 0.8828125
vt 0.804885021449589 0.8683267784937827
vt 0.8248218723251646 0.8828125
vn -1 -1.916064200900225e-15 -1.6721238959861837e-17
vn 5.694858542469603e-16 -0.3173046564050923 0.9483236552061993
vn 1 1.916064200900224e-15 1.67212389598621e-17
vn -1 -1.7342564476532869e-15 1.178094215812561e-16
vn 1.4237146356174012e-15 -0.8141155183563189 0.5807029557109402
vn 1 1.7342564476532867e-15 -1.1780942158125587e-16
vn -1 -1.7762892011748686e-15 -1.5501441016805812e-17
vn 1.7760840079327063e-15 -0.9999619230641714 -0.008726535498374044
vn 1 1.776289201174868e-15 1.5501441016805806e-17
vn -1 -1.731936254088673e-15 -1.4805842702665015e-16
vn 1.5945603918914902e-15 -0.8038568606172178 -0.5948227867513409
vn 1 2.0359358759211364e-15 -7.6050067142356065e-16
vn -1 -1.9160642009002235e-15 -1.6721238959862626e-17
vn 6.264344396716565e-16 -0.3007057995042729 -0.953716950748227
vn 1 1.7380105997013111e-15 -5.479926371446591e-16
vn -1 -1.9160642009002262e-15 -1.6721238959862647e-17
vn -6.833830250963534e-16 0.3173046564050925 -0.9483236552061992
vn 1 2.103946299759803e-15 -5.4479916467032995e-16
vn -1 -2.5044064492438207e-15 -4.520716015288662e-16
vn -1.4237146356174e-15 0.8141155183563191 -0.5807029557109402
vn 1 2.216309670684663e-15 -4.616546439269459e-16
vn -1 -2.0802888230073318e-15 8.930576574334044e-16
vn -2.6659056551935833e-15 0.9999619230641713 0.008726535498374273
vn 1 2.368385601566491e-15 2.0668588022406128e-17
vn -1 -1.7319362540886726e-15 -1.4805842702664995e-16
vn -1.7654061481655765e-15 0.8038568606172178 0.5948227867513408
vn 1 2.511914753339872e-15 -4.0829482959793997e-16
vn -1 -1.9160642009002243e-15 -1.672123895986183e-17
vn -6.264344396716564e-16 0.30070579950427223 0.9537169507482273
vn 1 1.916064200900224e-15 1.6721238959862096e-17
usemtl m_3123629a-d8fc-35fa-b72c-c8c3d1093ddd
f 83/245/67 84/246/67 85/247/67
f 84/248/68 83/249/68 86/250/68 87/251/68
f 87/252/69 86/253/69 88/254/69
f 89/255/70 83/256/70 85/257/70
f 83/258/71 89/259/71 90/260/71 86/261/71
f 86/262/72 90/263/72 88/264/72
f 91/265/73 89/266/73 85/267/73
f 89/268/74 91/269/74 92/270/74 90/271/74
f 90/272/75 92/273/75 88/274/75
f 93/275/76 91/276/76 85/277/76
f 91/278/77 93/279/77 94/280/77 92/281/77
f 92/282/78 94/283/78 88/284/78
f 95/285/79 93/286/79 85/287/79
f 93/288/80 95/289/80 96/290/80 94/291/80
f 94/292/81 96/293/81 88/294/81
f 97/295/82 95/296/82 85/297/82
f 95/298/83 97/299/83 98/300/83 96/301/83
f 96/302/84 98/303/84 88/304/84
f 99/305/85 97/306/85 85/307/85
f 97/308/86 99/309/86 100/310/86 98/311/86
f 98/312/87 100/313/87 88/314/87
f 101/315/88 99/316/88 85/317/88
f 99/318/89 101/319/89 102/320/89 100/321/89
f 100/322/90 102/323/90 88/324/90
f 103/325/91 101/326/91 85/327/91
f 101/328/92 103/329/92 104/330/92 102/331/92
f 102/332/93 104/333/93 88/334/93
f 84/335/94 103/336/94 85/337/94
f 103/338/95 84/339/95 87/340/95 104/341/95
f 104/342/96 87/343/96 88/344/96
o cylinder
v -0.8187499999999996 0.07023118305278085 1.0334797104938318
v -0.8187499999999999 0.18577957079530993 1.0721416602084928
v -0.8187499999999999 0.1875000000000001 0.875
v -0.6937499999999996 0.07023118305278107 1.0334797104938318
v -0.6937499999999999 0.18577957079531018 1.0721416602084928
v -0.6937499999999999 0.1875000000000004 0.875
v -0.8187499999999995 -0.000524502436400176 0.9342838978977706
v -0.6937499999999995 -0.000524502436399954 0.9342838978977706
v -0.8187499999999995 0.0005387812873363373 0.8124436512903392
v -0.6937499999999995 0.0005387812873365594 0.8124436512903392
v -0.8187499999999996 0.0730148959812075 0.7144978036779077
v -0.6937499999999998 0.07301489598120775 0.7144978036779077
v -0.8187499999999999 0.18922042920469037 0.6778583397915071
v -0.69375 0.18922042920469062 0.6778583397915071
v -0.8187500000000001 0.30476881694721936 0.7165202895061681
v -0.6937500000000002 0.30476881694721963 0.7165202895061681
v -0.8187500000000003 0.37552450243640045 0.8157161021022294
v -0.6937500000000003 0.3755245024364007 0.8157161021022294
v -0.8187500000000002 0.3744612187126639 0.9375563487096608
v -0.6937500000000003 0.37446121871266425 0.9375563487096608
v -0.8187500000000001 0.30198510401879275 1.0355021963220923
v -0.6937500000000001 0.301985104018793 1.0355021963220923
vt 0.8560719687736671 0.8515625
vt 0.851365282410449 0.8660476705413531
vt 0.8314280312263329 0.8515625
vt 0.859375 0.78125
vt 0.875 0.78125
vt 0.875 0.796875
vt 0.859375 0.796875
vt 0.8130698580385474 0.8269187553496709
vt 0.8275551419614526 0.8316250927585922
vt 0.8130698580385474 0.8515625
vt 0.887321875 0.8515625
vt 0.882615625 0.86604765625
vt 0.862678125 0.8515625
vt 0.828125 0.7890625
vt 0.84375 0.7890625
vt 0.84375 0.8046875
vt 0.828125 0.8046875
vt 0.866990625 0.82145234375
vt 0.871696875 0.8359375
vt 0.847053125 0.8359375
vt 0.890428125 0.8359375
vt 0.895134375 0.85042265625
vt 0.870490625 0.85042265625
vt 0.890625 0.8515625
vt 0.90625 0.8515625
vt 0.90625 0.8671875
vt 0.890625 0.8671875
vt 0.895134375 0.81363984375
vt 0.890428125 0.828125
vt 0.870490625 0.81363984375
vt 0.8286948580385474 0.8203125
vt 0.8431801419614526 0.8250188374089213
vt 0.8286948580385474 0.8449562446503291
vt 0.84375 0.78125
vt 0.859375 0.78125
vt 0.859375 0.796875
vt 0.84375 0.796875
vt 0.8638844687736671 0.8370773294586469
vt 0.859177782410449 0.8515625
vt 0.8392405312263329 0.8370773294586469
vt 0.8001781276748354 0.8972982215062173
vt 0.804885021449589 0.8828125
vt 0.8248218723251646 0.8972982215062173
vt 0.875 0.796875
vt 0.890625 0.796875
vt 0.890625 0.8125
vt 0.875 0.8125
vt 0.8353678607531086 0.8702931062252465
vt 0.8208821392468914 0.875
vt 0.8208821392468914 0.8503562553496709
vt 0.8361344650837568 0.8972977839229053
vt 0.8314281276748354 0.8828125
vt 0.8560718723251646 0.8828125
vt 0.8984375 0.875
vt 0.9140625 0.875
vt 0.9140625 0.890625
vt 0.8984375 0.890625
vt 0.8119301419614526 0.8359375
vt 0.7974448580385474 0.8312311625910787
vt 0.8119301419614526 0.8112937553496709
vt 0.878303125 0.89729765625
vt 0.883009375 0.8828125
vt 0.902946875 0.89729765625
vt 0.890625 0.796875
vt 0.90625 0.796875
vt 0.90625 0.8125
vt 0.890625 0.8125
vt 0.820509375 0.8203125
vt 0.815803125 0.80582734375
vt 0.840446875 0.80582734375
vt 0.883009375 0.88167265625
vt 0.878303125 0.8671875
vt 0.902946875 0.8671875
vt 0.8125 0.7890625
vt 0.828125 0.7890625
vt 0.828125 0.8046875
vt 0.8125 0.8046875
vt 0.847053125 0.8125
vt 0.851759375 0.79801484375
vt 0.871696875 0.8125
vt 0.8744301419614526 0.8918312446503291
vt 0.8599448580385474 0.8871249072414078
vt 0.8744301419614526 0.8671875
vt 0.8984375 0.8359375
vt 0.9140625 0.8359375
vt 0.9140625 0.8515625
vt 0.8984375 0.8515625
vt 0.8439469650837568 0.8828125
vt 0.8392406276748354 0.8683272160770947
vt 0.8638843723251646 0.8683272160770947
vt 0.8119303607531086 0.8558743508755755
vt 0.7974446392468914 0.8605812446503291
vt 0.7974446392468914 0.8359375
vt 0.796875 0.7890625
vt 0.8125 0.7890625
vt 0.8125 0.8046875
vt 0.796875 0.8046875
vt 0.8001781276748354 0.8828125
vt 0.804885021449589 0.8683267784937827
vt 0.8248218723251646 0.8828125
vn -1 -1.916064200900225e-15 -1.6721238959861837e-17
vn 5.694858542469603e-16 -0.3173046564050923 0.9483236552061993
vn 1 1.916064200900224e-15 1.67212389598621e-17
vn -1 -1.7342564476532869e-15 1.178094215812561e-16
vn 1.4237146356174012e-15 -0.8141155183563189 0.5807029557109402
vn 1 1.7342564476532867e-15 -1.1780942158125587e-16
vn -1 -1.7762892011748686e-15 -1.5501441016805812e-17
vn 1.7760840079327063e-15 -0.9999619230641714 -0.008726535498374044
vn 1 1.776289201174868e-15 1.5501441016805806e-17
vn -1 -1.731936254088673e-15 -1.4805842702665015e-16
vn 1.5945603918914902e-15 -0.8038568606172178 -0.5948227867513409
vn 1 2.0359358759211364e-15 -7.6050067142356065e-16
vn -1 -1.9160642009002235e-15 -1.6721238959862626e-17
vn 6.264344396716565e-16 -0.3007057995042729 -0.953716950748227
vn 1 1.7380105997013111e-15 -5.479926371446591e-16
vn -1 -1.9160642009002262e-15 -1.6721238959862647e-17
vn -6.833830250963534e-16 0.3173046564050925 -0.9483236552061992
vn 1 2.103946299759803e-15 -5.4479916467032995e-16
vn -1 -2.5044064492438207e-15 -4.520716015288662e-16
vn -1.4237146356174e-15 0.8141155183563191 -0.5807029557109402
vn 1 2.216309670684663e-15 -4.616546439269459e-16
vn -1 -2.0802888230073318e-15 8.930576574334044e-16
vn -2.6659056551935833e-15 0.9999619230641713 0.008726535498374273
vn 1 2.368385601566491e-15 2.0668588022406128e-17
vn -1 -1.7319362540886726e-15 -1.4805842702664995e-16
vn -1.7654061481655765e-15 0.8038568606172178 0.5948227867513408
vn 1 2.511914753339872e-15 -4.0829482959793997e-16
vn -1 -1.9160642009002243e-15 -1.672123895986183e-17
vn -6.264344396716564e-16 0.30070579950427223 0.9537169507482273
vn 1 1.916064200900224e-15 1.6721238959862096e-17
usemtl m_3123629a-d8fc-35fa-b72c-c8c3d1093ddd
f 105/345/97 106/346/97 107/347/97
f 106/348/98 105/349/98 108/350/98 109/351/98
f 109/352/99 108/353/99 110/354/99
f 111/355/100 105/356/100 107/357/100
f 105/358/101 111/359/101 112/360/101 108/361/101
f 108/362/102 112/363/102 110/364/102
f 113/365/103 111/366/103 107/367/103
f 111/368/104 113/369/104 114/370/104 112/371/104
f 112/372/105 114/373/105 110/374/105
f 115/375/106 113/376/106 107/377/106
f 113/378/107 115/379/107 116/380/107 114/381/107
f 114/382/108 116/383/108 110/384/108
f 117/385/109 115/386/109 107/387/109
f 115/388/110 117/389/110 118/390/110 116/391/110
f 116/392/111 118/393/111 110/394/111
f 119/395/112 117/396/112 107/397/112
f 117/398/113 119/399/113 120/400/113 118/401/113
f 118/402/114 120/403/114 110/404/114
f 121/405/115 119/406/115 107/407/115
f 119/408/116 121/409/116 122/410/116 120/411/116
f 120/412/117 122/413/117 110/414/117
f 123/415/118 121/416/118 107/417/118
f 121/418/119 123/419/119 124/420/119 122/421/119
f 122/422/120 124/423/120 110/424/120
f 125/425/121 123/426/121 107/427/121
f 123/428/122 125/429/122 126/430/122 124/431/122
f 124/432/123 126/433/123 110/434/123
f 106/435/124 125/436/124 107/437/124
f 125/438/125 106/439/125 109/440/125 126/441/125
f 126/442/126 109/443/126 110/444/126
o cylinder
v -0.8187499999999995 0.07023118305278073 -0.7790202895061682
v -0.8187499999999999 0.18577957079530988 -0.7403583397915072
v -0.8187499999999999 0.18750000000000014 -0.9375
v -0.6937499999999995 0.07023118305278103 -0.7790202895061682
v -0.6937499999999998 0.18577957079531018 -0.7403583397915072
v -0.6937499999999999 0.18750000000000044 -0.9375
v -0.8187499999999994 -0.0005245024364003148 -0.8782161021022294
v -0.6937499999999994 -0.0005245024364000095 -0.8782161021022296
v -0.8187499999999994 0.0005387812873362263 -1.0000563487096608
v -0.6937499999999994 0.0005387812873365316 -1.0000563487096608
v -0.8187499999999996 0.0730148959812075 -1.0980021963220923
v -0.6937499999999995 0.07301489598120779 -1.0980021963220923
v -0.8187499999999999 0.18922042920469045 -1.1346416602084928
v -0.6937499999999999 0.18922042920469076 -1.134641660208493
v -0.8187500000000001 0.3047688169472195 -1.0959797104938318
v -0.6937500000000001 0.3047688169472198 -1.095979710493832
v -0.8187500000000003 0.37552450243640056 -0.9967838978977706
v -0.6937500000000003 0.3755245024364009 -0.9967838978977706
v -0.8187500000000003 0.374461218712664 -0.8749436512903392
v -0.6937500000000002 0.37446121871266436 -0.8749436512903394
v -0.8187500000000001 0.3019851040187928 -0.7769978036779078
v -0.6937500000000001 0.3019851040187931 -0.7769978036779078
vt 0.8560719687736671 0.8515625
vt 0.851365282410449 0.8660476705413531
vt 0.8314280312263329 0.8515625
vt 0.859375 0.78125
vt 0.875 0.78125
vt 0.875 0.796875
vt 0.859375 0.796875
vt 0.8130698580385474 0.8269187553496709
vt 0.8275551419614526 0.8316250927585922
vt 0.8130698580385474 0.8515625
vt 0.887321875 0.8515625
vt 0.882615625 0.86604765625
vt 0.862678125 0.8515625
vt 0.828125 0.7890625
vt 0.84375 0.7890625
vt 0.84375 0.8046875
vt 0.828125 0.8046875
vt 0.866990625 0.82145234375
vt 0.871696875 0.8359375
vt 0.847053125 0.8359375
vt 0.890428125 0.8359375
vt 0.895134375 0.85042265625
vt 0.870490625 0.85042265625
vt 0.890625 0.8515625
vt 0.90625 0.8515625
vt 0.90625 0.8671875
vt 0.890625 0.8671875
vt 0.895134375 0.81363984375
vt 0.890428125 0.828125
vt 0.870490625 0.81363984375
vt 0.8286948580385474 0.8203125
vt 0.8431801419614526 0.8250188374089213
vt 0.8286948580385474 0.8449562446503291
vt 0.84375 0.78125
vt 0.859375 0.78125
vt 0.859375 0.796875
vt 0.84375 0.796875
vt 0.8638844687736671 0.8370773294586469
vt 0.859177782410449 0.8515625
vt 0.8392405312263329 0.8370773294586469
vt 0.8001781276748354 0.8972982215062173
vt 0.804885021449589 0.8828125
vt 0.8248218723251646 0.8972982215062173
vt 0.875 0.796875
vt 0.890625 0.796875
vt 0.890625 0.8125
vt 0.875 0.8125
vt 0.8353678607531086 0.8702931062252465
vt 0.8208821392468914 0.875
vt 0.8208821392468914 0.8503562553496709
vt 0.8361344650837568 0.8972977839229053
vt 0.8314281276748354 0.8828125
vt 0.8560718723251646 0.8828125
vt 0.8984375 0.875
vt 0.9140625 0.875
vt 0.9140625 0.890625
vt 0.8984375 0.890625
vt 0.8119301419614526 0.8359375
vt 0.7974448580385474 0.8312311625910787
vt 0.8119301419614526 0.8112937553496709
vt 0.878303125 0.89729765625
vt 0.883009375 0.8828125
vt 0.902946875 0.89729765625
vt 0.890625 0.796875
vt 0.90625 0.796875
vt 0.90625 0.8125
vt 0.890625 0.8125
vt 0.820509375 0.8203125
vt 0.815803125 0.80582734375
vt 0.840446875 0.80582734375
vt 0.883009375 0.88167265625
vt 0.878303125 0.8671875
vt 0.902946875 0.8671875
vt 0.8125 0.7890625
vt 0.828125 0.7890625
vt 0.828125 0.8046875
vt 0.8125 0.8046875
vt 0.847053125 0.8125
vt 0.851759375 0.79801484375
vt 0.871696875 0.8125
vt 0.8744301419614526 0.8918312446503291
vt 0.8599448580385474 0.8871249072414078
vt 0.8744301419614526 0.8671875
vt 0.8984375 0.8359375
vt 0.9140625 0.8359375
vt 0.9140625 0.8515625
vt 0.8984375 0.8515625
vt 0.8439469650837568 0.8828125
vt 0.8392406276748354 0.8683272160770947
vt 0.8638843723251646 0.8683272160770947
vt 0.8119303607531086 0.8558743508755755
vt 0.7974446392468914 0.8605812446503291
vt 0.7974446392468914 0.8359375
vt 0.796875 0.7890625
vt 0.8125 0.7890625
vt 0.8125 0.8046875
vt 0.796875 0.8046875
vt 0.8001781276748354 0.8828125
vt 0.804885021449589 0.8683267784937827
vt 0.8248218723251646 0.8828125
vn -1 -2.874096301350335e-15 -2.5081858439794085e-17
vn 7.972801959457439e-16 -0.3173046564050921 0.9483236552061993
vn 1 2.1039462997598006e-15 -5.447991646703299e-16
vn -1 -2.216309670684661e-15 4.616546439269452e-16
vn 2.5057377586866262e-15 -0.8141155183563189 0.5807029557109403
vn 1 2.2163096706846614e-15 -4.616546439269449e-16
vn -1 -2.3683856015664894e-15 -2.0668588022408273e-17
vn 2.4416706000838405e-15 -0.9999619230641714 -0.008726535498374271
vn 1 2.3683856015664894e-15 2.066858802240829e-17
vn -1 -2.511914753339871e-15 4.082948295979393e-16
vn 1.879303319014966e-15 -0.8038568606172175 -0.5948227867513414
vn 1 2.2079151315074074e-15 5.002642688522713e-16
vn -1 -1.9160642009002223e-15 -1.6721238959863162e-17
vn -9.111773667951358e-16 -0.30070579950427195 -0.9537169507482275
vn 1 2.8740963013503332e-15 2.5081858439794578e-17
vn -1 -1.9160642009002243e-15 -1.672123895986318e-17
vn -2.391840587837234e-15 0.31730465640509237 -0.9483236552061994
vn 1 1.916064200900225e-15 1.6721238959863168e-17
vn -1 -2.5044064492438203e-15 -4.520716015288683e-16
vn -2.1640462461384498e-15 0.8141155183563189 -0.5807029557109403
vn 1 2.50440644924382e-15 4.520716015288666e-16
vn -1 -2.3683856015664894e-15 -2.0668588022408273e-17
vn -2.6570074387209695e-15 0.9999619230641713 0.008726535498374271
vn 1 2.0802888230073306e-15 -8.930576574334053e-16
vn -1 -2.5119147533398716e-15 4.0829482959794056e-16
vn -1.765406148165577e-15 0.8038568606172172 0.5948227867513415
vn 1 1.7319362540886714e-15 1.4805842702665099e-16
vn -1 -1.9160642009002227e-15 -1.6721238959862626e-17
vn -7.40331610521047e-16 0.30070579950427284 0.953716950748227
vn 1 2.696042700151423e-15 -5.396320176647279e-16
usemtl m_3123629a-d8fc-35fa-b72c-c8c3d1093ddd
f 127/445/127 128/446/127 129/447/127
f 128/448/128 127/449/128 130/450/128 131/451/128
f 131/452/129 130/453/129 132/454/129
f 133/455/130 127/456/130 129/457/130
f 127/458/131 133/459/131 134/460/131 130/461/131
f 130/462/132 134/463/132 132/464/132
f 135/465/133 133/466/133 129/467/133
f 133/468/134 135/469/134 136/470/134 134/471/134
f 134/472/135 136/473/135 132/474/135
f 137/475/136 135/476/136 129/477/136
f 135/478/137 137/479/137 138/480/137 136/481/137
f 136/482/138 138/483/138 132/484/138
f 139/485/139 137/486/139 129/487/139
f 137/488/140 139/489/140 140/490/140 138/491/140
f 138/492/141 140/493/141 132/494/141
f 141/495/142 139/496/142 129/497/142
f 139/498/143 141/499/143 142/500/143 140/501/143
f 140/502/144 142/503/144 132/504/144
f 143/505/145 141/506/145 129/507/145
f 141/508/146 143/509/146 144/510/146 142/511/146
f 142/512/147 144/513/147 132/514/147
f 145/515/148 143/516/148 129/517/148
f 143/518/149 145/519/149 146/520/149 144/521/149
f 144/522/150 146/523/150 132/524/150
f 147/525/151 145/526/151 129/527/151
f 145/528/152 147/529/152 148/530/152 146/531/152
f 146/532/153 148/533/153 132/534/153
f 128/535/154 147/536/154 129/537/154
f 147/538/155 128/539/155 131/540/155 148/541/155
f 148/542/156 131/543/156 132/544/156