# Made in Blockbench 5.0.7
mtllib model.mtl

o cube
v -1.1250000000000004 0.06874999999999998 -0.8749999999999998
v -1.1250000000000004 1.3187500000000005 -0.8749999999999998
v -0.6250000000000004 1.31875 -0.8749999999999999
v -0.6250000000000004 0.06874999999999998 -0.8749999999999999
v -0.6250000000000003 0.06874999999999998 -0.7499999999999999
v -0.6250000000000003 1.31875 -0.7499999999999999
v -1.1250000000000004 1.3000000000000003 -0.7499999999999998
v -1.1250000000000004 0.06874999999999998 -0.7499999999999998
v -1.1875000000000004 0.06874999999999998 -0.8749999999999998
v -1.1875000000000004 1.290625 -0.8749999999999998
v -1.1250000000000004 0.06874999999999998 -0.8749999999999998
v -1.1249999999999998 0.06874999999999998 0.8125000000000002
v -1.1874999999999998 1.290625 0.8125000000000002
v -1.1874999999999998 0.06874999999999998 0.8125000000000002
v 1.1249999999999996 0.06874999999999998 -0.8750000000000004
v 1.1249999999999996 1.31875 -0.8750000000000004
v 1.2499999999999996 1.31875 -0.8750000000000004
v 1.2499999999999996 0.06874999999999998 -0.8750000000000004
v 1.25 0.06874999999999998 0.8124999999999996
v 1.25 1.31875 0.8124999999999996
v 1.125 1.31875 0.8124999999999996
v 1.125 0.06874999999999998 0.8124999999999996
v -1.1875000000000004 0.006249999999999978 -0.8749999999999998
v -1.1875000000000004 0.06874999999999998 -0.8749999999999998
v 1.1249999999999996 0.06874999999999998 -0.8750000000000004
v 1.1249999999999996 0.006249999999999978 -0.8750000000000004
v 1.125 0.006249999999999978 0.8124999999999996
v 1.125 0.06874999999999998 0.8124999999999996
v -1.1874999999999998 0.06874999999999998 0.8125000000000002
v -1.1874999999999998 0.006249999999999978 0.8125000000000002
v 1.2499999999999996 0.006249999999999978 -0.8750000000000004
v 1.2499999999999996 0.06874999999999998 -0.8750000000000004
v 1.25 0.06874999999999998 0.8124999999999996
v 1.25 0.006249999999999978 0.8124999999999996
v -0.6249999999999998 0.06874999999999998 0.6875000000000001
v -0.6249999999999998 1.31875 0.6875000000000001
v 1.125 1.31875 0.6874999999999996
v 1.125 0.06874999999999998 0.6874999999999996
v 1.125 0.06874999999999998 0.8124999999999996
v -0.6249999999999998 1.31875 0.8125000000000001
v -0.6249999999999998 0.06874999999999998 0.8125000000000001
v -0.6250000000000004 0.06874999999999998 -0.8749999999999999
v 1.1249999999999996 0.06874999999999998 -0.8750000000000004
v 1.1249999999999996 0.06874999999999998 -0.7500000000000004
v 1.1249999999999996 1.31875 -0.7500000000000004
v -0.6250000000000003 0.06874999999999998 -0.7499999999999999
v -1.1249999999999998 0.06874999999999998 0.6875000000000002
v -0.6249999999999998 0.06874999999999998 0.6875000000000001
v -0.6249999999999998 0.06874999999999998 0.8125000000000001
v -1.1249999999999998 0.06874999999999998 0.8125000000000002
v -1.1249999999999998 1.2999999999999998 0.6875000000000002
v -1.1249999999999998 1.31875 0.8125000000000002
v -1.1812500000000006 1.3124999999999996 -0.8749999999999998
v -1.18125 1.3124999999999991 0.8125000000000002
vt 0.703125 0.8671875
vt 0.703125 0.98984375
vt 0.640625 1
vt 0.640625 0.8671875
vt 0.703125 0.734375
vt 0.703125 0.8671875
vt 0.640625 0.85703125
vt 0.640625 0.734375
vt 0.4921875 0.2109375
vt 0.4921875 0.33476562499999996
vt 0.484375 0.3359375
vt 0.484375 0.2109375
vt 0.5 0.2109375
vt 0.5 0.3359375
vt 0.4921875 0.33476562499999996
vt 0.4921875 0.2109375
vt 0.421875 0.28125
vt 0.421875 0.40625
vt 0.2109375 0.40625
vt 0.2109375 0.28125
vt 0.84375 0.34375
vt 0.84375 0.46875
vt 0.6328125 0.46875
vt 0.6328125 0.34375
vt 0.46875 0.203125
vt 0.46875 0.3359375
vt 0.453125 0.3359375
vt 0.453125 0.203125
vt 0.484375 0.203125
vt 0.484375 0.3359375
vt 0.46875 0.3359375
vt 0.46875 0.203125
vt 0.859375 0.3125
vt 0.859375 0.328125
vt 0.6484375 0.328125
vt 0.6484375 0.3125
vt 0.6328125 0.3359375
vt 0.6328125 0.46875
vt 0.421875 0.46875
vt 0.421875 0.3359375
vt 0.2109375 0.2734375
vt 0.2109375 0.40625
vt 0 0.40625
vt 0 0.2734375
vt 0.984375 0.7265625
vt 0.984375 0.734375
vt 0.6953125 0.734375
vt 0.6953125 0.7265625
vt 0.9921875 0.9609375
vt 0.9921875 0.96875
vt 0.703125 0.96875
vt 0.703125 0.9609375
vt 0.2109375 0.40625
vt 0.2109375 0.6953125
vt 0 0.6953125
vt 0 0.40625
vt 0.421875 0.40625
vt 0.421875 0.6953125
vt 0.2109375 0.6953125
vt 0.2109375 0.40625
vt 0.9140625 0.953125
vt 0.9140625 0.9609375
vt 0.703125 0.9609375
vt 0.703125 0.953125
vt 0.9140625 0.9453125
vt 0.9140625 0.953125
vt 0.703125 0.953125
vt 0.703125 0.9453125
vt 0.53125 0.3359375
vt 0.53125 0.328125
vt 0.546875 0.328125
vt 0.546875 0.3359375
vt 0.5625 0.328125
vt 0.5625 0.3359375
vt 0.546875 0.3359375
vt 0.546875 0.328125
vt 0.859375 0.3125
vt 0.6484375 0.3125
vt 0.6484375 0.296875
vt 0.859375 0.296875
vt 0.640625 0.8671875
vt 0.640625 1
vt 0.421875 1
vt 0.421875 0.8671875
vt 0.640625 0.734375
vt 0.640625 0.8671875
vt 0.421875 0.8671875
vt 0.421875 0.734375
vt 0.4375 0.1171875
vt 0.4375 0.3359375
vt 0.421875 0.3359375
vt 0.421875 0.1171875
vt 0.640625 0.6015625
vt 0.640625 0.734375
vt 0.421875 0.734375
vt 0.421875 0.6015625
vt 0.640625 0.46875
vt 0.640625 0.6015625
vt 0.421875 0.6015625
vt 0.421875 0.46875
vt 0.453125 0.1171875
vt 0.453125 0.3359375
vt 0.4375 0.3359375
vt 0.4375 0.1171875
vt 0.703125 0.6015625
vt 0.703125 0.72421875
vt 0.640625 0.734375
vt 0.640625 0.6015625
vt 0.703125 0.46875
vt 0.703125 0.6015625
vt 0.640625 0.59140625
vt 0.640625 0.46875
vt 0.671875 0.4609374999999971
vt 0.671875 0.5234374999999971
vt 0.484375 0.5234374999999971
vt 0.484375 0.4609374999999971
vn -2.220446049250313e-16 0 -1
vn 2.220446049250313e-16 0 1
vn -2.220446049250313e-16 0 -1
vn 2.220446049250313e-16 0 1
vn 1 0 -3.5362659302875356e-16
vn -1 0 3.5362659302875356e-16
vn -2.220446049250313e-16 0 -1
vn 2.220446049250313e-16 0 1
vn 0 1 0
vn 1 0 -2.220446049250313e-16
vn -1 0 2.220446049250313e-16
vn -3.1806389354126107e-16 0 -1
vn 3.1806389354126107e-16 0 1
vn 0 1 0
vn 0 -1 0
vn 1 0 -2.220446049250313e-16
vn -1 0 3.5362659302875356e-16
vn -2.220446049250313e-16 0 -1
vn 2.220446049250313e-16 0 1
vn 0 -1 0
vn -3.4892723631076353e-16 0 -1
vn 3.4892723631076353e-16 0 1
vn 0 1 0
vn -3.489272363107635e-16 0 -1
vn 3.489272363107635e-16 0 1
vn 0 1 0
vn -2.220446049250313e-16 0 -1
vn 2.220446049250313e-16 0 1
vn -0.11043152607486337 0.9938837346736172 3.0037887608733315e-16
usemtl m_cc7304f1-26d3-8686-e11b-a9cf304e3d42
f 1/1/1 2/2/1 3/3/1 4/4/1
f 5/5/2 6/6/2 7/7/2 8/8/2
f 9/9/3 10/10/3 2/11/3 11/12/3
f 12/13/4 52/14/4 13/15/4 14/16/4
f 11/17/5 2/18/5 52/19/5 12/20/5
f 14/21/6 13/22/6 10/23/6 9/24/6
f 15/25/7 16/26/7 17/27/7 18/28/7
f 19/29/8 20/30/8 21/31/8 22/32/8
f 17/33/9 16/34/9 21/35/9 20/36/9
f 18/37/10 17/38/10 20/39/10 19/40/10
f 22/41/11 21/42/11 16/43/11 15/44/11
f 23/45/12 24/46/12 25/47/12 26/48/12
f 27/49/13 28/50/13 29/51/13 30/52/13
f 25/53/14 24/54/14 29/55/14 28/56/14
f 23/57/15 26/58/15 27/59/15 30/60/15
f 31/61/16 32/62/16 33/63/16 34/64/16
f 30/65/17 29/66/17 24/67/17 23/68/17
f 32/69/18 31/70/18 26/71/18 25/72/18
f 34/73/19 33/74/19 28/75/19 27/76/19
f 31/77/20 34/78/20 27/79/20 26/80/20
f 35/81/21 36/82/21 37/83/21 38/84/21
f 39/85/22 21/86/22 40/87/22 41/88/22
f 37/89/23 36/90/23 40/91/23 21/92/23
f 42/93/24 3/94/24 16/95/24 43/96/24
f 44/97/25 45/98/25 6/99/25 46/100/25
f 16/101/26 3/102/26 6/103/26 45/104/26
f 47/105/27 51/106/27 36/107/27 48/108/27
f 49/109/28 40/110/28 52/111/28 50/112/28
f 2/113/29 53/114/29 54/115/29 52/116/29
o cube
v -1.1875000000000004 1.31875 -0.8749999999999999
v -1.1875000000000004 1.31875 -0.7499999999999999
v 0.5624999999999996 1.31875 -0.8750000000000004
v 0.5625 1.31875 0.8124999999999996
v -1.1874999999999998 1.31875 0.6875000000000001
v 0.5625 1.31875 0.6874999999999996
v -1.1874999999999998 1.31875 0.8125000000000001
v 0.5624999999999996 1.31875 -0.7500000000000004
vt 0.4375 0.1171875
vt 0.4375 0.3359375
vt 0.421875 0.3359375
vt 0.421875 0.1171875
vt 0.453125 0.1171875
vt 0.453125 0.3359375
vt 0.4375 0.3359375
vt 0.4375 0.1171875
vn 0 1 0
vn 0 1 0
usemtl m_cc7304f1-26d3-8686-e11b-a9cf304e3d42
f 60/117/30 59/118/30 61/119/30 58/120/30
f 57/121/31 55/122/31 56/123/31 62/124/31
o cube
v -1.1875 2.6937499999999996 0.8125000000000002
v 1.25 2.6937499999999996 0.8124999999999998
v -1.1875 1.3187499999999996 0.8125000000000002
v 1.25 1.3187499999999996 0.8124999999999998
v 1.25 2.6937499999999996 0.6874999999999998
v -1.1875 2.6937499999999996 0.6875000000000002
v 1.25 1.3187499999999996 0.6874999999999998
v -1.1875 1.3187499999999996 0.6875000000000002
vt 0.2421875 0.9609375
vt 0.3671875 0.9609375
vt 0.3671875 0.78125
vt 0.2421875 0.78125
vt 0.0078125 0.9609375
vt 0.3671875 0.9609375
vt 0.3671875 0.8125
vt 0.0078125 0.8125
vt 0.1953125 0.9765625
vt 0.3203125 0.9765625
vt 0.3203125 0.7578125
vt 0.1953125 0.7578125
vt 0.1640625 0.953125
vt 0.328125 0.953125
vt 0.328125 0.8203125
vt 0.1640625 0.8203125
vt 0.125 0.9609375
vt 0.25 0.9609375
vt 0.25 0.7890625
vt 0.125 0.7890625
vt 0.03125 0.9609375
vt 0.15625 0.9609375
vt 0.15625 0.7890625
vt 0.03125 0.7890625
vn 1 0 -2.220446049250313e-16
vn 2.220446049250313e-16 0 1
vn -1 0 2.220446049250313e-16
vn -2.220446049250313e-16 0 -1
vn 0 1 0
vn 0 -1 0
usemtl m_cc7304f1-26d3-8686-e11b-a9cf304e3d42
f 66/128/32 69/127/32 67/126/32 64/125/32
f 65/132/33 66/131/33 64/130/33 63/129/33
f 70/136/34 65/135/34 63/134/34 68/133/34
f 69/140/35 70/139/35 68/138/35 67/137/35
f 68/144/36 63/143/36 64/142/36 67/141/36
f 69/148/37 66/147/37 65/146/37 70/145/37